<?xml version="1.0" encoding="UTF-8" standalone="no"?><svg xmlns="http://www.w3.org/2000/svg" xmlns:xlink="http://www.w3.org/1999/xlink" clip-rule="evenodd" stroke-miterlimit="4.00" viewBox="0 0 353 143"><desc>SVG generated by Keynote</desc><defs></defs><g transform="matrix(1.00, 0.00, -0.00, -1.00, 0.0, 143.0)"><g><clipPath id="clip-74"><path d="M 15.1 1.0 L 350.9 1.0 L 350.9 52.5 L 15.1 52.5 Z M 15.1 1.0 "></path></clipPath><g clip-path="url(#clip-74)"><path d="M 0.0 0.0 L 333.6 0.0 L 333.6 49.2 L 0.0 49.2 Z M 0.0 0.0 " fill="none" stroke="#52575F" stroke-width="0.25" transform="matrix(1.00, 0.00, 0.00, -1.00, 16.2, 51.3)"></path></g></g><g><clipPath id="clip-75"><path d="M 11.8 -2.3 L 354.2 -2.3 L 354.2 55.7 L 11.8 55.7 Z M 11.8 -2.3 "></path></clipPath><g clip-path="url(#clip-75)"><text xml:space="preserve" font-family="Helvetica-Light" font-size="34.0" fill="#000000" transform="matrix(1.00, 0.00, -0.00, -1.00, 21.0, 14.0)">&lt;</text><text xml:space="preserve" font-family="Helvetica-Light" font-size="34.0" fill="#FB2858" transform="matrix(1.00, 0.00, -0.00, -1.00, 43.4, 14.0)">R</text><text xml:space="preserve" font-family="Helvetica-Light" font-size="34.0" fill="#FB2858" transform="matrix(1.00, 0.00, -0.00, -1.00, 66.1, 14.0)">o</text><text xml:space="preserve" font-family="Helvetica-Light" font-size="34.0" fill="#FB2858" transform="matrix(1.00, 0.00, -0.00, -1.00, 85.0, 14.0)">o</text><text xml:space="preserve" font-family="Helvetica-Light" font-size="34.0" fill="#FB2858" transform="matrix(1.00, 0.00, -0.00, -1.00, 103.9, 14.0)">t</text><text xml:space="preserve" font-family="Helvetica-Light" font-size="34.0" fill="#000000" transform="matrix(1.00, 0.00, -0.00, -1.00, 113.4, 14.0)"> </text><text xml:space="preserve" font-family="Helvetica-Light" font-size="34.0" fill="#3F4349" transform="matrix(1.00, 0.00, -0.00, -1.00, 122.8, 14.0)">d</text><text xml:space="preserve" font-family="Helvetica-Light" font-size="34.0" fill="#3F4349" transform="matrix(1.00, 0.00, -0.00, -1.00, 143.6, 14.0)">a</text><text xml:space="preserve" font-family="Helvetica-Light" font-size="34.0" fill="#3F4349" transform="matrix(1.00, 0.00, -0.00, -1.00, 162.5, 14.0)">t</text><text xml:space="preserve" font-family="Helvetica-Light" font-size="34.0" fill="#3F4349" transform="matrix(1.00, 0.00, -0.00, -1.00, 172.0, 14.0)">a</text><text xml:space="preserve" font-family="Helvetica-Light" font-size="34.0" fill="#000000" transform="matrix(1.00, 0.00, -0.00, -1.00, 190.9, 14.0)">=</text><text xml:space="preserve" font-family="Helvetica-Light" font-size="34.0" fill="#000000" transform="matrix(1.00, 0.00, -0.00, -1.00, 213.3, 14.0)">{</text><text xml:space="preserve" font-family="Helvetica-Light" font-size="34.0" fill="#595E66" transform="matrix(1.00, 0.00, -0.00, -1.00, 224.6, 14.0)">d</text><text xml:space="preserve" font-family="Helvetica-Light" font-size="34.0" fill="#595E66" transform="matrix(1.00, 0.00, -0.00, -1.00, 245.4, 14.0)">a</text><text xml:space="preserve" font-family="Helvetica-Light" font-size="34.0" fill="#595E66" transform="matrix(1.00, 0.00, -0.00, -1.00, 264.3, 14.0)">t</text><text xml:space="preserve" font-family="Helvetica-Light" font-size="34.0" fill="#595E66" transform="matrix(1.00, 0.00, -0.00, -1.00, 273.8, 14.0)">a</text><text xml:space="preserve" font-family="Helvetica-Light" font-size="34.0" fill="#000000" transform="matrix(1.00, 0.00, -0.00, -1.00, 292.7, 14.0)">}</text><text xml:space="preserve" font-family="Helvetica-Light" font-size="34.0" fill="#000000" transform="matrix(1.00, 0.00, -0.00, -1.00, 304.0, 14.0)"> </text><text xml:space="preserve" font-family="Helvetica-Light" font-size="34.0" fill="#000000" transform="matrix(1.00, 0.00, -0.00, -1.00, 313.4, 14.0)">/</text><text xml:space="preserve" font-family="Helvetica-Light" font-size="34.0" fill="#000000" transform="matrix(1.00, 0.00, -0.00, -1.00, 322.9, 14.0)">&gt;</text></g></g><g><clipPath id="clip-76"><path d="M 3.7 140.0 L 247.3 62.2 L 243.8 51.1 L 0.1 128.9 Z M 3.7 140.0 "></path></clipPath><g clip-path="url(#clip-76)"><path d="M 0.0 0.0 L 244.2 0.0 L 245.2 0.0 " fill="none" stroke="#52575F" stroke-width="2.00" transform="matrix(0.95, -0.30, -0.30, -0.95, 2.9, 134.2)"></path><path d="M 234.0 55.3 L 244.6 57.0 L 236.9 64.5 Z M 234.0 55.3 " fill="#52575F"></path></g></g><g><clipPath id="clip-77"><path d="M 352.5 133.8 L 267.5 48.9 L 259.3 57.1 L 344.3 142.1 Z M 352.5 133.8 "></path></clipPath><g clip-path="url(#clip-77)"><path d="M 0.0 0.0 L 108.6 0.0 L 109.6 0.0 " fill="none" stroke="#52575F" stroke-width="2.00" transform="matrix(-0.71, -0.71, -0.71, 0.71, 347.7, 137.2)"></path><path d="M 267.5 63.9 L 264.1 53.7 L 274.3 57.1 Z M 267.5 63.9 " fill="#52575F"></path></g></g></g></svg>