<?xml version="1.0" encoding="UTF-8" standalone="no"?><svg xmlns="http://www.w3.org/2000/svg" xmlns:xlink="http://www.w3.org/1999/xlink" clip-rule="evenodd" stroke-miterlimit="4.00" viewBox="0 0 505 164"><desc>SVG generated by Keynote</desc><defs></defs><g transform="matrix(1.00, 0.00, -0.00, -1.00, 0.0, 164.0)"><g><clipPath id="clip-78"><path d="M 171.4 -3.5 L 508.6 -3.5 L 508.6 57.5 L 171.4 57.5 Z M 171.4 -3.5 "></path></clipPath><g clip-path="url(#clip-78)"><text xml:space="preserve" font-family="Helvetica-Light" font-size="36.0" fill="#000000" transform="matrix(1.00, 0.00, -0.00, -1.00, 181.0, 14.0)">m</text><text xml:space="preserve" font-family="Helvetica-Light" font-size="36.0" fill="#000000" transform="matrix(1.00, 0.00, -0.00, -1.00, 211.0, 14.0)">o</text><text xml:space="preserve" font-family="Helvetica-Light" font-size="36.0" fill="#000000" transform="matrix(1.00, 0.00, -0.00, -1.00, 231.0, 14.0)">u</text><text xml:space="preserve" font-family="Helvetica-Light" font-size="36.0" fill="#000000" transform="matrix(1.00, 0.00, -0.00, -1.00, 251.0, 14.0)">n</text><text xml:space="preserve" font-family="Helvetica-Light" font-size="36.0" fill="#000000" transform="matrix(1.00, 0.00, -0.00, -1.00, 271.0, 14.0)">t</text><text xml:space="preserve" font-family="Helvetica-Light" font-size="36.0" fill="#000000" transform="matrix(1.00, 0.00, -0.00, -1.00, 281.0, 14.0)"> </text><text xml:space="preserve" font-family="Helvetica-Light" font-size="36.0" fill="#FB2858" transform="matrix(1.00, 0.00, -0.00, -1.00, 291.1, 14.0)">R</text><text xml:space="preserve" font-family="Helvetica-Light" font-size="36.0" fill="#FB2858" transform="matrix(1.00, 0.00, -0.00, -1.00, 315.1, 14.0)">o</text><text xml:space="preserve" font-family="Helvetica-Light" font-size="36.0" fill="#FB2858" transform="matrix(1.00, 0.00, -0.00, -1.00, 335.1, 14.0)">o</text><text xml:space="preserve" font-family="Helvetica-Light" font-size="36.0" fill="#FB2858" transform="matrix(1.00, 0.00, -0.00, -1.00, 355.1, 14.0)">t</text><text xml:space="preserve" font-family="Helvetica-Light" font-size="36.0" fill="#000000" transform="matrix(1.00, 0.00, -0.00, -1.00, 365.1, 14.0)"> </text><text xml:space="preserve" font-family="Helvetica-Light" font-size="36.0" fill="#000000" transform="matrix(1.00, 0.00, -0.00, -1.00, 375.1, 14.0)">t</text><text xml:space="preserve" font-family="Helvetica-Light" font-size="36.0" fill="#000000" transform="matrix(1.00, 0.00, -0.00, -1.00, 385.1, 14.0)">o</text><text xml:space="preserve" font-family="Helvetica-Light" font-size="36.0" fill="#000000" transform="matrix(1.00, 0.00, -0.00, -1.00, 405.1, 14.0)"> </text><text xml:space="preserve" font-family="Helvetica-Light" font-size="36.0" fill="#000000" transform="matrix(1.00, 0.00, -0.00, -1.00, 415.1, 14.0)">D</text><text xml:space="preserve" font-family="Helvetica-Light" font-size="36.0" fill="#000000" transform="matrix(1.00, 0.00, -0.00, -1.00, 441.1, 14.0)">O</text><text xml:space="preserve" font-family="Helvetica-Light" font-size="36.0" fill="#000000" transform="matrix(1.00, 0.00, -0.00, -1.00, 469.1, 14.0)">M</text></g></g><g><clipPath id="clip-79"><path d="M 3.9 163.3 L 307.8 56.0 L 304.0 45.0 L 0.1 152.4 Z M 3.9 163.3 "></path></clipPath><g clip-path="url(#clip-79)"><path d="M 0.0 0.0 L 310.7 0.0 L 311.7 0.0 " fill="none" stroke="#52575F" stroke-width="2.00" transform="matrix(0.94, -0.33, -0.33, -0.94, 2.9, 157.5)"></path><path d="M 294.3 49.5 L 305.0 50.8 L 297.5 58.5 Z M 294.3 49.5 " fill="#52575F"></path></g></g></g></svg>