<?xml version="1.0" encoding="UTF-8" standalone="no"?><svg xmlns="http://www.w3.org/2000/svg" xmlns:xlink="http://www.w3.org/1999/xlink" clip-rule="evenodd" stroke-miterlimit="4.00" viewBox="0 0 364 310"><desc>SVG generated by Keynote</desc><defs></defs><g transform="matrix(1.00, 0.00, -0.00, -1.00, 0.0, 310.0)"><g><clipPath id="clip-80"><path d="M -3.2 132.5 L 345.2 132.5 L 345.2 193.5 L -3.2 193.5 Z M -3.2 132.5 "></path></clipPath><g clip-path="url(#clip-80)"><text xml:space="preserve" font-family="Helvetica-Light" font-size="36.0" fill="#000000" transform="matrix(1.00, 0.00, -0.00, -1.00, 6.0, 150.0)">r</text><text xml:space="preserve" font-family="Helvetica-Light" font-size="36.0" fill="#000000" transform="matrix(1.00, 0.00, -0.00, -1.00, 17.3, 150.0)">e</text><text xml:space="preserve" font-family="Helvetica-Light" font-size="36.0" fill="#000000" transform="matrix(1.00, 0.00, -0.00, -1.00, 37.4, 150.0)">n</text><text xml:space="preserve" font-family="Helvetica-Light" font-size="36.0" fill="#000000" transform="matrix(1.00, 0.00, -0.00, -1.00, 57.4, 150.0)">d</text><text xml:space="preserve" font-family="Helvetica-Light" font-size="36.0" fill="#000000" transform="matrix(1.00, 0.00, -0.00, -1.00, 79.4, 150.0)">e</text><text xml:space="preserve" font-family="Helvetica-Light" font-size="36.0" fill="#000000" transform="matrix(1.00, 0.00, -0.00, -1.00, 99.4, 150.0)">r</text><text xml:space="preserve" font-family="Helvetica-Light" font-size="36.0" fill="#000000" transform="matrix(1.00, 0.00, -0.00, -1.00, 111.4, 150.0)"> </text><text xml:space="preserve" font-family="Helvetica-Light" font-size="36.0" fill="#FB2858" transform="matrix(1.00, 0.00, -0.00, -1.00, 121.4, 150.0)">R</text><text xml:space="preserve" font-family="Helvetica-Light" font-size="36.0" fill="#FB2858" transform="matrix(1.00, 0.00, -0.00, -1.00, 145.4, 150.0)">o</text><text xml:space="preserve" font-family="Helvetica-Light" font-size="36.0" fill="#FB2858" transform="matrix(1.00, 0.00, -0.00, -1.00, 165.4, 150.0)">o</text><text xml:space="preserve" font-family="Helvetica-Light" font-size="36.0" fill="#FB2858" transform="matrix(1.00, 0.00, -0.00, -1.00, 185.4, 150.0)">t</text><text xml:space="preserve" font-family="Helvetica-Light" font-size="36.0" fill="#000000" transform="matrix(1.00, 0.00, -0.00, -1.00, 195.4, 150.0)"> </text><text xml:space="preserve" font-family="Helvetica-Light" font-size="36.0" fill="#000000" transform="matrix(1.00, 0.00, -0.00, -1.00, 205.4, 150.0)">t</text><text xml:space="preserve" font-family="Helvetica-Light" font-size="36.0" fill="#000000" transform="matrix(1.00, 0.00, -0.00, -1.00, 215.4, 150.0)">o</text><text xml:space="preserve" font-family="Helvetica-Light" font-size="36.0" fill="#000000" transform="matrix(1.00, 0.00, -0.00, -1.00, 235.5, 150.0)"> </text><text xml:space="preserve" font-family="Helvetica-Light" font-size="36.0" fill="#000000" transform="matrix(1.00, 0.00, -0.00, -1.00, 245.5, 150.0)">s</text><text xml:space="preserve" font-family="Helvetica-Light" font-size="36.0" fill="#000000" transform="matrix(1.00, 0.00, -0.00, -1.00, 263.5, 150.0)">t</text><text xml:space="preserve" font-family="Helvetica-Light" font-size="36.0" fill="#000000" transform="matrix(1.00, 0.00, -0.00, -1.00, 273.5, 150.0)">r</text><text xml:space="preserve" font-family="Helvetica-Light" font-size="36.0" fill="#000000" transform="matrix(1.00, 0.00, -0.00, -1.00, 285.5, 150.0)">i</text><text xml:space="preserve" font-family="Helvetica-Light" font-size="36.0" fill="#000000" transform="matrix(1.00, 0.00, -0.00, -1.00, 293.5, 150.0)">n</text><text xml:space="preserve" font-family="Helvetica-Light" font-size="36.0" fill="#000000" transform="matrix(1.00, 0.00, -0.00, -1.00, 313.5, 150.0)">g</text></g></g><g><clipPath id="clip-81"><path d="M 363.0 299.6 L 178.8 187.7 L 172.8 197.6 L 357.0 309.5 Z M 363.0 299.6 "></path></clipPath><g clip-path="url(#clip-81)"><path d="M 0.0 0.0 L 204.0 0.0 L 205.0 0.0 " fill="none" stroke="#52575F" stroke-width="2.00" transform="matrix(-0.85, -0.52, -0.52, 0.85, 359.1, 304.0)"></path><path d="M 182.3 202.2 L 176.6 193.1 L 187.3 194.0 Z M 182.3 202.2 " fill="#52575F"></path></g></g><g><clipPath id="clip-82"><path d="M 167.6 134.6 L 167.6 0.5 L 156.0 0.5 L 156.0 134.6 Z M 167.6 134.6 "></path></clipPath><g clip-path="url(#clip-82)"><path d="M 0.0 0.0 L 122.5 0.0 L 123.5 0.0 " fill="none" stroke="#52575F" stroke-width="2.00" transform="matrix(0.00, -1.00, -1.00, 0.00, 161.8, 133.6)"></path><path d="M 157.0 11.1 L 161.8 1.5 L 166.6 11.1 Z M 157.0 11.1 " fill="#52575F"></path></g></g><g><clipPath id="clip-83"><path d="M 172.8 27.5 L 239.2 27.5 L 239.2 68.5 L 172.8 68.5 Z M 172.8 27.5 "></path></clipPath><g clip-path="url(#clip-83)"><text xml:space="preserve" font-family="Helvetica-LightOblique" font-style="italic" font-size="24.0" fill="#000000" transform="matrix(1.00, 0.00, -0.00, -1.00, 179.0, 39.0)">s</text><text xml:space="preserve" font-family="Helvetica-LightOblique" font-style="italic" font-size="24.0" fill="#000000" transform="matrix(1.00, 0.00, -0.00, -1.00, 191.0, 39.0)">e</text><text xml:space="preserve" font-family="Helvetica-LightOblique" font-style="italic" font-size="24.0" fill="#000000" transform="matrix(1.00, 0.00, -0.00, -1.00, 204.3, 39.0)">n</text><text xml:space="preserve" font-family="Helvetica-LightOblique" font-style="italic" font-size="24.0" fill="#000000" transform="matrix(1.00, 0.00, -0.00, -1.00, 217.7, 39.0)">d</text></g></g></g></svg>