<?xml version="1.0" encoding="UTF-8" standalone="no"?><svg xmlns="http://www.w3.org/2000/svg" xmlns:xlink="http://www.w3.org/1999/xlink" clip-rule="evenodd" stroke-miterlimit="4.00" viewBox="0 0 1024 768"><desc>SVG generated by Keynote</desc><defs><linearGradient id="gradSh1.18" x1="0.0" y1="0.0" x2="100.0" y2="0.0" gradientUnits="userSpaceOnUse" gradientTransform="matrix(-5.14, 0.00, 0.00, 0.14, 512.8, 4.5)"><stop offset="0.00000" stop-color="#FBFBFB"></stop><stop offset="0.01466" stop-color="#FAFAFA"></stop><stop offset="1.00000" stop-color="#BEBEBE"></stop></linearGradient></defs><g transform="matrix(1.00, 0.00, -0.00, -1.00, 0.0, 768.0)"><path d="M 0.0 768.0 L 1024.0 768.0 L 1024.0 0.0 L 0.0 0.0 Z M 0.0 768.0 " fill="#FEFFFF"></path><g><clipPath id="clip-72"><path d="M -0.2 -1.6 L 511.8 -1.6 L 511.8 10.5 L -0.2 10.5 L -0.2 -1.6 Z M -0.2 -1.6 "></path></clipPath><g clip-path="url(#clip-72)"><path d="M -0.2 -1.6 L 511.8 -1.6 L 511.8 10.5 L -0.2 10.5 L -0.2 -1.6 Z M -0.2 -1.6 " fill="url(#gradSh1.18)"></path></g></g><text xml:space="preserve" font-family="Helvetica-Light" font-size="36.0" fill="#52575F" transform="matrix(1.00, 0.00, -0.00, -1.00, 907.0, 696.0)">C</text><text xml:space="preserve" font-family="Helvetica-Light" font-size="36.0" fill="#52575F" transform="matrix(1.00, 0.00, -0.00, -1.00, 933.0, 696.0)">l</text><text xml:space="preserve" font-family="Helvetica-Light" font-size="36.0" fill="#52575F" transform="matrix(1.00, 0.00, -0.00, -1.00, 941.0, 696.0)">i</text><text xml:space="preserve" font-family="Helvetica-Light" font-size="36.0" fill="#52575F" transform="matrix(1.00, 0.00, -0.00, -1.00, 949.0, 696.0)">e</text><text xml:space="preserve" font-family="Helvetica-Light" font-size="36.0" fill="#52575F" transform="matrix(1.00, 0.00, -0.00, -1.00, 969.0, 696.0)">n</text><text xml:space="preserve" font-family="Helvetica-Light" font-size="36.0" fill="#52575F" transform="matrix(1.00, 0.00, -0.00, -1.00, 989.0, 696.0)">t</text><text xml:space="preserve" font-family="Helvetica-Light" font-size="18.0" fill="#000000" transform="matrix(1.00, 0.00, -0.00, -1.00, 506.0, 18.0)">9</text><text xml:space="preserve" font-family="Helvetica-Light" font-size="36.0" fill="#000000" transform="matrix(1.00, 0.00, -0.00, -1.00, 152.0, 483.0)">r</text><text xml:space="preserve" font-family="Helvetica-Light" font-size="36.0" fill="#000000" transform="matrix(1.00, 0.00, -0.00, -1.00, 163.3, 483.0)">e</text><text xml:space="preserve" font-family="Helvetica-Light" font-size="36.0" fill="#000000" transform="matrix(1.00, 0.00, -0.00, -1.00, 183.4, 483.0)">q</text><text xml:space="preserve" font-family="Helvetica-Light" font-size="36.0" fill="#000000" transform="matrix(1.00, 0.00, -0.00, -1.00, 205.4, 483.0)">u</text><text xml:space="preserve" font-family="Helvetica-Light" font-size="36.0" fill="#000000" transform="matrix(1.00, 0.00, -0.00, -1.00, 225.4, 483.0)">e</text><text xml:space="preserve" font-family="Helvetica-Light" font-size="36.0" fill="#000000" transform="matrix(1.00, 0.00, -0.00, -1.00, 245.4, 483.0)">s</text><text xml:space="preserve" font-family="Helvetica-Light" font-size="36.0" fill="#000000" transform="matrix(1.00, 0.00, -0.00, -1.00, 263.4, 483.0)">t</text><text xml:space="preserve" font-family="Helvetica-Light" font-size="36.0" fill="#000000" transform="matrix(1.00, 0.00, -0.00, -1.00, 273.4, 483.0)"> </text><text xml:space="preserve" font-family="Helvetica-Light" font-size="36.0" fill="#595E66" transform="matrix(1.00, 0.00, -0.00, -1.00, 283.4, 483.0)">d</text><text xml:space="preserve" font-family="Helvetica-Light" font-size="36.0" fill="#595E66" transform="matrix(1.00, 0.00, -0.00, -1.00, 305.4, 483.0)">a</text><text xml:space="preserve" font-family="Helvetica-Light" font-size="36.0" fill="#595E66" transform="matrix(1.00, 0.00, -0.00, -1.00, 325.4, 483.0)">t</text><text xml:space="preserve" font-family="Helvetica-Light" font-size="36.0" fill="#595E66" transform="matrix(1.00, 0.00, -0.00, -1.00, 335.4, 483.0)">a</text><text xml:space="preserve" font-family="Helvetica-Light" font-size="36.0" fill="#000000" transform="matrix(1.00, 0.00, -0.00, -1.00, 732.0, 483.0)">p</text><text xml:space="preserve" font-family="Helvetica-Light" font-size="36.0" fill="#000000" transform="matrix(1.00, 0.00, -0.00, -1.00, 754.0, 483.0)">a</text><text xml:space="preserve" font-family="Helvetica-Light" font-size="36.0" fill="#000000" transform="matrix(1.00, 0.00, -0.00, -1.00, 774.0, 483.0)">r</text><text xml:space="preserve" font-family="Helvetica-Light" font-size="36.0" fill="#000000" transform="matrix(1.00, 0.00, -0.00, -1.00, 786.0, 483.0)">s</text><text xml:space="preserve" font-family="Helvetica-Light" font-size="36.0" fill="#000000" transform="matrix(1.00, 0.00, -0.00, -1.00, 804.0, 483.0)">e</text><text xml:space="preserve" font-family="Helvetica-Light" font-size="36.0" fill="#000000" transform="matrix(1.00, 0.00, -0.00, -1.00, 824.0, 483.0)"> </text><text xml:space="preserve" font-family="Helvetica-Light" font-size="36.0" fill="#595E66" transform="matrix(1.00, 0.00, -0.00, -1.00, 834.0, 483.0)">d</text><text xml:space="preserve" font-family="Helvetica-Light" font-size="36.0" fill="#595E66" transform="matrix(1.00, 0.00, -0.00, -1.00, 856.0, 483.0)">a</text><text xml:space="preserve" font-family="Helvetica-Light" font-size="36.0" fill="#595E66" transform="matrix(1.00, 0.00, -0.00, -1.00, 876.0, 483.0)">t</text><text xml:space="preserve" font-family="Helvetica-Light" font-size="36.0" fill="#595E66" transform="matrix(1.00, 0.00, -0.00, -1.00, 886.0, 483.0)">a</text><text xml:space="preserve" font-family="Helvetica-Light" font-size="36.0" fill="#000000" transform="matrix(1.00, 0.00, -0.00, -1.00, 483.0, 620.0)">i</text><text xml:space="preserve" font-family="Helvetica-Light" font-size="36.0" fill="#000000" transform="matrix(1.00, 0.00, -0.00, -1.00, 491.0, 620.0)">n</text><text xml:space="preserve" font-family="Helvetica-Light" font-size="36.0" fill="#000000" transform="matrix(1.00, 0.00, -0.00, -1.00, 511.0, 620.0)">i</text><text xml:space="preserve" font-family="Helvetica-Light" font-size="36.0" fill="#000000" transform="matrix(1.00, 0.00, -0.00, -1.00, 519.0, 620.0)">t</text><text xml:space="preserve" font-family="Helvetica-Light" font-size="36.0" fill="#000000" transform="matrix(1.00, 0.00, -0.00, -1.00, 529.0, 620.0)"> </text><text xml:space="preserve" font-family="Helvetica-Light" font-size="36.0" fill="#000000" transform="matrix(1.00, 0.00, -0.00, -1.00, 539.0, 620.0)">a</text><text xml:space="preserve" font-family="Helvetica-Light" font-size="36.0" fill="#000000" transform="matrix(1.00, 0.00, -0.00, -1.00, 559.0, 620.0)">p</text><text xml:space="preserve" font-family="Helvetica-Light" font-size="36.0" fill="#000000" transform="matrix(1.00, 0.00, -0.00, -1.00, 581.0, 620.0)">p</text><path d="M 0.0 0.0 L 126.6 0.0 L 127.6 0.0 " fill="none" stroke="#52575F" stroke-width="2.00" transform="matrix(0.78, -0.62, -0.62, -0.78, 609.6, 610.7)"></path><path d="M 705.6 528.0 L 716.1 525.7 L 711.6 535.5 Z M 705.6 528.0 " fill="#52575F"></path><path d="M 0.0 0.0 L 119.1 0.0 L 120.1 0.0 " fill="none" stroke="#52575F" stroke-width="2.00" transform="matrix(-0.71, -0.71, -0.71, 0.71, 460.9, 604.9)"></path><path d="M 373.3 524.1 L 369.9 513.9 L 380.1 517.3 Z M 373.3 524.1 " fill="#52575F"></path><text xml:space="preserve" font-family="Helvetica-Light" font-size="36.0" fill="#52575F" transform="matrix(1.00, 0.00, -0.00, -1.00, 41.0, 696.0)">S</text><text xml:space="preserve" font-family="Helvetica-Light" font-size="36.0" fill="#52575F" transform="matrix(1.00, 0.00, -0.00, -1.00, 63.0, 696.0)">e</text><text xml:space="preserve" font-family="Helvetica-Light" font-size="36.0" fill="#52575F" transform="matrix(1.00, 0.00, -0.00, -1.00, 83.0, 696.0)">r</text><text xml:space="preserve" font-family="Helvetica-Light" font-size="36.0" fill="#52575F" transform="matrix(1.00, 0.00, -0.00, -1.00, 95.0, 696.0)">v</text><text xml:space="preserve" font-family="Helvetica-Light" font-size="36.0" fill="#52575F" transform="matrix(1.00, 0.00, -0.00, -1.00, 113.0, 696.0)">e</text><text xml:space="preserve" font-family="Helvetica-Light" font-size="36.0" fill="#52575F" transform="matrix(1.00, 0.00, -0.00, -1.00, 133.0, 696.0)">r</text></g></svg>