<?xml version="1.0" encoding="UTF-8" standalone="no"?><svg xmlns="http://www.w3.org/2000/svg" xmlns:xlink="http://www.w3.org/1999/xlink" clip-rule="evenodd" stroke-miterlimit="4.00" viewBox="0 0 1024 768"><desc>SVG generated by Keynote</desc><defs></defs><g transform="matrix(1.00, 0.00, -0.00, -1.00, 0.0, 768.0)"><path d="M 0.0 768.0 L 1024.0 768.0 L 1024.0 0.0 L 0.0 0.0 Z M 0.0 768.0 " fill="#FEFFFF"></path><text xml:space="preserve" font-family="Helvetica-Light" font-size="80.0" fill="#000000" transform="matrix(1.00, 0.00, -0.00, -1.00, 117.0, 541.0)">С</text><text xml:space="preserve" font-family="Helvetica-Light" font-size="80.0" fill="#000000" transform="matrix(1.00, 0.00, -0.00, -1.00, 173.3, 541.0)">п</text><text xml:space="preserve" font-family="Helvetica-Light" font-size="80.0" fill="#000000" transform="matrix(1.00, 0.00, -0.00, -1.00, 215.7, 541.0)">а</text><text xml:space="preserve" font-family="Helvetica-Light" font-size="80.0" fill="#000000" transform="matrix(1.00, 0.00, -0.00, -1.00, 257.2, 541.0)">с</text><text xml:space="preserve" font-family="Helvetica-Light" font-size="80.0" fill="#000000" transform="matrix(1.00, 0.00, -0.00, -1.00, 298.8, 541.0)">и</text><text xml:space="preserve" font-family="Helvetica-Light" font-size="80.0" fill="#000000" transform="matrix(1.00, 0.00, -0.00, -1.00, 342.3, 541.0)">б</text><text xml:space="preserve" font-family="Helvetica-Light" font-size="80.0" fill="#000000" transform="matrix(1.00, 0.00, -0.00, -1.00, 386.8, 541.0)">о</text><text xml:space="preserve" font-family="Helvetica-Light" font-size="80.0" fill="#000000" transform="matrix(1.00, 0.00, -0.00, -1.00, 431.2, 541.0)"> </text><text xml:space="preserve" font-family="Helvetica-Light" font-size="80.0" fill="#000000" transform="matrix(1.00, 0.00, -0.00, -1.00, 453.5, 541.0)">з</text><text xml:space="preserve" font-family="Helvetica-Light" font-size="80.0" fill="#000000" transform="matrix(1.00, 0.00, -0.00, -1.00, 492.3, 541.0)">а</text><text xml:space="preserve" font-family="Helvetica-Light" font-size="80.0" fill="#000000" transform="matrix(1.00, 0.00, -0.00, -1.00, 533.8, 541.0)"> </text><text xml:space="preserve" font-family="Helvetica-Light" font-size="80.0" fill="#000000" transform="matrix(1.00, 0.00, -0.00, -1.00, 556.0, 541.0)">в</text><text xml:space="preserve" font-family="Helvetica-Light" font-size="80.0" fill="#000000" transform="matrix(1.00, 0.00, -0.00, -1.00, 597.4, 541.0)">н</text><text xml:space="preserve" font-family="Helvetica-Light" font-size="80.0" fill="#000000" transform="matrix(1.00, 0.00, -0.00, -1.00, 640.4, 541.0)">и</text><text xml:space="preserve" font-family="Helvetica-Light" font-size="80.0" fill="#000000" transform="matrix(1.00, 0.00, -0.00, -1.00, 683.9, 541.0)">м</text><text xml:space="preserve" font-family="Helvetica-Light" font-size="80.0" fill="#000000" transform="matrix(1.00, 0.00, -0.00, -1.00, 737.3, 541.0)">а</text><text xml:space="preserve" font-family="Helvetica-Light" font-size="80.0" fill="#000000" transform="matrix(1.00, 0.00, -0.00, -1.00, 778.8, 541.0)">н</text><text xml:space="preserve" font-family="Helvetica-Light" font-size="80.0" fill="#000000" transform="matrix(1.00, 0.00, -0.00, -1.00, 821.8, 541.0)">и</text><text xml:space="preserve" font-family="Helvetica-Light" font-size="80.0" fill="#000000" transform="matrix(1.00, 0.00, -0.00, -1.00, 865.3, 541.0)">е</text><text xml:space="preserve" font-family="Helvetica-Light" font-size="18.0" fill="#000000" transform="matrix(1.00, 0.00, -0.00, -1.00, 501.0, 18.0)">1</text><text xml:space="preserve" font-family="Helvetica-Light" font-size="18.0" fill="#000000" transform="matrix(1.00, 0.00, -0.00, -1.00, 511.0, 18.0)">8</text><text xml:space="preserve" font-family="Helvetica-Light" font-size="23.0" fill="#000000" transform="matrix(1.00, 0.00, -0.00, -1.00, 438.0, 114.0)">К</text><text xml:space="preserve" font-family="Helvetica-Light" font-size="23.0" fill="#000000" transform="matrix(1.00, 0.00, -0.00, -1.00, 452.9, 114.0)">о</text><text xml:space="preserve" font-family="Helvetica-Light" font-size="23.0" fill="#000000" transform="matrix(1.00, 0.00, -0.00, -1.00, 465.7, 114.0)">п</text><text xml:space="preserve" font-family="Helvetica-Light" font-size="23.0" fill="#000000" transform="matrix(1.00, 0.00, -0.00, -1.00, 477.9, 114.0)">ы</text><text xml:space="preserve" font-family="Helvetica-Light" font-size="23.0" fill="#000000" transform="matrix(1.00, 0.00, -0.00, -1.00, 493.3, 114.0)">л</text><text xml:space="preserve" font-family="Helvetica-Light" font-size="23.0" fill="#000000" transform="matrix(1.00, 0.00, -0.00, -1.00, 506.3, 114.0)">о</text><text xml:space="preserve" font-family="Helvetica-Light" font-size="23.0" fill="#000000" transform="matrix(1.00, 0.00, -0.00, -1.00, 519.1, 114.0)">в</text><text xml:space="preserve" font-family="Helvetica-Light" font-size="23.0" fill="#000000" transform="matrix(1.00, 0.00, -0.00, -1.00, 531.0, 114.0)"> </text><text xml:space="preserve" font-family="Helvetica-Light" font-size="23.0" fill="#000000" transform="matrix(1.00, 0.00, -0.00, -1.00, 537.4, 114.0)">Е</text><text xml:space="preserve" font-family="Helvetica-Light" font-size="23.0" fill="#000000" transform="matrix(1.00, 0.00, -0.00, -1.00, 551.0, 114.0)">г</text><text xml:space="preserve" font-family="Helvetica-Light" font-size="23.0" fill="#000000" transform="matrix(1.00, 0.00, -0.00, -1.00, 560.2, 114.0)">о</text><text xml:space="preserve" font-family="Helvetica-Light" font-size="23.0" fill="#000000" transform="matrix(1.00, 0.00, -0.00, -1.00, 573.0, 114.0)">р</text><text xml:space="preserve" font-family="Helvetica-Light" font-size="23.0" fill="#000000" transform="matrix(1.00, 0.00, -0.00, -1.00, 586.2, 114.0)"> </text><text xml:space="preserve" font-family="Helvetica-Light" font-size="23.0" fill="#000000" transform="matrix(1.00, 0.00, -0.00, -1.00, 418.0, 86.0)">k</text><text xml:space="preserve" font-family="Helvetica-Light" font-size="23.0" fill="#000000" transform="matrix(1.00, 0.00, -0.00, -1.00, 429.5, 86.0)">o</text><text xml:space="preserve" font-family="Helvetica-Light" font-size="23.0" fill="#000000" transform="matrix(1.00, 0.00, -0.00, -1.00, 442.3, 86.0)">e</text><text xml:space="preserve" font-family="Helvetica-Light" font-size="23.0" fill="#000000" transform="matrix(1.00, 0.00, -0.00, -1.00, 455.1, 86.0)">g</text><text xml:space="preserve" font-family="Helvetica-Light" font-size="23.0" fill="#000000" transform="matrix(1.00, 0.00, -0.00, -1.00, 469.1, 86.0)">i</text><text xml:space="preserve" font-family="Helvetica-Light" font-size="23.0" fill="#000000" transform="matrix(1.00, 0.00, -0.00, -1.00, 474.2, 86.0)">t</text><text xml:space="preserve" font-family="Helvetica-Light" font-size="23.0" fill="#000000" transform="matrix(1.00, 0.00, -0.00, -1.00, 480.6, 86.0)">@</text><text xml:space="preserve" font-family="Helvetica-Light" font-size="23.0" fill="#000000" transform="matrix(1.00, 0.00, -0.00, -1.00, 499.0, 86.0)">g</text><text xml:space="preserve" font-family="Helvetica-Light" font-size="23.0" fill="#000000" transform="matrix(1.00, 0.00, -0.00, -1.00, 513.1, 86.0)">m</text><text xml:space="preserve" font-family="Helvetica-Light" font-size="23.0" fill="#000000" transform="matrix(1.00, 0.00, -0.00, -1.00, 532.2, 86.0)">a</text><text xml:space="preserve" font-family="Helvetica-Light" font-size="23.0" fill="#000000" transform="matrix(1.00, 0.00, -0.00, -1.00, 545.0, 86.0)">i</text><text xml:space="preserve" font-family="Helvetica-Light" font-size="23.0" fill="#000000" transform="matrix(1.00, 0.00, -0.00, -1.00, 550.1, 86.0)">l</text><text xml:space="preserve" font-family="Helvetica-Light" font-size="23.0" fill="#000000" transform="matrix(1.00, 0.00, -0.00, -1.00, 555.2, 86.0)">.</text><text xml:space="preserve" font-family="Helvetica-Light" font-size="23.0" fill="#000000" transform="matrix(1.00, 0.00, -0.00, -1.00, 561.6, 86.0)">c</text><text xml:space="preserve" font-family="Helvetica-Light" font-size="23.0" fill="#000000" transform="matrix(1.00, 0.00, -0.00, -1.00, 574.4, 86.0)">o</text><text xml:space="preserve" font-family="Helvetica-Light" font-size="23.0" fill="#000000" transform="matrix(1.00, 0.00, -0.00, -1.00, 587.2, 86.0)">m</text><g><clipPath id="clip-169"><path d="M 416.8 83.0 L 606.2 83.0 L 606.2 86.1 L 416.8 86.1 Z M 416.8 83.0 "></path></clipPath><g clip-path="url(#clip-169)"><path d="M 4.5 56.4 L 192.9 56.4 " fill="none" stroke="#000000" stroke-width="1.15" stroke-miterlimit="0.00" transform="matrix(1.00, 0.00, 0.00, -1.00, 413.3, 141.0)"></path></g></g><text xml:space="preserve" font-family="Helvetica" font-size="16.0" fill="#A2AAAD" transform="matrix(1.00, 0.00, -0.00, -1.00, 452.0, 52.0)">h</text><text xml:space="preserve" font-family="Helvetica" font-size="16.0" fill="#A2AAAD" transform="matrix(1.00, 0.00, -0.00, -1.00, 460.9, 52.0)">t</text><text xml:space="preserve" font-family="Helvetica" font-size="16.0" fill="#A2AAAD" transform="matrix(1.00, 0.00, -0.00, -1.00, 465.3, 52.0)">t</text><text xml:space="preserve" font-family="Helvetica" font-size="16.0" fill="#A2AAAD" transform="matrix(1.00, 0.00, -0.00, -1.00, 469.8, 52.0)">p</text><text xml:space="preserve" font-family="Helvetica" font-size="16.0" fill="#A2AAAD" transform="matrix(1.00, 0.00, -0.00, -1.00, 478.7, 52.0)">:</text><text xml:space="preserve" font-family="Helvetica" font-size="16.0" fill="#A2AAAD" transform="matrix(1.00, 0.00, -0.00, -1.00, 483.1, 52.0)">/</text><text xml:space="preserve" font-family="Helvetica" font-size="16.0" fill="#A2AAAD" transform="matrix(1.00, 0.00, -0.00, -1.00, 487.6, 52.0)">/</text><text xml:space="preserve" font-family="Helvetica" font-size="16.0" fill="#A2AAAD" transform="matrix(1.00, 0.00, -0.00, -1.00, 492.0, 52.0)">b</text><text xml:space="preserve" font-family="Helvetica" font-size="16.0" fill="#A2AAAD" transform="matrix(1.00, 0.00, -0.00, -1.00, 500.9, 52.0)">i</text><text xml:space="preserve" font-family="Helvetica" font-size="16.0" fill="#A2AAAD" transform="matrix(1.00, 0.00, -0.00, -1.00, 504.5, 52.0)">t</text><text xml:space="preserve" font-family="Helvetica" font-size="16.0" fill="#A2AAAD" transform="matrix(1.00, 0.00, -0.00, -1.00, 508.9, 52.0)">.</text><text xml:space="preserve" font-family="Helvetica" font-size="16.0" fill="#A2AAAD" transform="matrix(1.00, 0.00, -0.00, -1.00, 513.4, 52.0)">l</text><text xml:space="preserve" font-family="Helvetica" font-size="16.0" fill="#A2AAAD" transform="matrix(1.00, 0.00, -0.00, -1.00, 516.9, 52.0)">y</text><text xml:space="preserve" font-family="Helvetica" font-size="16.0" fill="#A2AAAD" transform="matrix(1.00, 0.00, -0.00, -1.00, 524.9, 52.0)">/</text><text xml:space="preserve" font-family="Helvetica" font-size="16.0" fill="#A2AAAD" transform="matrix(1.00, 0.00, -0.00, -1.00, 529.4, 52.0)">b</text><text xml:space="preserve" font-family="Helvetica" font-size="16.0" fill="#A2AAAD" transform="matrix(1.00, 0.00, -0.00, -1.00, 538.3, 52.0)">f</text><text xml:space="preserve" font-family="Helvetica" font-size="16.0" fill="#A2AAAD" transform="matrix(1.00, 0.00, -0.00, -1.00, 542.7, 52.0)">s</text><text xml:space="preserve" font-family="Helvetica" font-size="16.0" fill="#A2AAAD" transform="matrix(1.00, 0.00, -0.00, -1.00, 550.7, 52.0)">-</text><text xml:space="preserve" font-family="Helvetica" font-size="16.0" fill="#A2AAAD" transform="matrix(1.00, 0.00, -0.00, -1.00, 556.0, 52.0)">r</text><text xml:space="preserve" font-family="Helvetica" font-size="16.0" fill="#A2AAAD" transform="matrix(1.00, 0.00, -0.00, -1.00, 561.4, 52.0)">u</text><g><clipPath id="clip-170"><path d="M 451.4 49.8 L 570.6 49.8 L 570.6 52.6 L 451.4 52.6 Z M 451.4 49.8 "></path></clipPath><g clip-path="url(#clip-170)"><path d="M 4.0 20.5 L 122.3 20.5 " fill="none" stroke="#A2AAAD" stroke-width="0.79" stroke-miterlimit="0.00" transform="matrix(1.00, 0.00, 0.00, -1.00, 448.4, 71.8)"></path></g></g></g></svg>