<?xml version="1.0" encoding="UTF-8" standalone="no"?><svg xmlns="http://www.w3.org/2000/svg" xmlns:xlink="http://www.w3.org/1999/xlink" clip-rule="evenodd" stroke-miterlimit="4.00" viewBox="0 0 499 398"><desc>SVG generated by Keynote</desc><defs></defs><g transform="matrix(1.00, 0.00, -0.00, -1.00, 0.0, 398.0)"><g><clipPath id="clip-33"><path d="M 275.2 211.5 L 498.6 211.5 L 498.6 397.7 L 275.2 397.7 Z M 275.2 211.5 "></path></clipPath><g clip-path="url(#clip-33)"><image xlink:href="D2F573DA37CB66D6362D1A575920D69D.png" width="224.00" height="186.00" transform="matrix(1.00, 0.00, -0.00, -1.01, 275.0, 398.0)"></image></g></g><g><clipPath id="clip-34"><path d="M 0.2 10.6 L 331.1 164.3 L 336.0 153.8 L 5.1 0.1 Z M 0.2 10.6 "></path></clipPath><g clip-path="url(#clip-34)"><path d="M 0.0 0.0 L 353.2 0.0 L 354.2 0.0 " fill="none" stroke="#000000" stroke-width="2.00" transform="matrix(0.91, 0.42, 0.42, -0.91, 3.6, 5.8)"></path><path d="M 325.9 150.2 L 332.6 158.6 L 321.9 158.9 Z M 325.9 150.2 " fill="#000000"></path></g></g><g><clipPath id="clip-35"><path d="M 331.2 159.0 L 447.4 159.0 L 447.4 198.0 L 331.2 198.0 Z M 331.2 159.0 "></path></clipPath><g clip-path="url(#clip-35)"><text xml:space="preserve" font-family="Helvetica-Light" font-size="36.0" fill="#000000" transform="matrix(1.00, 0.00, -0.00, -1.00, 353.0, 163.0)">v</text><text xml:space="preserve" font-family="Helvetica-Light" font-size="36.0" fill="#000000" transform="matrix(1.00, 0.00, -0.00, -1.00, 371.0, 163.0)">i</text><text xml:space="preserve" font-family="Helvetica-Light" font-size="36.0" fill="#000000" transform="matrix(1.00, 0.00, -0.00, -1.00, 379.0, 163.0)">e</text><text xml:space="preserve" font-family="Helvetica-Light" font-size="36.0" fill="#000000" transform="matrix(1.00, 0.00, -0.00, -1.00, 399.0, 163.0)">w</text></g></g></g></svg>