<?xml version="1.0" encoding="UTF-8" standalone="no"?><svg xmlns="http://www.w3.org/2000/svg" xmlns:xlink="http://www.w3.org/1999/xlink" clip-rule="evenodd" stroke-miterlimit="4.00" viewBox="0 0 155 106"><desc>SVG generated by Keynote</desc><defs></defs><g transform="matrix(1.00, 0.00, -0.00, -1.00, 0.0, 106.0)"><path d="M 153.7 26.4 C 153.7 26.1 153.6 25.7 153.6 25.0 C 153.6 25.3 153.6 25.5 153.6 25.5 C 153.6 26.1 153.6 26.8 153.6 27.9 C 153.6 27.8 153.6 27.3 153.6 26.9 C 153.6 26.4 153.6 26.5 153.7 26.4 C 153.7 26.4 153.7 26.4 153.7 26.4 Z M 46.0 2.3 C 47.0 2.3 45.9 2.2 45.5 2.2 C 45.5 2.2 45.4 2.2 45.1 2.2 C 45.0 2.1 45.8 2.1 46.4 2.1 C 49.0 2.1 47.1 2.3 46.0 2.3 C 46.0 2.3 46.0 2.3 46.0 2.3 Z M 1.3 81.3 C 1.3 83.3 1.4 81.2 1.4 80.9 C 1.5 81.8 1.6 81.1 1.6 82.3 C 1.6 82.5 1.5 82.9 1.5 83.2 C 1.5 82.6 1.5 81.9 1.5 81.8 C 1.5 82.5 1.5 83.5 1.4 83.6 C 1.4 82.0 1.4 83.3 1.3 83.6 C 1.3 82.2 1.2 81.7 1.3 81.3 C 1.3 81.3 1.3 81.3 1.3 81.3 Z M 83.3 103.5 C 82.7 103.5 82.2 103.5 82.3 103.4 C 82.9 103.4 83.3 103.5 83.7 103.5 C 83.8 103.4 83.5 103.4 84.1 103.4 C 84.7 103.5 84.5 103.6 84.2 103.6 C 84.1 103.5 82.1 103.6 83.3 103.5 C 83.3 103.5 83.3 103.5 83.3 103.5 Z M 134.9 103.4 C 136.7 103.4 134.9 103.2 136.7 103.3 C 136.7 103.3 137.1 103.4 135.9 103.4 C 135.8 103.4 135.1 103.4 134.9 103.4 C 134.9 103.4 134.9 103.4 134.9 103.4 Z M 2.0 29.7 C 2.0 29.7 2.0 30.9 1.9 30.6 C 1.9 29.9 1.9 29.3 1.9 28.7 C 2.0 28.6 2.0 28.9 2.0 29.7 C 2.0 29.7 2.0 29.7 2.0 29.7 Z M 2.2 95.2 C 2.1 97.3 2.2 99.5 2.1 98.8 C 2.0 99.6 1.9 97.4 2.0 97.5 C 2.1 97.2 2.2 93.5 2.2 95.2 C 2.2 95.2 2.2 95.2 2.2 95.2 Z M 36.2 3.8 C 34.0 3.7 34.6 4.0 33.1 3.9 C 33.6 3.9 33.8 3.8 34.0 3.8 C 33.6 3.8 33.1 3.8 33.1 3.8 C 34.1 3.8 35.3 3.7 36.2 3.8 C 36.2 3.8 36.2 3.8 36.2 3.8 Z M 153.5 58.3 C 153.5 58.6 153.5 58.8 153.5 58.8 C 153.5 60.2 153.6 60.2 153.5 61.1 C 153.4 61.1 153.4 59.9 153.5 58.8 C 153.4 58.7 153.4 58.3 153.5 58.3 C 153.5 58.3 153.5 58.3 153.5 58.3 Z M 153.1 99.1 C 153.2 99.1 153.2 98.2 153.3 99.6 C 153.1 101.1 153.1 99.6 153.0 98.0 C 153.0 98.0 152.9 97.9 152.9 97.9 C 152.9 98.5 152.9 98.9 152.9 99.3 C 153.0 99.7 152.7 100.5 152.8 102.9 C 152.8 101.7 152.7 102.8 152.7 101.4 C 152.6 101.7 152.6 100.7 152.6 100.8 C 152.6 101.5 152.6 103.1 152.7 102.8 C 152.7 102.9 152.7 102.9 152.7 103.0 C 152.0 103.0 151.4 103.0 151.0 103.0 C 150.4 102.9 152.5 102.9 151.8 102.8 C 151.4 102.8 151.2 102.8 150.9 102.8 C 150.8 102.9 151.1 102.9 150.5 102.9 C 149.0 102.9 150.7 102.8 148.6 102.8 C 148.5 102.8 149.1 102.9 149.2 102.9 C 148.3 103.0 148.2 102.9 147.4 102.9 C 147.1 102.9 147.9 102.9 147.3 102.8 C 146.8 103.0 145.3 102.8 144.1 102.9 C 145.2 103.1 143.8 102.8 142.8 103.0 C 142.5 103.0 143.3 102.8 142.2 102.8 C 142.8 103.1 138.7 103.0 142.1 103.2 C 140.4 103.2 140.0 103.4 141.4 103.4 C 138.3 103.4 139.4 103.5 138.2 103.5 C 137.1 103.5 138.8 103.5 138.1 103.4 C 139.4 103.4 139.0 103.3 140.0 103.4 C 139.9 103.3 140.1 103.3 140.4 103.3 C 139.2 103.4 137.6 103.2 138.4 103.1 C 139.0 103.1 138.5 103.2 139.4 103.2 C 139.0 103.1 140.3 103.3 140.3 103.2 C 139.6 103.1 141.3 103.0 139.6 102.9 C 139.6 103.0 139.6 103.0 139.7 103.1 C 139.2 103.1 138.8 103.1 138.4 103.1 C 137.9 103.0 138.1 102.9 137.7 102.9 C 136.9 102.9 136.6 102.9 136.4 103.0 C 137.3 103.0 138.5 103.1 137.0 103.1 C 137.4 102.9 134.8 103.0 135.9 102.9 C 134.2 102.9 133.4 103.0 133.2 102.9 C 132.3 102.9 132.9 103.0 131.9 103.0 C 130.1 102.9 130.5 103.0 128.2 103.0 C 128.0 103.1 127.9 102.9 127.2 102.9 C 127.3 103.0 127.3 103.0 127.3 103.1 C 126.5 103.0 124.6 103.0 122.8 103.1 C 122.3 103.0 122.5 102.9 121.3 103.0 C 120.1 103.1 118.4 102.9 116.9 103.1 C 116.7 103.0 115.6 103.0 115.0 103.1 C 114.7 103.0 115.4 102.9 114.4 102.9 C 113.8 103.0 115.0 103.0 113.6 103.1 C 113.7 103.0 112.4 103.1 112.2 103.0 C 112.7 103.0 113.1 103.0 113.5 102.9 C 112.9 102.9 113.1 102.9 112.6 102.9 C 112.7 103.0 111.6 102.9 111.2 102.9 C 111.3 102.9 111.2 103.0 110.8 103.0 C 110.0 103.0 109.4 103.0 109.0 103.0 C 108.0 103.0 109.5 102.9 108.5 102.9 C 108.2 103.2 107.0 102.9 104.9 103.1 C 104.4 103.0 103.5 102.9 102.1 102.9 C 102.0 103.0 103.5 103.0 103.5 103.0 C 101.5 103.0 103.9 103.1 102.6 103.1 C 99.8 103.0 97.9 103.0 94.8 103.0 C 94.9 103.0 92.6 103.1 92.6 103.1 C 93.2 103.0 91.2 102.9 90.2 102.9 C 90.1 103.1 88.6 103.2 88.6 103.3 C 88.2 103.2 88.3 103.2 88.0 103.1 C 86.3 103.0 85.5 103.2 84.3 103.0 C 84.5 103.1 83.7 103.1 83.0 103.1 C 83.2 103.1 83.5 103.0 83.9 103.0 C 83.0 103.0 82.8 102.9 82.0 102.9 C 81.3 103.2 79.8 102.9 79.3 103.1 C 78.0 103.1 78.2 103.0 77.0 103.0 C 77.1 103.1 77.0 103.1 76.6 103.1 C 77.4 103.1 78.0 103.0 78.5 103.1 C 76.7 103.2 81.9 103.4 79.1 103.5 C 79.0 103.5 79.2 103.4 78.6 103.4 C 77.0 103.4 78.0 103.5 78.6 103.5 C 77.5 103.5 76.4 103.5 77.3 103.6 C 74.8 103.7 76.4 103.6 75.4 103.5 C 70.9 103.6 65.2 103.6 58.9 103.5 C 58.8 103.7 55.4 103.5 54.3 103.5 C 52.6 103.6 50.8 103.6 50.2 103.5 C 49.9 103.6 48.0 103.4 47.9 103.5 C 48.6 103.5 49.1 103.5 48.4 103.6 C 45.8 103.5 42.0 103.5 40.6 103.6 C 39.6 103.4 38.0 103.5 36.9 103.5 C 36.7 103.5 37.6 103.5 36.9 103.4 C 36.7 103.5 34.3 103.6 33.7 103.5 C 34.4 103.5 35.2 103.4 34.1 103.4 C 34.1 103.4 32.9 103.4 33.2 103.5 C 31.7 103.5 30.8 103.5 29.5 103.5 C 30.6 103.5 31.2 103.4 31.4 103.4 C 30.5 103.4 29.8 103.4 29.1 103.4 C 29.3 103.5 27.8 103.4 26.4 103.5 C 26.0 103.4 25.6 103.4 24.5 103.4 C 23.9 103.5 26.3 103.5 25.0 103.5 C 25.0 103.5 23.7 103.4 24.1 103.5 C 22.5 103.5 21.6 103.5 20.4 103.4 C 22.0 103.5 20.8 103.3 20.4 103.3 C 20.0 103.3 19.5 103.3 19.5 103.4 C 19.5 103.4 20.3 103.4 20.4 103.4 C 19.3 103.4 19.0 103.5 18.5 103.4 C 19.0 103.4 19.1 103.4 18.5 103.4 C 18.4 103.5 15.1 103.4 16.3 103.3 C 16.3 103.4 17.5 103.4 17.6 103.3 C 17.3 103.3 15.4 103.4 15.8 103.3 C 16.9 103.2 16.8 103.3 18.1 103.3 C 18.2 103.2 19.0 103.2 19.5 103.2 C 17.4 103.2 17.0 103.3 16.7 103.2 C 15.8 103.2 16.3 103.3 14.9 103.3 C 12.8 103.2 14.5 103.1 14.0 103.1 C 12.1 103.2 12.7 103.3 13.5 103.4 C 12.0 103.4 11.6 103.4 9.8 103.4 C 9.9 103.4 10.1 103.3 10.8 103.3 C 10.8 103.3 12.3 103.4 12.1 103.3 C 12.0 103.2 10.8 103.1 8.9 103.1 C 9.4 103.2 9.4 103.2 7.5 103.2 C 7.9 103.3 6.7 103.1 6.6 103.2 C 6.7 103.3 7.4 103.3 8.0 103.3 C 8.0 103.3 7.7 103.4 7.1 103.4 C 6.7 103.3 6.4 103.4 5.3 103.4 C 5.2 103.3 6.0 103.3 6.2 103.2 C 5.5 103.2 5.4 103.3 4.8 103.3 C 4.2 103.2 4.3 103.1 4.3 102.9 C 5.0 102.9 6.2 102.9 5.3 102.8 C 7.9 102.8 5.1 103.0 6.2 103.0 C 7.3 102.9 6.6 103.0 8.4 103.0 C 9.0 103.0 9.1 103.0 9.4 103.0 C 9.2 102.9 8.2 102.8 9.4 102.8 C 9.6 102.9 10.3 102.9 11.2 103.0 C 11.2 102.9 9.3 102.9 11.2 102.9 C 12.1 102.9 11.3 103.0 12.6 103.0 C 12.6 103.0 12.9 103.0 13.0 102.9 C 11.1 102.9 13.4 102.9 12.1 102.8 C 13.7 102.8 12.4 102.9 13.5 102.9 C 13.5 102.8 15.2 103.0 15.3 102.8 C 14.6 102.9 13.3 102.9 13.4 102.8 C 14.7 102.8 20.2 102.7 18.0 102.9 C 18.8 102.8 22.9 102.7 22.6 102.7 C 21.4 102.7 21.4 102.8 21.2 102.9 C 23.5 102.8 24.7 102.8 27.1 102.7 C 24.4 102.7 26.4 102.6 24.8 102.5 C 24.1 102.5 23.2 102.5 23.0 102.5 C 23.3 102.6 24.4 102.6 24.8 102.5 C 24.9 102.6 24.9 102.7 24.9 102.7 C 21.9 102.7 20.3 102.8 18.9 102.7 C 20.1 102.7 16.6 102.6 18.0 102.6 C 18.6 102.6 20.0 102.6 21.2 102.7 C 21.2 102.6 21.2 102.6 21.2 102.6 C 21.7 102.6 22.5 102.6 22.5 102.5 C 20.9 102.6 20.0 102.5 18.9 102.5 C 18.9 102.5 18.9 102.5 18.9 102.5 C 18.6 102.5 18.4 102.5 18.4 102.5 C 19.0 102.4 19.7 102.5 19.8 102.4 C 18.6 102.4 18.4 102.3 17.1 102.3 C 17.4 102.2 15.6 102.1 17.5 102.0 C 17.8 102.1 18.9 102.2 18.9 102.2 C 19.4 102.2 20.6 102.2 21.2 102.2 C 20.6 102.1 19.4 102.1 19.3 102.0 C 20.3 102.0 21.0 101.9 21.6 102.0 C 19.6 102.1 22.7 102.1 23.4 102.2 C 23.2 102.2 22.8 102.1 22.5 102.1 C 24.0 102.1 24.7 102.2 24.8 102.0 C 26.6 102.0 26.2 102.1 27.5 102.1 C 26.6 102.0 28.3 102.0 27.5 101.9 C 29.6 101.9 28.1 102.0 28.8 102.0 C 29.5 102.0 29.6 102.0 30.2 102.0 C 31.2 102.0 33.1 102.0 33.4 102.2 C 34.3 102.1 34.4 102.2 35.3 102.2 C 35.5 102.1 35.7 102.1 36.1 102.1 C 36.3 102.1 36.9 102.2 37.1 102.1 C 34.7 102.0 35.3 102.0 32.9 101.9 C 32.7 101.9 32.4 101.9 32.9 102.0 C 31.2 102.0 30.7 101.9 29.3 101.9 C 29.1 101.9 28.7 101.7 27.4 101.8 C 27.7 101.7 27.4 101.7 27.9 101.7 C 28.6 101.7 29.6 101.8 30.6 101.8 C 30.7 101.8 30.5 101.7 31.0 101.7 C 31.5 101.7 32.3 101.8 32.9 101.7 C 32.9 101.8 32.7 101.8 32.4 101.8 C 34.7 101.8 33.9 101.7 35.6 101.8 C 35.3 101.7 34.2 101.7 35.1 101.7 C 36.7 101.6 37.0 101.7 37.9 101.7 C 38.0 101.7 37.9 101.7 38.3 101.7 C 39.4 101.7 35.9 101.9 37.9 102.0 C 38.0 101.9 39.9 101.9 40.2 102.0 C 39.6 102.0 38.5 101.9 38.4 102.0 C 41.9 102.0 38.5 102.1 42.1 102.2 C 42.1 102.1 42.1 102.1 42.0 102.1 C 40.6 102.1 40.6 102.0 40.6 101.9 C 39.4 101.9 38.9 101.8 37.9 101.9 C 38.2 101.7 38.9 101.8 40.2 101.9 C 40.1 101.8 39.0 101.8 38.8 101.7 C 41.7 101.7 42.3 101.6 45.1 101.8 C 44.4 101.7 46.6 101.7 46.4 101.7 C 44.0 101.7 45.0 101.4 44.6 101.4 C 43.0 101.4 43.7 101.6 42.8 101.6 C 42.4 101.5 42.6 101.5 42.7 101.4 C 44.2 101.4 43.9 101.4 45.0 101.3 C 46.0 101.4 46.8 101.6 45.6 101.6 C 45.8 101.6 47.7 101.6 47.8 101.6 C 46.0 101.6 48.0 101.7 47.0 101.7 C 48.3 101.8 50.7 101.7 52.4 101.8 C 52.2 101.7 52.9 101.7 52.8 101.6 C 51.2 101.7 50.8 101.5 49.1 101.5 C 49.8 101.5 49.4 101.5 49.1 101.4 C 50.7 101.5 51.6 101.4 52.7 101.5 C 52.7 101.5 52.7 101.4 52.7 101.4 C 54.7 101.5 54.4 101.4 55.9 101.4 C 56.5 101.4 55.7 101.6 55.5 101.7 C 56.2 101.6 58.9 101.7 57.3 101.6 C 58.9 101.5 58.5 101.7 60.1 101.7 C 60.1 101.6 58.6 101.6 59.1 101.5 C 60.5 101.4 59.7 101.6 60.9 101.5 C 61.0 101.6 61.1 101.6 62.3 101.6 C 61.4 101.6 62.4 101.6 62.7 101.6 C 62.2 101.5 61.7 101.5 61.4 101.5 C 63.6 101.5 64.1 101.5 65.9 101.5 C 65.2 101.6 66.3 101.6 65.0 101.7 C 66.2 101.6 67.6 101.7 68.2 101.7 C 67.5 101.6 66.4 101.6 65.9 101.6 C 69.5 101.6 71.3 101.4 74.5 101.6 C 74.0 101.6 73.2 101.6 73.1 101.6 C 73.5 101.6 74.1 101.6 74.1 101.6 C 73.0 101.6 71.9 101.6 71.4 101.7 C 70.4 101.6 71.9 101.6 70.9 101.6 C 70.7 101.6 68.8 101.6 69.6 101.7 C 71.2 101.6 72.9 101.7 73.7 101.8 C 75.3 101.7 73.8 101.7 75.4 101.5 C 75.4 101.6 75.8 101.6 76.3 101.6 C 75.7 101.5 77.9 101.5 78.1 101.5 C 77.3 101.6 74.4 101.7 76.0 101.8 C 75.1 101.6 79.5 101.8 78.6 101.7 C 80.5 101.7 79.9 101.8 80.9 101.7 C 81.0 101.7 80.9 101.8 81.4 101.8 C 81.9 101.8 82.1 101.7 82.3 101.7 C 79.6 101.6 80.3 101.5 78.5 101.5 C 78.8 101.5 79.1 101.5 79.0 101.5 C 79.0 101.5 79.0 101.5 79.4 101.5 C 79.6 101.6 80.8 101.4 81.3 101.5 C 80.7 101.5 80.2 101.5 80.4 101.6 C 82.6 101.6 82.3 101.7 85.4 101.7 C 84.5 101.7 85.7 101.7 86.8 101.6 C 88.3 101.7 87.8 101.8 89.6 101.8 C 89.3 101.6 91.5 101.8 93.6 101.7 C 93.4 101.8 96.3 101.8 96.8 101.7 C 96.9 101.8 97.9 101.8 98.6 101.8 C 98.8 101.8 98.0 101.8 98.7 101.8 C 99.3 101.8 98.7 101.7 99.5 101.7 C 100.5 101.8 100.4 101.9 101.8 101.8 C 101.8 101.8 101.0 101.8 101.7 101.7 C 103.0 101.8 104.2 101.8 103.1 101.7 C 105.0 101.7 104.1 101.8 105.9 101.8 C 105.4 101.8 105.4 101.7 106.3 101.7 C 107.0 101.8 107.1 101.8 107.3 101.9 C 107.8 101.8 107.6 101.8 109.1 101.8 C 109.1 101.8 109.0 101.7 109.0 101.7 C 109.7 101.7 110.6 101.7 110.8 101.7 C 109.6 101.7 110.0 101.8 109.5 101.8 C 110.8 101.8 113.2 101.9 111.4 101.8 C 113.0 101.8 112.3 101.9 113.7 101.9 C 112.7 101.8 113.6 101.9 115.0 101.8 C 114.8 101.7 115.9 101.8 116.8 101.8 C 116.6 101.8 116.8 101.7 117.6 101.7 C 117.6 101.8 118.1 101.8 119.0 101.8 C 119.0 101.7 117.0 101.7 118.9 101.7 C 119.8 101.7 119.9 101.8 121.3 101.8 C 121.7 101.9 120.1 101.9 120.5 102.0 C 121.6 101.9 122.0 102.0 123.7 102.0 C 122.9 101.8 126.9 101.7 124.8 101.7 C 125.4 101.7 126.1 101.5 126.6 101.6 C 126.0 101.7 127.2 101.7 127.2 101.8 C 128.0 101.7 129.9 101.8 129.8 101.7 C 128.1 101.8 128.1 101.7 127.5 101.6 C 130.0 101.6 132.2 101.6 132.1 101.7 C 132.1 101.7 132.4 101.7 132.5 101.6 C 131.6 101.7 130.9 101.5 131.9 101.5 C 131.8 101.6 132.6 101.6 133.4 101.6 C 133.4 101.5 136.8 101.7 136.0 101.5 C 134.8 101.6 133.6 101.5 134.6 101.4 C 135.5 101.5 137.3 101.6 137.0 101.6 C 137.5 101.6 137.9 101.6 138.3 101.5 C 138.6 101.5 137.6 101.5 137.7 101.4 C 138.4 101.4 139.4 101.4 139.6 101.4 C 137.8 101.4 140.5 101.5 138.7 101.5 C 139.9 101.5 140.2 101.6 141.1 101.6 C 141.1 101.6 141.4 101.6 141.5 101.5 C 140.7 101.6 139.9 101.6 140.0 101.5 C 141.6 101.4 141.5 101.6 142.8 101.5 C 143.2 101.5 144.9 101.4 145.9 101.4 C 144.1 101.4 146.1 101.5 145.1 101.5 C 143.4 101.5 143.0 101.6 142.5 101.6 C 143.2 101.7 144.6 101.7 144.7 101.6 C 143.8 101.6 143.9 101.7 143.4 101.7 C 143.4 101.6 143.6 101.6 144.2 101.5 C 145.0 101.6 146.6 101.5 145.6 101.7 C 146.7 101.6 148.1 101.7 149.2 101.6 C 147.9 101.6 146.9 101.6 146.4 101.5 C 147.5 101.5 148.7 101.6 148.7 101.5 C 148.5 101.4 146.7 101.5 146.3 101.4 C 147.6 101.3 150.0 101.6 148.1 101.4 C 148.9 101.4 150.0 101.4 150.4 101.4 C 149.4 101.4 150.6 101.6 151.0 101.6 C 151.1 101.6 151.2 101.6 151.3 101.6 C 151.3 100.9 151.3 100.3 151.2 100.0 C 151.3 100.7 151.2 101.2 151.2 101.5 C 151.2 101.7 151.2 101.7 151.1 101.4 C 151.1 101.4 151.1 101.3 151.1 101.3 C 151.2 101.1 151.1 100.8 151.1 100.4 C 151.2 100.3 151.1 98.9 151.2 98.6 C 151.1 98.7 151.1 99.3 151.1 99.4 C 151.1 98.6 150.9 97.2 151.1 96.7 C 151.1 97.3 151.1 98.0 151.1 98.1 C 151.2 95.9 151.3 95.2 151.4 92.5 C 151.4 92.9 151.4 93.1 151.4 93.0 C 151.5 91.3 151.5 90.2 151.6 90.5 C 151.6 89.3 151.5 88.7 151.4 88.1 C 151.4 89.2 151.5 89.7 151.4 90.3 C 151.4 89.9 151.2 91.1 151.2 91.5 C 151.3 93.5 151.1 93.5 151.2 95.5 C 151.1 94.9 151.2 96.9 151.1 96.3 C 151.2 94.6 151.1 92.7 151.1 90.1 C 151.2 90.5 151.3 90.9 151.3 89.8 C 151.4 88.2 151.2 88.9 151.3 87.5 C 151.3 87.0 151.4 87.8 151.4 87.2 C 151.3 86.7 151.4 85.4 151.4 85.0 C 151.4 86.8 151.5 84.7 151.6 85.9 C 151.6 85.3 151.6 85.0 151.6 84.6 C 151.5 86.3 151.5 82.7 151.4 84.0 C 151.3 81.5 151.6 84.0 151.6 81.9 C 151.5 82.9 151.5 81.6 151.5 80.1 C 151.6 79.7 151.6 78.2 151.7 77.0 C 151.6 77.6 151.6 78.1 151.5 76.9 C 151.5 77.5 151.5 78.6 151.5 79.2 C 151.5 79.1 151.5 79.4 151.4 79.6 C 151.4 78.1 151.4 78.7 151.4 78.2 C 151.4 77.8 151.4 76.7 151.4 76.5 C 151.4 76.4 151.4 76.0 151.4 76.0 C 151.4 77.9 151.3 75.6 151.2 76.8 C 151.2 77.6 151.3 77.1 151.3 78.2 C 151.2 79.1 151.2 77.3 151.1 76.7 C 151.0 77.6 151.2 78.7 151.1 78.9 C 151.0 77.7 151.0 75.9 151.1 74.5 C 150.9 74.5 151.1 72.0 150.9 71.8 C 151.0 71.6 151.0 71.3 151.0 70.9 C 150.9 70.5 151.1 70.0 151.1 69.6 C 151.0 69.5 151.0 69.6 150.9 70.0 C 151.0 68.2 151.0 67.7 150.9 65.6 C 151.0 65.2 151.0 64.9 151.1 64.7 C 151.1 65.2 151.1 65.7 151.2 66.1 C 151.2 63.1 150.9 65.0 151.1 62.9 C 151.0 63.0 150.9 64.4 150.9 63.3 C 151.0 61.5 150.9 58.8 151.2 58.9 C 151.3 57.3 151.1 56.1 151.2 55.4 C 151.2 54.8 151.2 54.7 151.1 54.5 C 151.1 55.0 151.0 55.6 151.0 56.2 C 151.0 57.2 151.0 57.7 151.1 56.7 C 151.1 58.2 151.0 58.6 151.0 59.3 C 150.9 57.3 151.0 55.4 150.9 55.4 C 150.9 54.7 151.0 54.1 151.1 53.6 C 151.0 53.4 151.0 51.1 151.1 50.9 C 151.0 52.5 151.1 54.1 151.2 52.7 C 151.1 48.8 151.3 46.7 151.2 43.3 C 151.3 43.2 151.3 43.5 151.3 42.9 C 151.3 42.9 151.2 42.7 151.2 42.4 C 151.2 41.4 151.3 40.7 151.2 39.3 C 151.3 39.4 151.4 39.1 151.4 38.3 C 151.3 37.9 151.1 36.6 151.2 35.7 C 151.2 36.6 151.3 35.4 151.3 34.8 C 151.2 35.4 151.4 30.7 151.3 32.1 C 151.3 30.3 151.3 29.5 151.4 29.4 C 151.3 28.8 151.3 28.3 151.3 27.7 C 151.4 27.2 151.3 24.1 151.4 23.6 C 151.3 24.7 151.5 24.8 151.5 24.0 C 151.4 23.4 151.3 20.6 151.4 20.0 C 151.4 20.2 151.5 20.3 151.5 21.7 C 151.5 19.3 151.4 19.4 151.3 18.7 C 151.4 18.7 151.3 17.7 151.3 17.4 C 151.4 16.6 151.3 17.4 151.4 17.3 C 151.4 16.4 151.5 16.1 151.5 15.0 C 151.4 15.4 151.4 14.1 151.4 13.7 C 151.4 13.5 151.3 13.0 151.3 12.0 C 151.5 13.2 151.5 6.1 151.4 7.9 C 151.3 6.6 151.5 6.4 151.5 4.7 C 151.5 4.6 151.5 4.4 151.4 4.3 C 151.4 3.9 151.4 3.6 151.4 4.3 C 151.4 4.3 151.4 4.3 151.4 4.3 C 150.0 4.4 150.9 4.2 149.2 4.3 C 149.8 4.4 147.5 4.2 147.7 4.4 C 147.1 4.2 145.5 4.4 144.2 4.3 C 144.2 4.3 143.8 4.3 143.7 4.4 C 143.4 4.4 145.4 4.4 144.1 4.4 C 142.6 4.4 143.5 4.4 143.3 4.3 C 139.1 4.3 134.1 4.3 129.8 4.3 C 130.3 4.3 130.2 4.3 129.3 4.4 C 128.1 4.2 122.9 4.3 122.1 4.3 C 121.7 4.2 119.0 4.3 118.5 4.3 C 119.0 4.3 120.1 4.2 119.0 4.2 C 118.2 4.3 117.4 4.2 116.3 4.3 C 115.8 4.2 112.5 4.3 114.1 4.1 C 113.5 4.1 113.1 4.1 112.8 4.1 C 112.7 4.2 112.0 4.2 113.1 4.2 C 110.2 4.2 109.5 4.3 107.3 4.2 C 106.8 4.2 108.6 4.3 107.2 4.3 C 107.2 4.3 107.2 4.3 107.2 4.2 C 106.8 4.2 106.6 4.3 106.4 4.2 C 106.5 4.2 107.2 4.2 107.3 4.1 C 106.2 4.1 105.5 4.0 105.1 4.1 C 106.6 4.1 105.5 4.3 104.6 4.2 C 105.4 4.1 101.0 4.2 99.6 4.2 C 98.9 4.1 101.1 4.2 101.0 4.1 C 98.3 4.2 98.6 4.1 98.2 4.2 C 96.8 4.2 96.3 4.1 94.6 4.2 C 93.7 4.2 95.2 4.1 94.2 4.1 C 93.6 4.1 93.3 4.2 92.4 4.2 C 90.0 4.0 84.3 4.3 81.6 4.0 C 82.7 4.1 81.2 4.2 79.8 4.1 C 79.7 4.1 79.8 4.1 79.3 4.1 C 79.4 4.1 78.9 4.2 78.0 4.1 C 77.9 4.1 78.0 4.1 77.5 4.1 C 77.1 4.2 75.9 4.1 75.2 4.1 C 74.9 4.0 76.9 4.1 77.0 4.0 C 74.7 3.9 74.3 4.0 72.5 4.0 C 73.5 4.0 71.9 3.9 71.6 3.9 C 72.0 4.0 70.6 4.0 71.6 4.1 C 70.9 4.1 69.9 4.1 69.8 4.1 C 70.2 4.1 70.7 4.1 70.7 4.0 C 69.9 4.0 68.8 3.9 68.4 4.0 C 69.0 4.0 69.4 4.1 69.4 4.1 C 69.1 4.2 68.9 4.2 68.5 4.2 C 69.7 4.0 66.0 4.1 65.8 4.1 C 65.4 4.0 65.2 4.0 65.3 3.9 C 63.7 3.9 63.9 4.0 63.0 4.1 C 63.3 4.0 63.5 3.9 62.1 3.8 C 62.4 3.9 60.6 3.9 61.2 4.1 C 57.5 4.1 56.6 4.0 54.4 4.0 C 54.4 4.0 55.1 4.0 54.4 4.0 C 53.3 4.0 52.4 4.0 51.7 3.9 C 51.1 4.0 51.9 4.0 51.3 4.0 C 49.6 3.9 49.9 3.8 48.4 3.8 C 46.7 3.8 47.3 3.8 46.2 3.9 C 46.7 3.9 47.4 3.9 46.7 3.9 C 45.6 3.9 45.1 3.7 44.8 3.7 C 45.6 3.7 46.2 3.7 46.6 3.8 C 46.9 3.7 48.0 3.7 47.0 3.6 C 48.2 3.7 49.5 3.7 51.1 3.7 C 50.5 3.6 52.6 3.6 52.0 3.5 C 50.1 3.6 49.7 3.5 47.9 3.5 C 48.3 3.6 46.5 3.6 46.1 3.5 C 46.1 3.6 44.9 3.6 45.2 3.7 C 43.8 3.7 43.9 3.6 42.5 3.6 C 42.4 3.6 42.5 3.6 42.0 3.5 C 41.6 3.6 41.1 3.5 40.6 3.5 C 41.0 3.6 39.0 3.6 38.9 3.6 C 39.4 3.6 40.1 3.6 40.2 3.7 C 38.0 3.7 39.8 3.8 40.3 3.8 C 40.2 3.8 40.9 3.7 41.2 3.7 C 39.3 3.8 43.8 3.9 42.1 3.8 C 40.7 3.8 40.8 3.9 39.4 3.9 C 37.7 3.7 39.6 3.6 37.8 3.5 C 36.9 3.6 36.1 3.6 36.1 3.6 C 35.9 3.6 35.6 3.6 35.2 3.5 C 34.8 3.6 36.6 3.6 35.2 3.7 C 34.5 3.6 35.2 3.5 33.8 3.5 C 33.2 3.6 35.6 3.6 34.3 3.7 C 32.8 3.5 34.6 3.7 33.0 3.7 C 32.9 3.7 32.6 3.7 32.1 3.7 C 32.0 3.7 32.1 3.6 31.5 3.6 C 31.3 3.7 30.9 3.5 29.7 3.5 C 29.1 3.7 31.0 3.6 30.7 3.7 C 29.2 3.6 28.5 3.7 28.0 3.7 C 29.0 3.6 26.2 3.6 26.1 3.5 C 26.5 3.7 25.8 3.6 24.3 3.7 C 24.1 3.5 22.4 3.6 21.9 3.5 C 21.7 3.6 21.3 3.6 21.1 3.6 C 21.7 3.6 22.2 3.6 22.1 3.7 C 21.6 3.7 21.2 3.7 20.7 3.7 C 19.9 3.6 21.7 3.4 18.7 3.5 C 19.1 3.6 17.9 3.6 17.0 3.6 C 17.2 3.7 18.2 3.6 18.4 3.7 C 17.5 3.8 16.3 3.7 15.7 3.6 C 13.9 3.7 11.8 3.6 9.3 3.7 C 8.7 3.6 11.4 3.6 9.6 3.5 C 8.9 3.6 9.4 3.6 8.4 3.6 C 8.8 3.3 4.8 3.4 2.4 3.4 C 2.4 4.2 2.4 4.8 2.4 4.9 C 2.5 5.3 2.4 7.4 2.5 7.3 C 2.4 5.8 2.6 4.9 2.6 4.2 C 2.6 2.8 2.5 5.4 2.5 4.1 C 2.5 4.1 2.5 3.8 2.5 3.5 C 3.1 3.5 3.8 3.5 3.8 3.6 C 1.8 3.6 4.9 3.7 3.5 3.8 C 3.3 3.8 3.0 3.8 2.8 3.8 C 2.8 5.7 2.8 8.4 2.7 7.5 C 2.8 7.6 2.8 6.8 2.7 6.7 C 2.7 8.7 2.8 9.9 2.8 10.8 C 2.8 11.7 2.9 15.4 2.8 14.4 C 2.7 14.7 2.8 12.3 2.8 12.6 C 2.7 16.3 2.8 16.5 2.7 18.9 C 2.8 18.2 2.9 21.6 2.9 21.3 C 2.8 21.2 2.7 21.9 2.8 23.5 C 2.7 23.2 2.7 24.0 2.6 24.8 C 2.7 25.2 2.7 24.1 2.8 24.4 C 2.8 25.1 2.8 25.9 2.8 26.7 C 2.8 26.7 2.7 26.5 2.7 27.1 C 2.8 27.9 2.8 31.1 2.8 30.8 C 2.7 29.4 2.7 32.8 2.6 30.6 C 2.6 31.2 2.6 31.2 2.6 32.0 C 2.6 32.0 2.7 32.0 2.7 32.1 C 2.7 33.8 2.6 32.8 2.6 34.2 C 2.6 34.4 2.6 35.0 2.6 35.2 C 2.6 34.6 2.6 34.6 2.6 33.8 C 2.8 34.8 2.7 32.4 2.8 32.6 C 2.8 34.2 2.7 34.1 2.7 34.8 C 2.7 36.8 2.7 35.8 2.7 37.9 C 2.7 38.0 2.7 37.4 2.8 37.6 C 2.7 40.1 2.5 39.7 2.6 41.5 C 2.6 41.1 2.5 39.5 2.5 40.6 C 2.6 41.8 2.7 42.2 2.7 43.8 C 2.6 43.9 2.6 43.7 2.6 44.3 C 2.6 45.0 2.7 45.1 2.7 45.7 C 2.7 45.8 2.7 46.7 2.7 47.1 C 2.7 47.6 2.6 46.8 2.6 47.5 C 2.6 48.8 2.8 49.6 2.8 50.7 C 2.7 50.6 2.7 51.9 2.7 53.0 C 2.6 53.1 2.6 55.5 2.6 57.0 C 2.7 56.7 2.7 58.3 2.8 58.0 C 2.8 57.2 2.8 56.8 2.8 56.7 C 2.8 58.5 2.6 58.9 2.8 60.3 C 2.7 60.9 2.7 61.8 2.6 62.9 C 2.7 63.1 2.7 60.8 2.8 62.1 C 2.7 62.2 2.7 62.6 2.8 63.0 C 2.7 62.8 2.6 63.7 2.6 64.3 C 2.7 65.4 2.5 67.6 2.6 66.6 C 2.7 68.3 2.5 67.1 2.5 68.4 C 2.6 67.8 2.6 70.0 2.7 68.9 C 2.7 70.6 2.6 70.5 2.5 69.7 C 2.5 71.3 2.6 71.7 2.5 72.5 C 2.6 71.8 2.7 74.2 2.6 73.0 C 2.5 72.5 2.6 74.4 2.5 74.7 C 2.6 74.2 2.6 75.0 2.6 73.9 C 2.7 75.1 2.7 76.9 2.6 78.0 C 2.6 79.5 2.6 80.9 2.6 80.2 C 2.6 81.6 2.6 81.1 2.6 82.5 C 2.6 82.5 2.6 82.1 2.6 82.0 C 2.6 84.0 2.6 83.6 2.6 86.2 C 2.4 85.8 2.4 87.5 2.4 88.0 C 2.4 86.9 2.4 86.1 2.4 85.2 C 2.4 85.0 2.4 85.9 2.3 85.2 C 2.4 85.1 2.4 84.7 2.4 84.3 C 2.3 85.9 2.2 82.1 2.3 83.4 C 2.3 83.4 2.3 83.5 2.3 83.8 C 2.4 83.5 2.4 83.5 2.5 83.8 C 2.4 83.0 2.6 82.3 2.5 82.0 C 2.4 82.1 2.4 82.9 2.4 82.9 C 2.3 80.8 2.5 82.3 2.5 80.7 C 2.4 80.3 2.4 81.2 2.3 81.5 C 2.3 80.0 2.3 78.7 2.4 78.4 C 2.3 77.0 2.3 78.4 2.3 77.4 C 2.3 77.0 2.4 77.0 2.4 76.1 C 2.3 75.0 2.3 76.6 2.3 75.6 C 2.3 74.5 2.4 76.4 2.4 74.7 C 2.3 75.1 2.5 73.2 2.4 73.3 C 2.4 74.3 2.3 74.3 2.3 73.8 C 2.5 71.6 2.1 70.0 2.3 67.8 C 2.3 67.8 2.3 67.5 2.3 67.4 C 2.2 69.0 2.2 71.5 2.1 71.9 C 2.1 73.2 2.2 73.0 2.2 73.3 C 2.1 74.8 2.1 74.7 1.9 73.7 C 1.9 71.1 2.0 70.0 2.0 68.2 C 2.0 67.3 2.0 68.3 1.9 68.6 C 2.1 63.3 1.8 67.3 1.8 65.4 C 1.9 65.4 1.9 65.0 1.9 64.5 C 1.8 64.5 1.9 63.7 1.8 63.6 C 1.8 63.9 1.8 64.1 1.8 64.0 C 1.7 62.6 1.8 63.2 1.9 63.1 C 1.9 64.2 1.9 64.8 1.9 65.0 C 1.9 63.6 2.0 62.6 1.9 61.7 C 2.0 60.5 2.2 62.5 2.2 61.9 C 2.3 62.1 2.0 61.0 2.0 59.9 C 2.0 58.3 1.9 58.2 1.9 56.7 C 2.0 56.3 1.9 58.2 2.0 58.1 C 2.0 57.7 2.0 57.6 2.0 57.2 C 2.0 56.1 1.9 56.2 1.9 55.3 C 2.0 54.9 2.0 54.6 1.9 54.0 C 2.0 53.0 2.0 54.6 2.0 53.5 C 2.0 52.4 1.9 51.6 1.9 51.2 C 2.0 51.1 2.0 51.3 2.0 50.8 C 1.9 49.5 1.9 49.2 1.9 50.7 C 1.9 49.3 1.9 48.7 1.8 48.9 C 1.8 51.0 1.8 51.5 1.6 52.5 C 1.8 52.9 1.7 53.5 1.6 54.3 C 1.8 53.9 1.7 55.2 1.7 55.7 C 1.8 55.2 1.8 54.7 1.8 54.4 C 1.8 56.6 1.8 56.6 1.9 58.5 C 1.9 58.5 1.9 58.7 1.8 58.9 C 1.8 58.3 1.8 56.7 1.7 56.6 C 1.6 57.9 1.8 58.4 1.7 59.8 C 1.7 60.5 1.8 58.7 1.8 59.9 C 1.7 60.4 1.7 61.2 1.6 62.1 C 1.7 63.1 1.7 63.6 1.7 64.4 C 1.7 64.5 1.7 64.6 1.7 65.3 C 1.7 65.3 1.7 64.6 1.8 65.4 C 1.7 67.7 1.6 69.3 1.6 71.8 C 1.6 70.9 1.7 69.0 1.7 70.0 C 1.7 71.0 1.8 72.5 1.7 73.6 C 1.7 74.0 1.7 72.3 1.6 72.6 C 1.6 73.7 1.6 74.4 1.6 74.9 C 1.6 74.9 1.6 76.2 1.7 75.9 C 1.7 75.0 1.6 74.7 1.6 74.5 C 1.9 75.3 1.5 77.8 1.5 79.5 C 1.6 80.7 1.6 78.7 1.6 80.0 C 1.7 80.8 1.5 81.2 1.4 80.0 C 1.5 79.1 1.4 78.7 1.5 78.6 C 1.5 78.2 1.5 77.7 1.4 77.7 C 1.4 78.3 1.4 78.2 1.3 78.6 C 1.4 77.7 1.2 77.5 1.3 76.7 C 1.3 77.2 1.3 77.4 1.3 77.7 C 1.3 75.2 1.4 74.4 1.4 73.1 C 1.4 73.8 1.4 73.0 1.3 73.0 C 1.3 74.1 1.3 76.1 1.3 74.8 C 1.4 74.1 1.1 73.3 1.2 72.5 C 1.2 73.2 1.3 73.1 1.3 73.5 C 1.3 72.5 1.4 72.6 1.4 71.6 C 1.2 68.6 1.5 66.4 1.3 61.5 C 1.3 59.8 1.3 63.0 1.4 62.9 C 1.4 62.4 1.4 62.4 1.4 62.0 C 1.3 61.9 1.4 61.2 1.3 60.6 C 1.4 60.7 1.4 58.4 1.4 57.4 C 1.4 57.3 1.4 57.4 1.3 56.9 C 1.5 53.6 1.3 47.4 1.4 44.9 C 1.3 45.0 1.3 43.9 1.3 43.5 C 1.3 41.9 1.4 42.7 1.3 40.3 C 1.3 39.1 1.4 40.5 1.4 40.8 C 1.3 37.3 1.4 34.3 1.3 32.0 C 1.3 30.8 1.4 32.0 1.4 29.8 C 1.3 29.6 1.5 26.2 1.3 25.6 C 1.3 24.1 1.5 21.8 1.3 22.8 C 1.3 20.9 1.5 22.3 1.5 21.5 C 1.5 20.2 1.2 21.7 1.2 20.4 C 1.3 20.6 1.3 19.5 1.4 18.7 C 1.4 19.7 1.4 20.4 1.4 20.6 C 1.4 19.6 1.5 19.7 1.4 18.3 C 1.4 17.2 1.3 14.0 1.4 13.2 C 1.4 13.1 1.4 13.4 1.3 13.6 C 1.3 12.7 1.4 11.7 1.3 11.7 C 1.3 9.6 1.4 8.8 1.3 7.6 C 1.3 6.6 1.4 8.0 1.4 5.3 C 1.4 5.3 1.3 3.8 1.3 2.3 C 2.6 2.4 3.9 2.4 4.5 2.4 C 4.4 2.3 4.8 2.4 5.4 2.4 C 5.4 2.4 5.2 2.3 5.8 2.3 C 5.9 2.4 6.3 2.3 6.7 2.3 C 6.5 2.5 8.4 2.3 8.6 2.4 C 8.2 2.4 8.3 2.5 8.7 2.5 C 8.7 2.4 10.8 2.5 10.5 2.4 C 10.1 2.4 8.8 2.4 9.1 2.3 C 10.8 2.3 10.2 2.4 11.4 2.4 C 11.3 2.4 10.6 2.4 11.4 2.3 C 12.6 2.4 11.5 2.4 12.3 2.4 C 13.0 2.4 14.2 2.3 14.6 2.3 C 14.5 2.3 14.9 2.4 15.1 2.4 C 17.5 2.4 22.9 2.3 25.3 2.5 C 25.4 2.4 25.9 2.4 25.7 2.3 C 27.1 2.4 27.0 2.4 28.5 2.4 C 28.5 2.4 28.4 2.3 28.4 2.3 C 30.2 2.2 28.7 2.4 29.9 2.4 C 29.9 2.2 30.6 2.5 31.8 2.5 C 31.9 2.4 32.4 2.4 32.2 2.3 C 34.0 2.4 33.9 2.5 35.4 2.4 C 35.1 2.4 34.6 2.1 34.8 2.0 C 35.1 2.1 35.5 2.1 36.2 2.1 C 35.5 2.2 36.1 2.6 38.3 2.5 C 37.0 2.5 36.6 2.5 36.8 2.4 C 38.5 2.4 39.1 2.4 40.5 2.4 C 40.7 2.3 39.7 2.3 40.0 2.2 C 40.3 2.2 40.5 2.2 40.4 2.2 C 41.9 2.2 42.0 2.3 43.7 2.2 C 43.7 2.3 43.3 2.3 42.7 2.2 C 42.9 2.3 42.9 2.4 41.9 2.4 C 41.7 2.3 42.3 2.2 40.9 2.3 C 40.9 2.3 40.9 2.4 41.0 2.4 C 42.0 2.4 44.5 2.5 44.7 2.4 C 44.2 2.4 43.3 2.4 43.7 2.3 C 45.5 2.3 46.0 2.4 47.5 2.5 C 50.0 2.4 54.5 2.5 53.9 2.3 C 55.4 2.4 54.9 2.4 56.2 2.4 C 55.8 2.3 57.8 2.3 57.6 2.3 C 55.9 2.3 56.4 2.3 54.8 2.3 C 54.8 2.2 55.1 2.2 55.7 2.2 C 55.8 2.2 56.5 2.2 57.6 2.2 C 57.4 2.2 56.4 2.1 57.6 2.1 C 57.7 2.1 57.9 2.1 58.5 2.1 C 58.5 2.2 58.5 2.2 58.5 2.3 C 57.9 2.3 57.1 2.3 56.7 2.4 C 57.1 2.4 57.2 2.4 57.6 2.4 C 57.9 2.4 59.8 2.4 59.9 2.3 C 59.2 2.4 58.7 2.3 59.5 2.3 C 59.6 2.3 60.9 2.3 61.3 2.3 C 59.7 2.2 60.3 2.2 59.4 2.1 C 61.3 2.1 61.0 2.2 63.1 2.2 C 63.2 2.3 63.2 2.3 62.7 2.4 C 64.1 2.6 67.2 2.4 68.2 2.4 C 67.5 2.4 66.7 2.5 67.8 2.5 C 67.8 2.5 68.6 2.5 68.7 2.5 C 69.1 2.3 68.1 2.2 67.3 2.1 C 68.2 2.1 68.3 2.1 69.1 2.1 C 69.4 2.1 68.6 2.3 69.6 2.3 C 69.8 2.1 71.6 2.3 71.9 2.2 C 71.2 2.2 70.7 2.1 71.5 2.1 C 71.3 2.2 72.8 2.1 72.9 2.2 C 71.6 2.2 71.3 2.3 70.6 2.3 C 71.5 2.3 69.9 2.4 71.5 2.4 C 72.2 2.3 72.5 2.3 74.3 2.3 C 74.9 2.3 74.3 2.4 75.2 2.4 C 74.9 2.3 76.8 2.3 75.7 2.3 C 76.3 2.3 76.7 2.4 77.0 2.4 C 76.1 2.3 80.5 2.2 79.8 2.1 C 79.8 2.2 80.0 2.3 80.3 2.4 C 81.1 2.3 82.1 2.4 84.5 2.3 C 84.4 2.2 84.8 2.3 85.8 2.3 C 86.0 2.3 85.1 2.2 85.8 2.2 C 87.0 2.3 87.0 2.3 87.2 2.3 C 88.0 2.3 88.7 2.3 89.1 2.3 C 89.1 2.3 88.8 2.3 88.6 2.3 C 91.7 2.4 93.4 2.2 96.0 2.3 C 94.9 2.2 94.7 2.4 95.6 2.3 C 96.1 2.3 96.6 2.3 96.9 2.3 C 96.3 2.2 96.6 2.3 97.9 2.3 C 99.1 2.2 97.5 2.1 98.4 2.1 C 99.4 2.2 98.8 2.2 99.3 2.2 C 99.7 2.2 100.2 2.2 100.7 2.2 C 99.8 2.2 100.8 2.1 101.6 2.1 C 101.0 2.2 101.4 2.2 103.0 2.2 C 103.2 2.3 102.3 2.3 103.0 2.3 C 103.3 2.3 104.6 2.2 105.7 2.3 C 105.4 2.3 105.2 2.3 105.3 2.3 C 106.5 2.3 107.4 2.4 108.5 2.4 C 107.4 2.3 108.0 2.3 107.6 2.2 C 108.7 2.3 110.0 2.2 110.8 2.3 C 109.3 2.3 110.7 2.5 111.7 2.5 C 112.0 2.4 110.3 2.4 110.8 2.3 C 111.4 2.2 112.6 2.4 113.1 2.3 C 113.1 2.2 112.4 2.3 112.2 2.2 C 113.1 2.2 112.0 2.2 112.7 2.2 C 113.1 2.3 113.7 2.1 114.1 2.1 C 114.7 2.2 115.9 2.3 116.4 2.2 C 116.4 2.2 115.6 2.2 115.5 2.2 C 118.1 2.1 118.8 2.2 121.1 2.1 C 121.4 2.2 121.8 2.2 122.5 2.2 C 122.4 2.2 122.9 2.2 123.4 2.1 C 124.4 2.2 125.3 2.2 126.6 2.3 C 126.3 2.3 125.7 2.4 127.4 2.4 C 127.5 2.3 126.8 2.3 127.5 2.3 C 127.4 2.3 127.8 2.4 128.0 2.3 C 128.0 2.3 128.0 2.3 128.0 2.3 C 127.5 2.3 127.0 2.3 126.6 2.3 C 126.7 2.2 126.6 2.2 126.2 2.1 C 128.3 2.1 128.0 2.3 129.4 2.2 C 129.5 2.3 129.9 2.4 128.8 2.5 C 129.9 2.4 130.8 2.4 131.2 2.3 C 129.7 2.3 130.3 2.2 129.9 2.2 C 130.8 2.2 130.8 2.1 131.3 2.1 C 132.3 2.2 130.1 2.3 132.1 2.3 C 130.7 2.2 133.5 2.2 134.5 2.2 C 134.3 2.2 134.0 2.2 134.5 2.1 C 137.3 2.1 136.9 2.4 138.6 2.2 C 138.4 2.3 139.2 2.3 139.5 2.3 C 138.1 2.4 137.7 2.4 137.2 2.4 C 137.2 2.4 137.6 2.4 138.0 2.4 C 138.1 2.4 138.4 2.4 139.0 2.4 C 139.4 2.4 139.4 2.2 140.6 2.1 C 140.6 2.2 140.4 2.2 141.0 2.2 C 141.5 2.2 140.4 2.4 142.7 2.4 C 142.3 2.3 142.2 2.3 142.4 2.2 C 143.5 2.2 143.3 2.2 144.7 2.2 C 145.1 2.3 143.6 2.4 143.1 2.4 C 144.1 2.4 145.0 2.3 145.9 2.4 C 145.2 2.3 146.1 2.3 147.0 2.2 C 147.8 2.3 146.8 2.4 147.8 2.4 C 148.6 2.4 149.1 2.3 148.4 2.2 C 150.1 2.3 149.8 2.2 151.2 2.2 C 151.2 2.2 150.8 2.2 150.3 2.2 C 150.3 2.2 150.1 2.3 150.6 2.3 C 151.3 2.2 152.5 2.2 153.5 2.2 C 153.5 2.7 153.6 3.2 153.6 3.5 C 153.4 5.7 153.6 8.0 153.5 10.1 C 153.4 9.3 153.5 12.9 153.4 13.9 C 153.5 14.6 153.6 16.4 153.6 15.7 C 153.4 16.0 153.5 17.2 153.5 18.2 C 153.5 18.1 153.5 18.1 153.5 18.1 C 153.6 20.2 153.5 20.7 153.4 21.4 C 153.5 23.9 153.3 26.8 153.4 29.8 C 153.3 30.6 153.3 31.3 153.3 33.2 C 153.4 33.1 153.4 34.5 153.4 35.9 C 153.4 35.5 153.4 36.8 153.5 36.8 C 153.5 35.6 153.6 36.0 153.6 35.3 C 153.5 37.0 153.7 37.8 153.6 39.1 C 153.6 37.5 153.5 37.0 153.3 36.9 C 153.4 38.8 153.3 39.8 153.2 40.1 C 153.3 40.3 153.4 40.0 153.4 39.6 C 153.4 40.2 153.4 40.9 153.4 41.5 C 153.3 41.7 153.3 40.8 153.3 41.5 C 153.3 41.9 153.4 42.4 153.4 42.9 C 153.3 43.4 153.3 42.2 153.3 42.0 C 153.2 44.5 153.4 43.4 153.5 44.7 C 153.4 45.1 153.3 45.0 153.3 46.2 C 153.3 46.6 153.4 46.7 153.4 48.0 C 153.4 48.8 153.3 48.0 153.3 48.9 C 153.3 49.1 153.3 49.5 153.3 49.9 C 153.3 49.8 153.3 50.3 153.4 50.8 C 153.3 50.9 153.3 51.8 153.4 52.2 C 153.3 52.3 153.2 53.7 153.3 54.1 C 153.3 54.1 153.3 53.2 153.3 53.2 C 153.3 54.2 153.3 54.9 153.4 55.5 C 153.2 55.8 153.3 57.5 153.2 59.6 C 153.3 61.0 153.4 59.4 153.4 61.1 C 153.4 62.1 153.3 60.8 153.2 61.0 C 153.2 61.3 153.2 62.8 153.2 62.9 C 153.3 62.9 153.3 62.1 153.3 62.0 C 153.4 63.2 153.3 63.2 153.2 63.9 C 153.3 63.8 153.3 64.6 153.4 64.8 C 153.4 68.2 153.3 68.1 153.2 69.4 C 153.3 69.4 153.2 70.2 153.3 70.3 C 153.2 69.4 153.3 68.1 153.3 69.5 C 153.3 69.2 153.3 71.2 153.4 71.3 C 153.4 71.1 153.4 69.9 153.5 70.4 C 153.5 72.2 153.3 71.4 153.4 72.8 C 153.4 72.9 153.4 72.1 153.3 71.8 C 153.3 72.3 153.3 73.1 153.3 73.2 C 153.3 72.5 153.2 72.5 153.2 72.2 C 153.2 73.1 153.2 74.7 153.3 73.6 C 153.2 75.5 153.3 77.3 153.4 76.0 C 153.4 77.5 153.3 76.6 153.4 77.9 C 153.3 77.6 153.2 77.3 153.1 78.2 C 153.2 78.4 153.2 79.2 153.3 79.2 C 153.3 81.4 153.2 82.0 153.1 82.9 C 153.2 82.1 153.1 83.1 153.2 84.3 C 153.2 84.9 153.1 84.2 153.1 86.1 C 153.2 84.2 153.1 88.3 153.3 87.6 C 153.2 89.8 153.2 89.8 153.2 92.2 C 153.1 91.9 153.1 91.3 153.1 90.2 C 153.1 91.0 153.1 88.3 153.1 88.4 C 153.1 88.4 153.1 88.4 153.0 88.4 C 153.0 90.1 153.0 91.3 153.0 92.0 C 153.0 92.4 153.1 93.3 153.2 93.1 C 153.1 94.7 153.2 96.6 153.1 97.3 C 153.1 96.7 153.1 96.1 153.1 96.2 C 153.1 97.0 153.1 97.8 153.2 97.8 C 153.2 96.4 153.2 96.2 153.2 95.4 C 153.2 96.1 153.3 94.2 153.3 95.5 C 153.2 95.4 153.4 98.4 153.3 97.4 C 153.2 95.8 153.2 99.0 153.1 99.1 C 153.1 99.1 153.1 99.1 153.1 99.1 Z M 1.4 72.1 C 1.4 73.5 1.5 71.8 1.5 70.8 C 1.5 71.1 1.4 71.2 1.4 71.2 C 1.4 71.6 1.4 72.0 1.4 72.1 C 1.4 72.1 1.4 72.1 1.4 72.1 Z M 2.7 58.0 C 2.6 57.5 2.7 59.8 2.6 60.7 C 2.7 60.4 2.7 60.1 2.7 60.7 C 2.8 59.8 2.6 59.3 2.7 58.0 C 2.7 58.0 2.7 58.0 2.7 58.0 Z M 2.4 7.2 C 2.4 7.6 2.4 8.5 2.4 8.5 C 2.4 9.1 2.4 9.0 2.5 9.1 C 2.5 10.2 2.3 8.7 2.4 10.4 C 2.5 11.2 2.6 7.8 2.4 7.2 C 2.4 7.2 2.4 7.2 2.4 7.2 Z M 151.8 80.7 C 151.7 81.3 151.7 79.7 151.6 80.1 C 151.6 82.6 151.7 80.8 151.7 84.2 C 151.7 84.0 151.8 83.8 151.8 83.9 C 151.8 82.2 151.7 82.0 151.9 82.5 C 151.9 81.8 151.7 81.5 151.8 80.7 C 151.8 80.7 151.8 80.7 151.8 80.7 Z M 140.2 101.7 C 140.5 101.7 140.7 101.7 140.8 101.8 C 141.8 101.7 141.6 101.7 143.0 101.7 C 142.7 101.6 141.4 101.6 140.2 101.7 C 140.2 101.7 140.2 101.7 140.2 101.7 Z M 54.1 101.5 C 53.8 101.5 53.5 101.5 53.2 101.5 C 53.4 101.5 52.6 101.6 54.2 101.6 C 54.2 101.6 54.0 101.6 53.7 101.6 C 54.0 101.6 54.7 101.6 54.6 101.5 C 54.2 101.5 54.1 101.5 54.1 101.5 C 54.1 101.5 54.1 101.5 54.1 101.5 Z M 18.0 102.3 C 19.7 102.2 15.4 102.0 18.0 102.3 C 18.0 102.3 18.0 102.3 18.0 102.3 C 18.0 102.3 18.0 102.3 18.0 102.3 Z M 21.8 103.4 C 21.8 103.4 22.2 103.4 22.2 103.4 C 23.8 103.4 22.3 103.4 23.2 103.5 C 24.4 103.4 22.5 103.3 24.1 103.3 C 23.7 103.2 22.7 103.3 21.8 103.4 C 21.8 103.4 21.8 103.4 21.8 103.4 Z M 136.7 2.3 C 135.4 2.3 135.0 2.4 134.7 2.5 C 135.6 2.5 136.3 2.5 136.5 2.6 C 138.2 2.5 135.5 2.5 135.2 2.5 C 135.5 2.4 136.7 2.4 136.7 2.3 C 136.7 2.3 136.7 2.3 136.7 2.3 Z M 132.6 2.3 C 132.0 2.4 131.2 2.4 131.1 2.5 C 131.9 2.5 131.9 2.5 132.0 2.5 C 132.7 2.5 131.9 2.4 132.6 2.3 C 132.6 2.3 132.6 2.3 132.6 2.3 Z M 140.3 2.4 C 139.7 2.4 139.9 2.5 139.8 2.5 C 140.6 2.5 140.7 2.6 141.6 2.6 C 141.6 2.5 141.7 2.5 141.7 2.5 C 141.0 2.5 140.9 2.5 140.3 2.5 C 140.3 2.5 140.3 2.4 140.3 2.4 C 140.3 2.4 140.3 2.4 140.3 2.4 Z M 128.3 2.4 C 125.9 2.4 124.7 2.6 123.1 2.7 C 124.8 2.7 126.5 2.5 127.7 2.6 C 129.3 2.5 127.3 2.5 127.4 2.5 C 127.4 2.4 128.0 2.4 128.3 2.4 C 128.3 2.4 128.3 2.4 128.3 2.4 Z M 107.1 2.4 C 106.6 2.4 105.6 2.5 104.3 2.5 C 104.5 2.5 104.7 2.5 104.7 2.6 C 106.7 2.6 105.6 2.4 107.1 2.4 C 107.1 2.4 107.1 2.4 107.1 2.4 Z M 95.5 2.5 C 94.3 2.5 96.1 2.5 95.5 2.6 C 96.8 2.6 98.3 2.6 98.3 2.5 C 96.8 2.6 96.5 2.6 95.5 2.5 C 95.5 2.5 95.5 2.5 95.5 2.5 Z M 87.2 2.5 C 85.8 2.5 87.8 2.6 87.2 2.7 C 87.7 2.7 87.6 2.7 87.6 2.6 C 88.0 2.6 88.4 2.6 89.0 2.6 C 88.6 2.6 87.0 2.6 87.2 2.5 C 87.2 2.5 87.2 2.5 87.2 2.5 Z M 153.2 19.7 C 153.1 18.9 153.0 19.2 153.1 17.5 C 153.1 20.1 152.8 18.8 152.8 22.2 C 152.9 21.7 152.9 22.0 152.9 22.2 C 152.9 23.5 152.9 21.0 153.0 22.1 C 153.0 21.2 152.9 21.8 152.9 20.8 C 153.0 19.8 153.0 19.2 153.2 19.7 C 153.2 19.7 153.2 19.7 153.2 19.7 Z M 152.7 22.3 C 152.7 23.2 152.9 23.1 152.8 23.6 C 152.8 24.1 152.8 24.0 152.9 24.0 C 152.9 23.7 152.9 23.6 152.9 23.6 C 152.9 22.8 152.8 22.0 152.7 22.3 C 152.7 22.3 152.7 22.3 152.7 22.3 Z M 152.7 13.5 C 152.8 15.1 152.7 15.6 152.8 16.3 C 152.7 16.9 152.9 17.3 152.7 18.1 C 152.8 19.7 152.8 18.5 152.9 18.1 C 152.9 19.5 152.8 18.5 152.8 19.9 C 152.9 20.1 152.9 18.3 153.0 18.4 C 153.0 17.3 152.9 17.4 152.9 16.6 C 152.9 16.1 152.9 16.2 153.0 16.1 C 153.0 14.8 153.0 14.9 153.0 13.8 C 152.9 13.6 152.9 14.1 152.9 15.3 C 152.9 14.0 152.8 13.6 152.9 12.1 C 153.0 13.0 153.0 8.4 152.8 8.9 C 152.8 10.1 152.9 9.7 152.9 10.2 C 152.8 11.9 152.9 12.8 152.7 13.5 C 152.7 13.5 152.7 13.5 152.7 13.5 Z M 140.6 2.7 C 140.2 2.7 139.8 2.7 139.2 2.7 C 139.2 2.6 140.0 2.6 139.3 2.6 C 138.3 2.5 138.1 2.6 137.4 2.6 C 137.8 2.6 139.8 2.7 138.6 2.8 C 138.9 2.8 139.6 2.8 140.4 2.8 C 139.6 2.7 141.8 2.8 142.8 2.8 C 142.8 2.7 144.3 2.9 145.1 2.8 C 144.6 2.7 142.7 2.8 141.9 2.8 C 142.3 2.8 139.8 2.6 140.6 2.7 C 140.6 2.7 140.6 2.7 140.6 2.7 Z M 152.8 25.9 C 152.8 26.2 152.8 27.2 152.9 26.4 C 152.9 26.8 152.8 27.7 153.0 27.2 C 153.0 27.7 153.0 28.2 153.0 28.6 C 152.9 28.5 153.0 27.2 152.9 27.7 C 152.9 28.7 152.9 28.3 152.9 29.6 C 152.8 28.9 152.8 29.7 152.6 29.2 C 152.7 29.6 152.7 30.7 152.8 30.6 C 152.8 32.3 152.6 30.1 152.6 32.5 C 152.6 32.4 152.6 30.8 152.6 30.2 C 152.5 29.9 152.6 33.1 152.6 34.8 C 152.6 33.2 152.7 34.4 152.8 35.1 C 152.8 35.7 152.7 35.2 152.7 36.1 C 152.7 36.9 152.7 37.3 152.7 37.5 C 152.7 38.1 152.8 37.8 152.8 37.9 C 152.8 39.0 152.7 38.2 152.7 39.8 C 152.8 38.6 152.8 39.9 152.8 42.1 C 152.8 41.9 152.8 41.2 152.9 41.1 C 153.0 41.4 152.8 42.7 152.8 43.0 C 152.8 43.8 152.9 43.3 152.9 42.5 C 152.9 43.0 152.9 43.4 152.9 43.9 C 153.0 41.6 152.9 38.0 153.1 33.7 C 153.0 34.5 153.0 33.6 153.0 32.3 C 153.1 32.1 153.1 32.6 153.1 33.2 C 153.2 31.7 152.9 31.9 153.0 29.6 C 153.0 28.3 153.1 30.9 153.1 29.5 C 153.1 28.7 153.0 28.1 153.1 27.6 C 153.1 26.2 153.0 25.8 153.0 23.5 C 152.9 24.9 152.7 25.6 152.8 26.9 C 152.8 26.9 152.8 26.3 152.8 25.9 C 152.8 25.9 152.8 25.9 152.8 25.9 Z M 131.9 2.6 C 131.1 2.6 130.7 2.6 130.5 2.6 C 129.1 2.6 130.6 2.7 130.9 2.7 C 131.5 2.7 131.8 2.6 131.9 2.6 C 131.9 2.6 131.9 2.6 131.9 2.6 Z M 1.6 12.4 C 1.6 14.1 1.7 13.9 1.7 15.3 C 1.7 14.2 1.8 14.0 1.8 12.1 C 1.7 12.0 1.6 11.9 1.6 12.4 C 1.6 12.4 1.6 12.4 1.6 12.4 Z M 136.4 2.6 C 137.7 2.5 135.0 2.8 135.1 2.7 C 133.7 2.7 136.3 2.7 135.0 2.8 C 136.1 2.8 136.7 2.9 138.2 2.8 C 138.2 2.7 137.1 2.7 135.9 2.7 C 135.8 2.7 136.4 2.7 136.4 2.6 C 136.4 2.6 136.4 2.6 136.4 2.6 Z M 9.9 2.8 C 11.1 2.8 8.7 2.7 7.9 2.6 C 8.0 2.7 8.3 2.7 9.9 2.8 C 9.9 2.8 9.9 2.8 9.9 2.8 Z M 1.7 24.5 C 1.9 25.3 1.7 22.4 1.9 23.2 C 1.9 22.4 1.8 22.3 1.8 22.2 C 1.8 21.8 1.8 20.5 1.9 20.9 C 2.0 20.8 1.9 23.0 2.0 22.4 C 2.0 23.1 2.0 23.1 2.0 23.7 C 2.0 22.4 1.9 22.9 1.8 24.6 C 1.9 24.6 1.9 23.8 2.0 24.7 C 1.9 24.7 1.8 25.5 1.7 25.4 C 1.7 26.8 1.9 26.1 1.9 27.8 C 1.9 27.7 1.9 26.6 2.0 26.0 C 2.1 26.3 1.9 27.7 2.0 27.4 C 1.9 27.7 1.9 28.7 1.8 28.7 C 1.8 27.3 1.7 26.4 1.7 25.3 C 1.6 26.3 1.8 27.9 1.7 29.5 C 1.8 29.4 1.8 30.4 1.9 30.1 C 1.8 31.4 1.7 30.7 1.7 30.4 C 1.7 30.7 1.7 33.4 1.8 33.2 C 1.7 33.4 1.7 36.5 1.8 36.5 C 1.8 37.3 1.9 38.9 1.8 39.2 C 1.8 39.8 1.8 40.8 1.8 42.0 C 1.9 42.4 1.9 40.3 1.9 40.2 C 2.0 39.9 1.9 42.4 2.0 42.1 C 2.0 42.1 2.0 42.1 2.0 42.1 C 2.0 41.2 2.0 40.2 2.0 39.3 C 2.0 38.6 2.0 39.5 2.0 39.4 C 2.0 38.7 1.9 35.7 2.0 35.7 C 2.0 33.7 2.0 32.3 2.0 31.5 C 2.0 30.3 2.0 32.2 2.1 31.6 C 1.9 28.0 2.1 24.0 2.0 21.0 C 2.0 20.4 2.0 20.7 2.1 20.6 C 2.0 16.6 1.9 19.9 1.9 16.8 C 2.0 16.9 2.0 18.3 2.1 18.3 C 2.1 17.3 2.0 16.9 2.0 15.5 C 2.0 15.5 2.0 15.5 1.9 15.4 C 1.9 14.3 2.0 14.8 2.1 14.2 C 2.0 12.7 2.0 13.0 2.1 12.4 C 2.1 11.0 2.0 9.6 2.1 8.2 C 2.0 7.2 1.9 8.9 1.9 10.4 C 1.8 10.3 1.8 9.9 1.8 9.8 C 1.9 8.2 2.1 8.1 2.1 5.5 C 2.0 7.4 2.0 4.5 2.1 4.2 C 2.1 3.1 2.0 3.8 2.0 4.5 C 1.9 4.3 2.0 3.7 2.0 3.6 C 1.9 3.4 1.8 5.8 1.9 8.5 C 1.7 7.1 1.9 10.4 1.7 8.8 C 1.7 11.0 1.8 9.3 1.8 11.7 C 1.8 11.5 1.9 11.1 1.9 10.9 C 1.9 12.7 1.8 12.1 1.8 14.0 C 1.9 14.4 1.9 13.1 2.0 13.2 C 1.9 15.2 1.8 15.8 1.7 17.2 C 1.8 17.5 1.9 17.2 1.8 19.5 C 1.8 19.5 1.8 19.5 1.8 19.5 C 1.8 18.4 1.6 17.9 1.6 20.7 C 1.7 21.0 1.7 20.1 1.7 19.4 C 1.7 19.7 1.8 20.7 1.8 21.7 C 1.8 22.3 1.7 22.9 1.7 22.1 C 1.6 22.5 1.8 23.1 1.7 24.5 C 1.7 24.5 1.7 24.5 1.7 24.5 Z M 109.3 2.6 C 108.9 2.7 108.5 2.7 107.9 2.7 C 107.5 2.8 108.8 2.7 108.8 2.8 C 109.7 2.8 109.0 2.7 109.3 2.6 C 109.3 2.6 109.3 2.6 109.3 2.6 Z M 122.1 2.7 C 122.1 2.6 121.3 2.7 120.3 2.7 C 119.9 2.8 121.2 2.8 121.2 2.8 C 122.4 2.8 120.9 2.7 122.1 2.7 C 122.1 2.7 122.1 2.7 122.1 2.7 Z M 116.6 2.7 C 116.2 2.6 116.1 2.8 117.1 2.7 C 117.0 2.8 116.7 2.8 116.1 2.9 C 116.7 3.0 117.2 2.8 118.4 2.8 C 118.0 2.8 117.4 2.7 116.6 2.7 C 116.6 2.7 116.6 2.7 116.6 2.7 Z M 114.8 2.7 C 114.1 2.8 113.7 2.7 112.5 2.7 C 112.7 2.8 115.3 2.8 115.7 2.7 C 116.1 2.7 113.4 2.7 114.8 2.7 C 114.8 2.7 114.8 2.7 114.8 2.7 Z M 28.4 2.9 C 27.9 2.9 28.1 3.0 28.0 3.0 C 26.5 2.9 24.5 2.9 26.0 2.8 C 24.6 2.9 23.1 2.7 21.8 2.7 C 20.7 2.7 21.3 2.8 20.5 2.8 C 19.1 2.8 21.2 2.8 20.9 2.7 C 20.6 2.6 20.3 2.8 18.6 2.7 C 19.2 2.9 17.2 2.7 17.8 2.9 C 16.9 2.8 16.7 2.9 15.5 2.9 C 15.7 2.9 16.8 2.9 17.0 3.0 C 17.6 3.1 17.5 2.9 16.5 2.9 C 17.0 2.9 18.8 3.0 19.2 2.9 C 19.9 3.0 17.7 2.9 18.4 3.0 C 18.8 3.0 19.2 3.0 19.2 3.0 C 19.9 3.0 20.4 3.0 20.7 3.1 C 20.3 3.1 20.2 3.1 20.2 3.0 C 19.4 3.0 21.2 3.2 19.4 3.2 C 19.7 3.2 20.5 3.2 20.4 3.3 C 21.0 3.3 20.2 3.0 22.1 3.1 C 23.3 3.0 19.2 3.0 20.1 2.9 C 22.7 2.9 21.3 3.0 23.4 3.0 C 23.4 3.0 23.3 3.0 23.8 2.9 C 23.7 2.9 23.0 2.9 22.4 2.9 C 22.5 2.9 23.2 2.9 23.8 2.9 C 23.7 2.9 23.3 2.9 23.2 2.8 C 25.0 2.9 25.0 3.1 23.4 3.1 C 23.5 3.2 25.7 3.2 26.2 3.1 C 25.6 3.1 26.2 3.1 25.7 3.0 C 25.2 3.0 25.3 3.0 25.2 3.0 C 24.4 3.0 25.1 3.0 25.2 2.9 C 26.1 3.0 26.1 3.0 27.0 3.0 C 26.8 3.0 26.6 3.0 26.6 3.1 C 27.1 3.1 27.6 3.1 28.0 3.1 C 27.9 3.0 28.5 3.0 28.4 2.9 C 28.4 2.9 28.4 2.9 28.4 2.9 Z M 4.3 2.7 C 2.8 2.7 3.7 2.8 4.4 2.8 C 4.1 2.8 3.6 2.8 3.0 2.8 C 3.5 2.9 3.9 2.8 5.4 2.9 C 4.2 3.0 5.7 3.1 7.9 3.1 C 8.4 3.0 6.5 2.9 7.2 2.8 C 5.6 2.9 4.6 2.8 4.3 2.7 C 4.3 2.7 4.3 2.7 4.3 2.7 Z M 130.9 2.7 C 130.0 2.7 129.0 2.7 128.1 2.7 C 128.2 2.8 131.0 2.9 130.9 2.7 C 130.9 2.7 130.9 2.7 130.9 2.7 Z M 152.8 45.7 C 152.8 46.1 152.8 46.2 152.8 46.2 C 152.8 47.6 152.9 45.6 152.9 46.2 C 152.9 45.7 152.9 45.3 152.9 44.8 C 152.9 44.7 152.9 46.7 152.8 45.3 C 152.8 45.4 152.8 45.7 152.8 45.7 C 152.8 45.7 152.8 45.7 152.8 45.7 Z M 110.2 2.8 C 109.3 2.8 109.8 2.9 107.8 2.9 C 108.5 3.0 108.9 2.9 110.1 2.9 C 110.1 2.9 110.1 2.8 110.2 2.8 C 110.2 2.8 110.2 2.8 110.2 2.8 Z M 35.2 2.8 C 34.0 2.7 33.8 2.9 31.6 2.9 C 32.7 3.0 33.9 2.8 35.2 2.8 C 35.2 2.8 35.2 2.8 35.2 2.8 Z M 2.0 45.7 C 2.0 45.1 2.0 45.9 2.0 44.9 C 2.0 44.2 2.0 43.9 2.0 43.0 C 1.9 44.2 2.0 46.6 1.8 47.4 C 1.8 48.6 1.9 48.5 2.0 48.9 C 2.0 48.4 2.0 48.1 2.0 48.0 C 1.9 47.3 2.1 46.6 2.0 45.7 C 2.0 45.7 2.0 45.7 2.0 45.7 Z M 10.4 2.9 C 11.3 2.9 9.9 2.9 9.7 3.0 C 9.0 3.0 9.2 2.9 9.1 2.9 C 8.3 2.9 8.1 2.9 8.3 3.0 C 9.8 3.0 11.7 3.0 10.7 3.2 C 12.2 3.2 11.3 3.1 12.0 3.0 C 12.8 3.1 12.1 3.1 12.1 3.2 C 12.5 3.2 13.5 3.1 13.5 3.2 C 15.6 3.1 14.5 2.9 12.7 2.8 C 11.3 2.9 13.0 2.9 10.4 2.9 C 10.4 2.9 10.4 2.9 10.4 2.9 Z M 68.8 2.9 C 68.7 2.9 67.8 2.9 67.8 2.9 C 66.9 3.0 66.0 3.1 65.2 3.2 C 65.3 3.2 66.6 3.2 66.0 3.1 C 66.5 3.2 67.3 3.2 67.9 3.2 C 68.8 3.3 69.1 3.1 69.3 3.2 C 70.2 3.2 69.6 3.2 71.1 3.2 C 68.8 3.1 71.9 3.1 72.0 3.0 C 70.7 3.0 69.5 3.0 69.7 3.1 C 68.7 3.1 67.6 3.1 67.4 3.0 C 67.5 2.9 68.3 3.0 68.8 2.9 C 68.8 2.9 68.8 2.9 68.8 2.9 Z M 63.3 3.2 C 63.7 3.2 64.0 3.2 64.7 3.2 C 64.3 3.2 64.2 3.1 64.2 3.1 C 63.0 3.1 62.8 3.1 62.4 3.0 C 61.3 3.0 62.7 3.2 61.0 3.1 C 61.1 3.2 61.9 3.1 62.0 3.2 C 62.1 3.1 62.7 3.1 63.3 3.2 C 63.3 3.2 63.3 3.2 63.3 3.2 Z M 49.1 3.0 C 47.9 3.0 49.7 3.1 49.1 3.2 C 49.4 3.1 51.7 3.2 51.4 3.2 C 52.2 3.4 54.4 3.1 54.2 3.3 C 54.8 3.3 54.6 3.2 54.6 3.2 C 53.0 3.2 53.0 3.1 54.2 3.1 C 54.0 3.1 53.0 3.1 52.3 3.1 C 52.3 3.2 52.9 3.2 52.8 3.2 C 51.4 3.2 50.4 3.1 49.1 3.0 C 49.1 3.0 49.1 3.0 49.1 3.0 Z M 152.6 95.9 C 152.7 94.8 152.6 94.1 152.6 93.5 C 152.6 93.8 152.6 94.4 152.6 94.9 C 152.6 95.0 152.6 94.5 152.6 93.9 C 152.5 94.4 152.6 96.4 152.6 95.9 C 152.6 95.9 152.6 95.9 152.6 95.9 Z M 152.6 86.7 C 152.7 85.6 152.6 85.0 152.6 84.8 C 152.5 85.2 152.6 85.1 152.6 85.7 C 152.6 86.1 152.6 86.4 152.5 86.6 C 152.5 87.0 152.6 87.0 152.6 87.1 C 152.6 87.5 152.6 87.5 152.6 87.5 C 152.6 88.9 152.5 86.1 152.6 86.7 C 152.6 86.7 152.6 86.7 152.6 86.7 Z M 56.9 3.1 C 57.3 3.1 57.6 3.2 58.7 3.2 C 58.5 3.1 59.4 3.1 60.1 3.1 C 59.0 3.1 58.5 3.1 56.9 3.1 C 56.9 3.1 56.9 3.1 56.9 3.1 Z M 152.6 29.3 C 152.7 27.8 152.5 28.0 152.6 26.0 C 152.6 26.1 152.5 26.1 152.5 26.1 C 152.6 27.3 152.5 27.8 152.6 29.3 C 152.6 29.3 152.6 29.3 152.6 29.3 Z M 37.2 102.9 C 37.3 102.8 35.9 102.8 35.8 102.8 C 35.6 102.9 34.8 102.7 32.2 102.7 C 32.1 102.7 32.3 102.7 32.6 102.7 C 30.5 102.6 33.3 102.8 33.6 102.8 C 35.3 102.8 35.5 102.9 37.2 102.9 C 37.2 102.9 37.2 102.9 37.2 102.9 Z M 2.2 32.2 C 2.2 32.1 2.2 32.3 2.2 32.6 C 2.2 32.9 2.2 33.2 2.2 33.5 C 2.3 33.5 2.4 32.0 2.5 33.3 C 2.5 32.9 2.5 32.8 2.5 32.8 C 2.2 30.4 2.6 29.0 2.5 25.9 C 2.5 25.5 2.4 25.6 2.4 25.5 C 2.4 25.8 2.4 25.8 2.4 25.9 C 2.5 26.3 2.4 28.8 2.3 27.7 C 2.3 27.7 2.3 28.1 2.3 28.1 C 2.3 28.4 2.3 28.7 2.3 29.0 C 2.4 28.9 2.4 28.3 2.4 28.2 C 2.4 29.6 2.3 31.4 2.2 30.3 C 2.2 31.2 2.3 31.6 2.3 32.2 C 2.3 32.8 2.2 32.8 2.2 32.2 C 2.2 32.2 2.2 32.2 2.2 32.2 Z M 2.3 44.0 C 2.2 45.4 2.3 45.0 2.3 46.4 C 2.4 45.5 2.3 44.4 2.3 43.2 C 2.3 43.4 2.3 44.0 2.3 44.0 C 2.3 44.0 2.3 44.0 2.3 44.0 Z M 2.4 17.7 C 2.5 18.1 2.5 16.8 2.5 15.5 C 2.4 15.1 2.4 16.3 2.4 17.7 C 2.4 17.7 2.4 17.7 2.4 17.7 Z M 2.4 23.6 C 2.4 25.0 2.4 21.9 2.5 22.8 C 2.5 22.1 2.5 21.5 2.5 21.5 C 2.5 21.0 2.5 20.9 2.5 20.0 C 2.4 20.0 2.4 21.5 2.4 21.3 C 2.4 22.4 2.4 22.6 2.4 23.6 C 2.4 23.6 2.4 23.6 2.4 23.6 Z M 2.4 24.5 C 2.4 25.4 2.6 24.4 2.6 23.3 C 2.5 23.7 2.4 23.9 2.4 24.5 C 2.4 24.5 2.4 24.5 2.4 24.5 Z M 88.0 3.4 C 87.3 3.4 87.8 3.5 87.1 3.5 C 87.1 3.5 89.8 3.5 87.5 3.5 C 88.3 3.7 88.8 3.5 89.8 3.5 C 89.5 3.5 89.2 3.5 89.8 3.5 C 90.1 3.4 87.6 3.5 88.0 3.4 C 88.0 3.4 88.0 3.4 88.0 3.4 Z M 85.3 3.4 C 84.7 3.4 85.0 3.4 85.2 3.4 C 85.2 3.5 84.4 3.5 83.9 3.5 C 83.8 3.4 84.8 3.6 84.8 3.7 C 87.1 3.6 85.3 3.5 85.3 3.4 C 85.3 3.4 85.3 3.4 85.3 3.4 Z M 83.0 3.5 C 81.5 3.4 79.4 3.4 78.4 3.5 C 79.5 3.6 82.3 3.6 83.0 3.5 C 83.0 3.5 83.0 3.5 83.0 3.5 Z M 98.0 3.5 C 95.3 3.4 89.9 3.5 94.8 3.6 C 94.6 3.5 97.8 3.5 99.4 3.5 C 99.4 3.5 101.2 3.4 101.2 3.5 C 102.4 3.4 97.4 3.4 98.0 3.5 C 98.0 3.5 98.0 3.5 98.0 3.5 Z M 76.6 3.7 C 77.3 3.6 76.4 3.5 77.5 3.5 C 78.2 3.5 77.3 3.5 77.5 3.4 C 76.1 3.4 73.2 3.5 72.9 3.4 C 72.2 3.5 72.0 3.5 70.7 3.5 C 70.6 3.6 75.5 3.4 76.6 3.6 C 76.5 3.6 74.7 3.7 76.6 3.7 C 76.6 3.7 76.6 3.7 76.6 3.7 Z M 152.0 29.5 C 152.1 29.6 152.1 27.7 152.2 28.1 C 152.1 27.1 152.1 26.1 152.0 25.0 C 152.1 24.6 152.2 24.7 152.2 23.1 C 152.1 23.1 152.2 23.9 152.1 23.2 C 152.1 21.7 152.2 22.0 152.2 20.4 C 152.0 20.7 152.1 16.8 152.0 17.3 C 152.0 18.2 152.1 18.1 152.0 19.6 C 152.0 20.1 152.0 19.9 152.0 20.5 C 151.9 20.1 152.0 19.3 152.0 18.7 C 151.9 18.9 151.9 20.0 151.8 20.1 C 151.9 20.8 151.9 19.9 151.9 20.1 C 151.9 21.8 151.7 20.1 151.7 22.0 C 151.8 21.6 151.8 21.6 151.9 21.9 C 151.9 22.7 151.9 25.0 151.8 23.8 C 151.8 23.9 151.9 25.3 151.9 25.1 C 151.9 25.8 151.9 25.9 151.9 26.0 C 151.9 27.9 152.0 28.1 152.1 27.7 C 152.2 28.0 152.0 28.4 152.0 29.5 C 152.0 29.5 152.0 29.5 152.0 29.5 Z M 112.5 3.5 C 113.6 3.4 111.3 3.5 110.3 3.5 C 111.6 3.5 111.1 3.7 112.5 3.7 C 112.0 3.6 112.1 3.6 113.0 3.6 C 113.2 3.6 111.3 3.5 112.5 3.5 C 112.5 3.5 112.5 3.5 112.5 3.5 Z M 67.9 3.5 C 67.4 3.4 65.1 3.5 63.8 3.5 C 64.1 3.6 67.1 3.4 67.5 3.6 C 68.2 3.6 67.1 3.5 67.9 3.5 C 67.9 3.5 67.9 3.5 67.9 3.5 Z M 152.2 12.2 C 152.2 11.7 152.1 12.0 152.1 12.2 C 152.1 12.1 152.1 11.1 152.1 10.4 C 152.0 11.5 152.0 10.2 151.9 10.5 C 151.9 10.0 151.9 9.8 151.9 9.7 C 152.1 9.5 151.8 6.9 151.8 9.8 C 151.9 9.2 151.9 9.4 151.9 10.6 C 151.8 11.9 151.9 12.9 151.8 13.4 C 151.8 14.2 151.9 14.5 151.9 15.6 C 151.8 15.9 151.8 16.9 151.6 16.2 C 151.6 18.2 151.8 16.7 151.9 18.3 C 151.8 19.9 151.8 17.6 151.7 18.0 C 151.7 18.4 151.7 18.3 151.6 18.5 C 151.6 19.0 151.7 19.0 151.7 18.4 C 151.8 18.6 151.8 20.1 151.7 19.7 C 151.8 20.6 152.0 18.1 151.9 16.9 C 151.9 16.2 152.1 16.1 152.0 16.8 C 152.1 16.5 151.9 15.1 152.1 15.4 C 152.1 14.8 152.1 14.2 152.1 13.6 C 152.1 13.7 152.1 14.0 152.0 14.1 C 152.0 13.5 152.0 12.9 152.0 12.3 C 152.1 12.8 152.1 12.7 152.2 12.2 C 152.2 12.2 152.2 12.2 152.2 12.2 Z M 73.9 3.5 C 72.7 3.5 72.5 3.6 71.6 3.6 C 71.9 3.7 74.4 3.6 73.9 3.5 C 73.9 3.5 73.9 3.5 73.9 3.5 Z M 151.8 37.3 C 151.8 37.2 151.8 36.4 151.8 36.4 C 151.9 37.8 151.9 36.2 152.1 37.3 C 152.0 35.5 151.8 34.9 151.7 37.4 C 151.7 39.1 151.8 35.5 151.8 37.3 C 151.8 37.3 151.8 37.3 151.8 37.3 Z M 151.8 31.9 C 151.8 30.8 151.8 33.6 151.7 34.2 C 151.7 34.2 151.7 34.2 151.6 34.2 C 151.8 35.7 151.8 33.6 152.0 35.0 C 152.0 33.2 152.1 32.4 152.0 30.9 C 152.0 31.0 152.0 31.4 152.0 31.3 C 152.0 32.5 151.9 31.8 151.9 30.5 C 151.9 30.9 151.9 32.0 151.9 32.8 C 151.9 32.5 151.9 32.3 152.0 32.3 C 152.0 33.3 151.9 32.9 151.9 33.6 C 151.9 33.7 151.8 31.9 151.8 31.9 C 151.8 31.9 151.8 31.9 151.8 31.9 Z M 133.1 102.3 C 134.0 102.3 132.0 102.1 131.9 102.0 C 131.0 102.0 130.8 102.0 130.1 102.0 C 130.5 102.1 131.6 102.1 132.1 102.2 C 132.0 102.3 130.6 102.1 130.3 102.2 C 129.8 102.3 132.6 102.2 133.1 102.3 C 133.1 102.3 133.1 102.3 133.1 102.3 Z M 139.3 3.7 C 138.8 3.7 139.0 3.7 139.2 3.7 C 139.1 3.8 138.3 3.8 138.4 3.7 C 137.6 3.7 138.7 3.8 137.9 3.8 C 137.6 3.8 139.1 3.8 139.2 3.8 C 140.2 3.8 139.3 3.9 139.6 3.9 C 140.5 3.9 140.2 3.8 141.4 3.8 C 140.7 3.8 140.1 3.7 139.3 3.7 C 139.3 3.7 139.3 3.7 139.3 3.7 Z M 152.0 40.4 C 152.0 40.6 151.8 39.4 151.9 38.2 C 151.9 36.6 151.8 39.2 151.8 37.8 C 151.8 39.0 151.9 40.4 151.9 42.3 C 151.9 42.7 151.9 39.7 151.9 41.4 C 152.0 41.3 151.9 40.9 151.9 40.9 C 151.9 40.5 151.9 40.5 152.0 40.4 C 152.0 40.4 152.0 40.4 152.0 40.4 Z M 151.7 38.7 C 151.7 38.8 151.7 39.2 151.7 39.2 C 151.7 39.7 151.7 39.8 151.7 39.2 C 151.6 40.0 151.7 39.9 151.7 41.4 C 151.8 40.7 151.8 40.4 151.7 41.8 C 151.8 43.0 151.8 39.2 151.7 38.7 C 151.7 38.7 151.7 38.7 151.7 38.7 Z M 147.5 102.2 C 147.4 102.2 146.4 102.2 145.7 102.2 C 146.5 102.1 150.2 102.2 150.7 102.2 C 151.1 102.2 151.5 102.2 151.7 102.2 C 151.6 102.2 151.8 102.2 151.9 102.2 C 151.9 101.9 151.9 101.6 151.8 101.9 C 151.8 101.8 151.8 101.0 151.8 101.0 C 151.8 99.7 151.8 101.5 151.9 101.1 C 151.8 99.4 151.9 99.8 151.9 97.9 C 151.8 98.2 151.8 100.3 151.7 100.0 C 151.8 100.7 151.8 101.4 151.8 102.0 C 150.9 102.0 150.2 102.0 149.6 101.9 C 151.1 102.1 145.9 102.1 143.4 102.1 C 143.4 102.1 142.5 102.1 141.5 102.0 C 140.7 101.9 141.1 102.1 142.4 102.1 C 142.4 102.2 140.5 102.1 139.7 102.1 C 140.7 102.2 140.2 102.2 140.7 102.2 C 142.5 102.2 140.9 102.2 141.1 102.1 C 141.6 102.1 142.0 102.1 142.5 102.1 C 140.3 102.3 146.0 102.2 143.9 102.2 C 145.7 102.2 145.9 102.3 147.5 102.2 C 147.5 102.2 147.5 102.2 147.5 102.2 Z M 152.0 64.0 C 151.9 63.7 151.9 62.2 152.0 62.2 C 151.9 60.3 151.8 62.0 151.8 59.9 C 151.8 60.0 151.8 60.8 151.7 60.8 C 151.8 61.6 151.8 62.4 151.9 62.2 C 151.9 63.1 151.9 63.4 151.9 64.0 C 151.9 63.8 151.9 63.4 151.9 62.6 C 151.8 62.5 151.7 62.8 151.7 64.0 C 151.8 64.5 151.9 64.2 152.0 64.0 C 152.0 64.0 152.0 64.0 152.0 64.0 Z M 151.8 59.5 C 151.9 59.2 151.9 59.0 151.9 59.0 C 152.0 58.4 151.8 58.7 151.8 58.1 C 151.8 57.6 151.9 57.7 151.9 57.7 C 151.9 56.9 151.9 56.2 151.9 55.8 C 151.9 54.6 151.8 57.2 151.8 57.6 C 151.8 58.5 151.9 58.2 151.8 59.5 C 151.8 59.5 151.8 59.5 151.8 59.5 Z M 151.9 45.9 C 152.0 45.6 151.9 45.2 151.9 44.5 C 151.8 45.0 151.9 46.3 151.7 45.5 C 151.7 46.8 151.7 46.9 151.7 48.2 C 151.7 49.0 151.8 48.2 151.8 46.8 C 151.8 47.0 151.8 47.6 151.9 47.7 C 151.7 48.6 152.0 50.9 151.8 49.5 C 151.9 49.1 151.9 48.8 151.9 48.6 C 151.9 48.3 151.9 45.2 151.9 45.9 C 151.9 45.9 151.9 45.9 151.9 45.9 Z M 148.7 3.9 C 150.3 3.9 150.5 3.9 151.8 3.9 C 151.8 4.0 151.8 4.2 151.8 4.3 C 151.8 4.4 151.8 4.3 151.8 3.9 C 151.7 4.4 151.8 4.9 151.8 5.7 C 151.8 5.6 151.8 5.2 151.8 5.3 C 151.8 3.7 151.8 5.0 151.9 5.1 C 151.9 4.6 152.0 4.2 151.9 3.8 C 150.8 3.8 149.7 3.8 149.2 3.8 C 148.5 3.8 149.3 3.8 148.7 3.9 C 148.7 3.9 148.7 3.9 148.7 3.9 Z M 38.9 102.1 C 38.6 102.2 37.9 102.2 38.0 102.2 C 38.7 102.2 39.2 102.2 39.8 102.2 C 38.5 102.1 38.7 102.0 37.0 102.0 C 37.6 102.0 37.5 102.1 38.9 102.1 C 38.9 102.1 38.9 102.1 38.9 102.1 Z M 151.9 50.4 C 151.9 50.5 151.8 50.5 151.8 50.0 C 151.7 49.8 151.8 51.3 151.7 51.3 C 151.7 51.8 151.8 51.6 151.8 52.2 C 151.8 52.0 151.8 50.8 151.9 51.3 C 151.9 51.7 151.9 51.7 151.9 51.8 C 151.9 52.7 151.9 51.3 151.9 50.4 C 151.9 50.4 151.9 50.4 151.9 50.4 Z M 128.5 102.2 C 129.1 102.2 128.4 102.1 127.9 102.1 C 129.2 102.0 127.0 102.0 126.8 101.9 C 127.5 102.0 129.2 101.9 129.6 101.9 C 130.1 101.9 129.4 101.8 130.9 101.8 C 130.6 101.7 129.1 101.8 129.5 101.9 C 129.0 101.8 127.6 101.9 127.6 101.8 C 125.6 101.8 125.2 101.8 125.1 101.9 C 127.0 101.9 126.1 102.1 127.8 102.0 C 127.9 102.1 127.3 102.1 127.0 102.1 C 127.2 102.1 127.9 102.1 128.5 102.2 C 128.5 102.2 128.5 102.2 128.5 102.2 Z M 151.9 78.5 C 151.9 77.5 151.8 77.5 151.7 77.5 C 151.8 77.9 151.8 78.5 151.8 79.3 C 151.8 79.1 151.8 77.9 151.9 78.5 C 151.9 78.5 151.9 78.5 151.9 78.5 Z M 135.6 102.1 C 135.7 102.1 136.1 102.1 136.1 102.1 C 137.2 102.1 137.5 102.1 138.0 102.2 C 138.6 102.1 138.3 102.1 138.3 102.0 C 137.3 102.1 137.4 102.0 136.0 102.0 C 136.1 102.0 136.0 102.1 135.6 102.1 C 135.6 102.1 135.6 102.1 135.6 102.1 Z M 151.8 87.9 C 151.8 87.4 151.8 87.6 151.8 87.9 C 151.7 87.2 151.8 85.4 151.7 84.7 C 151.7 84.6 151.7 86.9 151.7 84.2 C 151.6 84.6 151.6 87.0 151.6 88.2 C 151.5 87.9 151.6 86.3 151.4 86.3 C 151.5 87.7 151.6 89.3 151.7 89.6 C 151.7 87.6 151.8 88.4 151.8 87.9 C 151.8 87.9 151.8 87.9 151.8 87.9 Z M 151.8 90.1 C 151.8 90.0 151.8 89.5 151.8 88.8 C 151.7 89.8 151.7 90.5 151.7 92.8 C 151.7 92.8 151.7 92.8 151.7 92.8 C 151.7 93.3 151.7 93.8 151.7 94.2 C 151.8 92.3 151.8 91.8 151.7 89.7 C 151.8 89.6 151.8 89.9 151.8 90.1 C 151.8 90.1 151.8 90.1 151.8 90.1 Z M 151.8 29.6 C 151.7 30.3 151.7 30.8 151.7 31.9 C 151.7 31.8 151.8 31.1 151.8 29.6 C 151.8 29.6 151.8 29.6 151.8 29.6 Z M 133.8 102.0 C 132.6 102.1 134.9 102.0 134.1 101.9 C 133.1 101.9 132.0 101.8 131.7 101.8 C 130.0 101.9 133.9 101.9 133.8 102.0 C 133.8 102.0 133.8 102.0 133.8 102.0 Z M 141.7 101.8 C 142.2 101.8 142.4 101.9 141.8 101.9 C 140.5 101.9 142.9 101.9 140.9 101.9 C 141.8 102.0 143.7 102.0 144.6 101.9 C 144.5 101.9 142.8 101.9 142.7 101.8 C 142.5 101.8 142.8 101.8 143.1 101.8 C 142.8 101.7 142.5 101.8 141.7 101.8 C 141.7 101.8 141.7 101.8 141.7 101.8 Z M 148.7 101.9 C 147.9 101.9 146.9 101.8 145.4 101.9 C 146.5 101.9 147.1 102.0 148.7 101.9 C 148.7 101.9 148.7 101.9 148.7 101.9 Z M 62.9 101.8 C 64.0 101.8 62.9 101.7 62.8 101.7 C 61.7 101.7 61.8 101.8 60.5 101.7 C 61.0 101.8 62.1 101.7 62.9 101.8 C 62.9 101.8 62.9 101.8 62.9 101.8 Z M 58.8 101.8 C 58.6 101.7 57.0 101.7 56.9 101.7 C 56.1 101.9 54.5 101.6 54.6 101.7 C 54.3 101.7 53.9 101.7 53.3 101.7 C 54.6 101.8 57.4 101.8 58.8 101.8 C 58.8 101.8 58.8 101.8 58.8 101.8 Z M 151.5 97.1 C 151.5 95.9 151.3 97.3 151.4 96.1 C 151.3 96.0 151.3 98.3 151.3 96.9 C 151.2 98.7 151.4 96.9 151.5 97.1 C 151.5 97.1 151.5 97.1 151.5 97.1 Z M 151.4 75.1 C 151.5 75.2 151.4 73.5 151.4 72.9 C 151.4 72.8 151.4 73.4 151.4 73.7 C 151.4 73.5 151.3 73.3 151.3 72.8 C 151.3 73.1 151.4 74.4 151.4 75.1 C 151.4 75.1 151.4 75.1 151.4 75.1 Z M 153.0 100.8 C 153.0 101.5 152.9 102.4 153.0 103.1 C 153.0 103.2 153.0 103.2 153.0 103.3 C 152.8 103.2 152.9 103.2 152.9 103.2 C 153.0 103.2 153.1 103.2 152.9 103.2 C 152.8 103.2 152.7 103.1 152.6 103.1 C 151.3 103.2 151.9 103.1 149.8 103.1 C 150.1 103.0 148.6 103.0 148.3 103.0 C 149.1 102.9 150.3 103.1 150.6 103.0 C 149.9 103.0 150.2 102.9 150.6 102.9 C 152.0 103.0 149.0 103.0 150.7 103.1 C 150.9 103.0 151.8 103.1 152.8 103.1 C 152.9 102.3 152.9 101.5 152.9 100.7 C 153.0 101.4 153.0 99.6 153.0 100.8 C 153.0 100.8 153.0 100.8 153.0 100.8 Z M 147.1 103.1 C 146.0 103.1 145.2 103.0 145.6 103.0 C 145.6 103.0 146.8 103.0 146.9 103.0 C 146.6 103.0 146.4 103.0 146.4 102.9 C 148.5 102.9 147.8 103.0 148.4 103.1 C 147.3 103.1 146.9 103.1 146.6 103.1 C 146.9 103.1 147.1 103.1 147.1 103.1 C 147.1 103.1 147.1 103.1 147.1 103.1 Z M 121.6 101.6 C 121.9 101.7 122.1 101.6 122.5 101.6 C 122.7 101.7 124.9 101.6 125.3 101.6 C 124.8 101.7 123.6 101.7 123.1 101.7 C 123.7 101.7 123.9 101.8 124.5 101.7 C 124.4 101.8 123.1 101.8 122.8 101.9 C 122.6 101.8 122.0 101.9 121.8 101.9 C 123.5 101.8 120.6 101.6 121.6 101.6 C 121.6 101.6 121.6 101.6 121.6 101.6 Z M 151.4 86.7 C 151.3 86.5 151.0 88.2 150.9 86.4 C 151.0 86.1 151.1 85.9 151.2 86.1 C 151.2 85.0 151.2 84.6 151.1 83.9 C 151.4 82.0 151.1 85.4 151.4 86.7 C 151.4 86.7 151.4 86.7 151.4 86.7 Z M 151.3 79.5 C 151.4 79.9 151.3 78.9 151.4 79.1 C 151.4 79.9 151.4 82.8 151.4 81.8 C 151.4 80.9 151.3 80.8 151.3 79.5 C 151.3 79.5 151.3 79.5 151.3 79.5 Z M 41.1 3.6 C 42.5 3.6 43.4 3.7 42.6 3.8 C 42.9 3.7 40.7 3.7 41.1 3.6 C 41.1 3.6 41.1 3.6 41.1 3.6 Z M 94.2 2.2 C 92.8 2.1 92.1 2.2 91.9 2.1 C 93.2 2.1 93.1 2.1 94.2 2.1 C 94.3 2.1 95.0 2.1 95.1 2.1 C 94.5 2.1 94.6 2.2 94.2 2.2 C 94.2 2.2 94.2 2.2 94.2 2.2 Z M 153.4 52.2 C 153.4 52.1 153.5 51.5 153.5 51.7 C 153.5 53.2 153.6 54.8 153.6 55.9 C 153.6 55.9 153.5 55.9 153.5 55.9 C 153.5 53.7 153.5 53.1 153.4 52.2 C 153.4 52.2 153.4 52.2 153.4 52.2 Z M 153.6 49.4 C 153.5 49.1 153.4 49.9 153.4 48.9 C 153.5 49.0 153.6 47.2 153.6 48.0 C 153.5 48.3 153.5 48.7 153.6 49.4 C 153.6 49.4 153.6 49.4 153.6 49.4 Z M 129.5 103.4 C 128.4 103.4 130.0 103.5 130.0 103.5 C 129.2 103.5 128.1 103.5 127.7 103.4 C 128.5 103.5 129.0 103.3 129.5 103.4 C 129.5 103.4 129.5 103.4 129.5 103.4 Z M 146.2 103.2 C 148.6 103.2 147.7 103.3 150.0 103.4 C 149.2 103.4 147.0 103.4 146.5 103.5 C 146.5 103.4 145.9 103.4 145.9 103.4 C 146.8 103.3 146.9 103.4 147.8 103.4 C 147.4 103.3 147.4 103.3 147.6 103.2 C 147.0 103.2 146.6 103.2 146.3 103.3 C 146.4 103.2 145.5 103.2 146.2 103.2 C 146.2 103.2 146.2 103.2 146.2 103.2 Z M 129.7 103.1 C 128.8 103.2 127.9 103.0 128.7 103.1 C 128.9 103.1 129.4 103.0 129.7 103.1 C 128.3 103.1 130.8 103.1 130.2 103.2 C 129.4 103.2 129.2 103.2 129.4 103.3 C 128.9 103.3 128.1 103.3 128.0 103.3 C 128.3 103.3 128.9 103.3 128.9 103.2 C 128.6 103.2 128.3 103.2 128.4 103.2 C 129.2 103.2 129.5 103.2 129.7 103.1 C 129.7 103.1 129.7 103.1 129.7 103.1 Z M 136.1 103.1 C 134.8 103.1 134.6 103.1 134.1 103.0 C 135.9 103.0 136.2 103.1 137.5 103.2 C 136.1 103.2 134.8 103.3 134.3 103.2 C 134.9 103.2 136.1 103.2 136.1 103.1 C 136.1 103.1 136.1 103.1 136.1 103.1 Z M 2.0 83.3 C 2.1 82.2 2.2 81.3 2.2 80.1 C 2.1 79.7 1.9 81.9 2.0 81.0 C 2.0 79.7 2.1 80.6 2.1 79.6 C 2.0 80.6 2.0 75.3 2.1 75.1 C 2.1 75.9 2.1 76.2 2.2 76.0 C 2.2 78.1 2.3 79.0 2.3 80.6 C 2.2 81.7 2.1 85.1 2.3 87.0 C 2.1 88.1 2.3 90.3 2.1 92.0 C 2.2 92.4 2.2 90.6 2.3 92.0 C 2.2 92.9 2.1 92.2 2.1 93.4 C 2.1 93.4 2.2 93.2 2.2 93.8 C 2.1 93.7 2.1 94.5 2.1 94.7 C 2.1 92.2 2.0 94.9 2.0 92.9 C 2.0 92.1 2.1 93.8 2.1 91.5 C 2.1 90.7 2.0 90.0 2.0 90.1 C 2.0 89.5 1.9 89.1 1.9 88.7 C 2.0 89.6 1.9 85.6 2.0 87.4 C 2.0 87.5 2.0 88.8 2.0 89.7 C 2.1 88.9 2.1 87.9 2.0 86.5 C 2.1 85.9 2.1 86.8 2.2 86.1 C 2.1 84.9 2.0 86.4 2.0 85.6 C 2.0 85.9 2.0 86.5 2.0 86.5 C 2.0 84.6 1.9 83.8 2.0 82.8 C 2.0 83.5 2.0 81.7 2.0 83.3 C 2.0 83.3 2.0 83.3 2.0 83.3 Z M 2.2 99.8 C 2.2 100.2 2.2 100.7 2.2 101.2 C 2.1 101.3 2.1 99.5 2.0 100.7 C 2.0 98.7 2.1 100.8 2.2 99.8 C 2.2 99.8 2.2 99.8 2.2 99.8 Z M 2.5 90.7 C 2.6 90.0 2.4 90.4 2.4 89.7 C 2.4 90.9 2.4 91.9 2.3 92.0 C 2.3 90.7 2.3 90.1 2.3 88.8 C 2.4 90.1 2.4 87.4 2.5 87.0 C 2.5 88.0 2.6 88.8 2.6 90.2 C 2.5 90.0 2.5 92.0 2.5 90.7 C 2.5 90.7 2.5 90.7 2.5 90.7 Z M 2.6 94.3 C 2.5 94.6 2.6 96.6 2.5 96.1 C 2.5 95.0 2.5 94.5 2.4 94.8 C 2.4 93.9 2.4 93.7 2.4 92.9 C 2.5 92.5 2.5 93.9 2.6 94.3 C 2.6 94.1 2.6 93.8 2.6 94.3 C 2.6 94.3 2.6 94.3 2.6 94.3 Z M 28.4 101.8 C 28.8 101.9 26.9 101.9 26.6 101.9 C 27.1 101.9 26.8 102.0 25.7 102.0 C 26.1 101.9 24.4 101.9 23.4 101.8 C 23.2 101.9 24.5 101.9 22.9 101.9 C 21.7 101.9 20.7 102.0 18.9 102.0 C 18.5 101.9 19.3 101.9 19.7 101.8 C 18.5 101.8 18.9 101.8 17.9 101.8 C 18.1 101.8 17.4 101.8 17.0 101.8 C 18.6 101.8 14.9 101.7 16.6 101.6 C 16.7 101.7 17.1 101.7 17.5 101.6 C 17.0 101.8 19.2 101.7 19.7 101.8 C 20.6 101.6 23.0 101.7 25.7 101.7 C 25.8 101.8 25.0 101.8 25.7 101.8 C 25.8 101.8 26.6 101.8 27.0 101.8 C 27.0 101.8 27.4 101.8 27.9 101.8 C 28.0 101.8 28.0 101.8 28.4 101.8 C 28.4 101.8 28.4 101.8 28.4 101.8 Z M 3.0 9.2 C 3.2 9.4 3.1 6.4 3.1 5.6 C 3.2 5.9 3.2 10.9 3.0 9.2 C 3.0 9.2 3.0 9.2 3.0 9.2 Z M 3.2 26.9 C 3.2 26.2 3.1 26.6 3.1 26.0 C 3.2 26.0 3.0 24.1 3.1 24.2 C 3.1 25.1 3.1 25.6 3.2 26.9 C 3.2 26.9 3.2 26.9 3.2 26.9 Z M 3.1 43.2 C 3.1 41.9 3.1 43.9 3.0 43.6 C 3.0 42.5 3.0 41.3 3.1 41.4 C 3.1 42.4 3.2 43.1 3.1 43.2 C 3.1 43.2 3.1 43.2 3.1 43.2 Z M 3.2 18.9 C 3.3 17.8 3.4 19.7 3.3 19.8 C 3.3 18.6 3.2 20.6 3.3 21.6 C 3.2 21.5 3.2 21.0 3.1 21.4 C 3.0 19.8 3.2 21.3 3.2 20.1 C 3.1 19.3 3.1 20.2 3.1 20.0 C 3.1 19.6 3.1 19.2 3.1 18.7 C 3.1 18.8 3.2 18.8 3.2 18.9 C 3.2 19.4 3.2 19.9 3.3 19.8 C 3.3 19.3 3.2 19.2 3.2 18.9 C 3.2 18.9 3.2 18.9 3.2 18.9 Z M 4.8 101.6 C 4.1 101.6 4.7 101.7 5.2 101.7 C 5.4 101.7 5.8 101.5 6.6 101.6 C 4.8 101.7 7.1 101.7 6.2 101.8 C 5.8 101.7 4.7 101.8 3.9 101.8 C 3.5 101.7 4.4 101.6 4.8 101.6 C 4.8 101.6 4.8 101.6 4.8 101.6 Z M 8.0 101.7 C 7.9 101.7 7.6 101.7 7.1 101.7 C 7.6 101.6 6.8 101.6 7.5 101.6 C 7.4 101.6 9.8 101.6 8.4 101.6 C 7.2 101.6 8.8 101.7 9.4 101.7 C 8.7 101.7 7.6 101.8 7.5 101.7 C 7.8 101.7 8.1 101.7 8.0 101.7 C 8.0 101.7 8.0 101.7 8.0 101.7 Z M 37.4 101.6 C 37.5 101.5 36.7 101.5 36.5 101.5 C 38.8 101.5 40.8 101.5 41.9 101.5 C 40.8 101.5 40.9 101.6 41.5 101.6 C 40.3 101.6 40.1 101.7 39.7 101.6 C 40.6 101.5 38.8 101.6 37.4 101.6 C 37.4 101.6 37.4 101.6 37.4 101.6 Z M 37.4 101.6 " fill="#85878C"></path><g><clipPath id="clip-125"><path d="M -1.2 -0.2 L 268.1 -0.2 L 268.1 106.3 L -1.2 106.3 Z M -1.2 -0.2 "></path></clipPath><g clip-path="url(#clip-125)"><text xml:space="preserve" font-family="Helvetica-Light" font-size="37.0" fill="#000000" transform="matrix(1.00, 0.00, -0.00, -1.00, 24.0, 62.0)">R</text><text xml:space="preserve" font-family="Helvetica-Light" font-size="37.0" fill="#000000" transform="matrix(1.00, 0.00, -0.00, -1.00, 48.7, 62.0)">e</text><text xml:space="preserve" font-family="Helvetica-Light" font-size="37.0" fill="#000000" transform="matrix(1.00, 0.00, -0.00, -1.00, 69.3, 62.0)">d</text><text xml:space="preserve" font-family="Helvetica-Light" font-size="37.0" fill="#000000" transform="matrix(1.00, 0.00, -0.00, -1.00, 91.9, 62.0)">u</text><text xml:space="preserve" font-family="Helvetica-Light" font-size="37.0" fill="#000000" transform="matrix(1.00, 0.00, -0.00, -1.00, 112.4, 62.0)">x</text><text xml:space="preserve" font-family="Helvetica-Light" font-size="37.0" fill="#000000" transform="matrix(1.00, 0.00, -0.00, -1.00, 130.9, 62.0)"> </text><text xml:space="preserve" font-family="Helvetica-Light" font-size="37.0" fill="#000000" transform="matrix(1.00, 0.00, -0.00, -1.00, 9.0, 18.0)">w</text><text xml:space="preserve" font-family="Helvetica-Light" font-size="37.0" fill="#000000" transform="matrix(1.00, 0.00, -0.00, -1.00, 35.7, 18.0)">r</text><text xml:space="preserve" font-family="Helvetica-Light" font-size="37.0" fill="#000000" transform="matrix(1.00, 0.00, -0.00, -1.00, 48.0, 18.0)">a</text><text xml:space="preserve" font-family="Helvetica-Light" font-size="37.0" fill="#000000" transform="matrix(1.00, 0.00, -0.00, -1.00, 68.6, 18.0)">p</text><text xml:space="preserve" font-family="Helvetica-Light" font-size="37.0" fill="#000000" transform="matrix(1.00, 0.00, -0.00, -1.00, 91.2, 18.0)">p</text><text xml:space="preserve" font-family="Helvetica-Light" font-size="37.0" fill="#000000" transform="matrix(1.00, 0.00, -0.00, -1.00, 113.8, 18.0)">e</text><text xml:space="preserve" font-family="Helvetica-Light" font-size="37.0" fill="#000000" transform="matrix(1.00, 0.00, -0.00, -1.00, 134.4, 18.0)">r</text></g></g></g></svg>