<?xml version="1.0" encoding="UTF-8" standalone="no"?><svg xmlns="http://www.w3.org/2000/svg" xmlns:xlink="http://www.w3.org/1999/xlink" clip-rule="evenodd" stroke-miterlimit="4.00" viewBox="0 0 1024 768"><desc>SVG generated by Keynote</desc><defs><linearGradient id="gradSh1.30" x1="0.0" y1="0.0" x2="100.0" y2="0.0" gradientUnits="userSpaceOnUse" gradientTransform="matrix(-7.70, 0.00, 0.00, 0.14, 768.8, 4.5)"><stop offset="0.00000" stop-color="#FBFBFB"></stop><stop offset="0.01466" stop-color="#FAFAFA"></stop><stop offset="1.00000" stop-color="#BEBEBE"></stop></linearGradient></defs><g transform="matrix(1.00, 0.00, -0.00, -1.00, 0.0, 768.0)"><path d="M 0.0 768.0 L 1024.0 768.0 L 1024.0 0.0 L 0.0 0.0 Z M 0.0 768.0 " fill="#FEFFFF"></path><text xml:space="preserve" font-family="Helvetica-Light" font-size="36.0" fill="#000000" transform="matrix(1.00, 0.00, -0.00, -1.00, 41.0, 696.0)">П</text><text xml:space="preserve" font-family="Helvetica-Light" font-size="36.0" fill="#000000" transform="matrix(1.00, 0.00, -0.00, -1.00, 66.0, 696.0)">р</text><text xml:space="preserve" font-family="Helvetica-Light" font-size="36.0" fill="#000000" transform="matrix(1.00, 0.00, -0.00, -1.00, 86.6, 696.0)">е</text><text xml:space="preserve" font-family="Helvetica-Light" font-size="36.0" fill="#000000" transform="matrix(1.00, 0.00, -0.00, -1.00, 105.3, 696.0)">и</text><text xml:space="preserve" font-family="Helvetica-Light" font-size="36.0" fill="#000000" transform="matrix(1.00, 0.00, -0.00, -1.00, 124.9, 696.0)">м</text><text xml:space="preserve" font-family="Helvetica-Light" font-size="36.0" fill="#000000" transform="matrix(1.00, 0.00, -0.00, -1.00, 149.0, 696.0)">у</text><text xml:space="preserve" font-family="Helvetica-Light" font-size="36.0" fill="#000000" transform="matrix(1.00, 0.00, -0.00, -1.00, 165.6, 696.0)">щ</text><text xml:space="preserve" font-family="Helvetica-Light" font-size="36.0" fill="#000000" transform="matrix(1.00, 0.00, -0.00, -1.00, 194.7, 696.0)">е</text><text xml:space="preserve" font-family="Helvetica-Light" font-size="36.0" fill="#000000" transform="matrix(1.00, 0.00, -0.00, -1.00, 213.4, 696.0)">с</text><text xml:space="preserve" font-family="Helvetica-Light" font-size="36.0" fill="#000000" transform="matrix(1.00, 0.00, -0.00, -1.00, 232.1, 696.0)">т</text><text xml:space="preserve" font-family="Helvetica-Light" font-size="36.0" fill="#000000" transform="matrix(1.00, 0.00, -0.00, -1.00, 248.0, 696.0)">в</text><text xml:space="preserve" font-family="Helvetica-Light" font-size="36.0" fill="#000000" transform="matrix(1.00, 0.00, -0.00, -1.00, 266.6, 696.0)">а</text><text xml:space="preserve" font-family="Helvetica-Light" font-size="22.0" fill="#000000" transform="matrix(1.00, 0.00, -0.00, -1.00, 423.0, 511.0)">П</text><text xml:space="preserve" font-family="Helvetica-Light" font-size="22.0" fill="#000000" transform="matrix(1.00, 0.00, -0.00, -1.00, 438.3, 511.0)">р</text><text xml:space="preserve" font-family="Helvetica-Light" font-size="22.0" fill="#000000" transform="matrix(1.00, 0.00, -0.00, -1.00, 450.9, 511.0)">е</text><text xml:space="preserve" font-family="Helvetica-Light" font-size="22.0" fill="#000000" transform="matrix(1.00, 0.00, -0.00, -1.00, 462.3, 511.0)">д</text><text xml:space="preserve" font-family="Helvetica-Light" font-size="22.0" fill="#000000" transform="matrix(1.00, 0.00, -0.00, -1.00, 474.9, 511.0)">с</text><text xml:space="preserve" font-family="Helvetica-Light" font-size="22.0" fill="#000000" transform="matrix(1.00, 0.00, -0.00, -1.00, 486.3, 511.0)">к</text><text xml:space="preserve" font-family="Helvetica-Light" font-size="22.0" fill="#000000" transform="matrix(1.00, 0.00, -0.00, -1.00, 497.2, 511.0)">а</text><text xml:space="preserve" font-family="Helvetica-Light" font-size="22.0" fill="#000000" transform="matrix(1.00, 0.00, -0.00, -1.00, 508.6, 511.0)">з</text><text xml:space="preserve" font-family="Helvetica-Light" font-size="22.0" fill="#000000" transform="matrix(1.00, 0.00, -0.00, -1.00, 519.3, 511.0)">у</text><text xml:space="preserve" font-family="Helvetica-Light" font-size="22.0" fill="#000000" transform="matrix(1.00, 0.00, -0.00, -1.00, 529.5, 511.0)">е</text><text xml:space="preserve" font-family="Helvetica-Light" font-size="22.0" fill="#000000" transform="matrix(1.00, 0.00, -0.00, -1.00, 540.9, 511.0)">м</text><text xml:space="preserve" font-family="Helvetica-Light" font-size="22.0" fill="#000000" transform="matrix(1.00, 0.00, -0.00, -1.00, 555.6, 511.0)">о</text><text xml:space="preserve" font-family="Helvetica-Light" font-size="22.0" fill="#000000" transform="matrix(1.00, 0.00, -0.00, -1.00, 567.8, 511.0)">с</text><text xml:space="preserve" font-family="Helvetica-Light" font-size="22.0" fill="#000000" transform="matrix(1.00, 0.00, -0.00, -1.00, 579.3, 511.0)">т</text><text xml:space="preserve" font-family="Helvetica-Light" font-size="22.0" fill="#000000" transform="matrix(1.00, 0.00, -0.00, -1.00, 589.0, 511.0)">ь</text><image xlink:href="CBAAECAEE7964219B056C0FBAD57FF45.png" width="240.00" height="200.00" transform="matrix(1.00, 0.00, -0.00, -1.00, 392.0, 733.0)"></image><text xml:space="preserve" font-family="Helvetica-Light" font-size="18.0" fill="#000000" transform="matrix(1.00, 0.00, -0.00, -1.00, 501.0, 18.0)">1</text><text xml:space="preserve" font-family="Helvetica-Light" font-size="18.0" fill="#000000" transform="matrix(1.00, 0.00, -0.00, -1.00, 511.0, 18.0)">3</text><g><clipPath id="clip-132"><path d="M -0.2 -1.6 L 767.8 -1.6 L 767.8 10.5 L -0.2 10.5 L -0.2 -1.6 Z M -0.2 -1.6 "></path></clipPath><g clip-path="url(#clip-132)"><path d="M -0.2 -1.6 L 767.8 -1.6 L 767.8 10.5 L -0.2 10.5 L -0.2 -1.6 Z M -0.2 -1.6 " fill="url(#gradSh1.30)"></path></g></g></g></svg>