<?xml version="1.0" encoding="UTF-8" standalone="no"?><svg xmlns="http://www.w3.org/2000/svg" xmlns:xlink="http://www.w3.org/1999/xlink" clip-rule="evenodd" stroke-miterlimit="4.00" viewBox="0 0 194 32"><desc>SVG generated by Keynote</desc><defs></defs><g transform="matrix(1.00, 0.00, -0.00, -1.00, 0.0, 32.0)"><text xml:space="preserve" font-family="Helvetica-Light" font-size="37.0" fill="#000000" transform="matrix(1.00, 0.00, -0.00, -1.00, 0.0, 4.0)">m</text><text xml:space="preserve" font-family="Helvetica-Light" font-size="37.0" fill="#000000" transform="matrix(1.00, 0.00, -0.00, -1.00, 30.8, 4.0)">i</text><text xml:space="preserve" font-family="Helvetica-Light" font-size="37.0" fill="#000000" transform="matrix(1.00, 0.00, -0.00, -1.00, 39.0, 4.0)">d</text><text xml:space="preserve" font-family="Helvetica-Light" font-size="37.0" fill="#000000" transform="matrix(1.00, 0.00, -0.00, -1.00, 61.6, 4.0)">d</text><text xml:space="preserve" font-family="Helvetica-Light" font-size="37.0" fill="#000000" transform="matrix(1.00, 0.00, -0.00, -1.00, 84.2, 4.0)">l</text><text xml:space="preserve" font-family="Helvetica-Light" font-size="37.0" fill="#000000" transform="matrix(1.00, 0.00, -0.00, -1.00, 92.5, 4.0)">e</text><text xml:space="preserve" font-family="Helvetica-Light" font-size="37.0" fill="#000000" transform="matrix(1.00, 0.00, -0.00, -1.00, 113.0, 4.0)">w</text><text xml:space="preserve" font-family="Helvetica-Light" font-size="37.0" fill="#000000" transform="matrix(1.00, 0.00, -0.00, -1.00, 139.7, 4.0)">a</text><text xml:space="preserve" font-family="Helvetica-Light" font-size="37.0" fill="#000000" transform="matrix(1.00, 0.00, -0.00, -1.00, 160.3, 4.0)">r</text><text xml:space="preserve" font-family="Helvetica-Light" font-size="37.0" fill="#000000" transform="matrix(1.00, 0.00, -0.00, -1.00, 172.0, 4.0)">e</text></g></svg>