<?xml version="1.0" encoding="UTF-8" standalone="no"?><svg xmlns="http://www.w3.org/2000/svg" xmlns:xlink="http://www.w3.org/1999/xlink" clip-rule="evenodd" stroke-miterlimit="4.00" viewBox="0 0 1035 792"><desc>SVG generated by Keynote</desc><defs><linearGradient id="gradSh1.14" x1="0.0" y1="0.0" x2="100.0" y2="0.0" gradientUnits="userSpaceOnUse" gradientTransform="matrix(0.00, -7.82, -10.26, 0.00, 518.0, 789.1)"><stop offset="0.00000" stop-color="#FBFBFB"></stop><stop offset="0.01466" stop-color="#FAFAFA"></stop><stop offset="1.00000" stop-color="#BEBEBE"></stop></linearGradient></defs><g transform="matrix(1.00, 0.00, -0.00, -1.00, 0.0, 792.0)"><g><clipPath id="clip-59"><path d="M 1.0 0.9 L 1035.0 0.9 L 1035.0 791.1 L 1.0 791.1 Z M 1.0 0.9 "></path></clipPath><g clip-path="url(#clip-59)"><image xlink:href="7A499AAEA50BA9D9DACA8A8BC46DCA93.png" width="1032.00" height="788.00" transform="matrix(1.00, 0.00, -0.00, -1.00, 2.0, 790.1)" opacity="0.45"></image></g></g><g><clipPath id="clip-60"><path d="M 1.0 0.9 L 1035.0 0.9 L 1035.0 791.1 L 1.0 791.1 Z M 1.0 0.9 "></path></clipPath><g clip-path="url(#clip-60)"><g opacity="0.89"><g><clipPath id="clip-61"><path d="M 6.0 788.1 L 1030.0 788.1 L 1030.0 7.9 L 6.0 7.9 Z M 6.0 788.1 "></path></clipPath><g clip-path="url(#clip-61)"><g><clipPath id="clip-62"><path d="M 4.0 6.0 L 1031.0 6.0 L 1031.0 790.0 L 4.0 790.0 Z M 4.0 6.0 "></path></clipPath><g clip-path="url(#clip-62)"><path d="M 4.0 6.0 L 1031.0 6.0 L 1031.0 790.0 L 4.0 790.0 Z M 4.0 6.0 " fill="url(#gradSh1.14)"></path></g></g></g></g><g><clipPath id="clip-63"><path d="M 4.0 6.0 L 1031.0 6.0 L 1031.0 790.0 L 4.0 790.0 Z M 4.0 6.0 "></path></clipPath><g clip-path="url(#clip-63)"><path d="M 0.0 0.0 L 1024.0 0.0 L 1024.0 780.2 L 0.0 780.2 Z M 0.0 0.0 " fill="none" stroke="#85878C" stroke-width="2.00" transform="matrix(1.00, 0.00, 0.00, -1.00, 6.0, 788.1)"></path></g></g></g></g></g><g><clipPath id="clip-64"><path d="M 17.2 157.1 L 446.4 157.1 L 446.4 554.5 L 17.2 554.5 Z M 17.2 157.1 "></path></clipPath><g clip-path="url(#clip-64)"><path d="M 0.0 0.0 L 0.0 393.4 L 414.5 393.4 L 414.5 239.4 L 424.9 225.1 L 414.5 210.8 L 414.5 0.0 L 0.0 0.0 Z M 0.0 0.0 " fill="none" stroke="#85878C" stroke-width="2.00" transform="matrix(1.00, 0.00, 0.00, -1.00, 19.2, 552.5)"></path></g></g><g><clipPath id="clip-65"><path d="M 27.5 176.4 L 442.1 176.4 L 442.1 535.2 L 27.5 535.2 Z M 27.5 176.4 "></path></clipPath><g clip-path="url(#clip-65)"><text xml:space="preserve" font-family="CourierNewPS-ItalicMT" font-style="italic" font-size="20.0" fill="#959395" transform="matrix(1.00, 0.00, -0.00, -1.00, 33.0, 499.0)">/</text><text xml:space="preserve" font-family="CourierNewPS-ItalicMT" font-style="italic" font-size="20.0" fill="#959395" transform="matrix(1.00, 0.00, -0.00, -1.00, 45.0, 499.0)">/</text><text xml:space="preserve" font-family="CourierNewPS-ItalicMT" font-style="italic" font-size="20.0" fill="#959395" transform="matrix(1.00, 0.00, -0.00, -1.00, 57.0, 499.0)"> </text><text xml:space="preserve" font-family="CourierNewPS-ItalicMT" font-style="italic" font-size="20.0" fill="#959395" transform="matrix(1.00, 0.00, -0.00, -1.00, 69.0, 499.0)">s</text><text xml:space="preserve" font-family="CourierNewPS-ItalicMT" font-style="italic" font-size="20.0" fill="#959395" transform="matrix(1.00, 0.00, -0.00, -1.00, 81.0, 499.0)">t</text><text xml:space="preserve" font-family="CourierNewPS-ItalicMT" font-style="italic" font-size="20.0" fill="#959395" transform="matrix(1.00, 0.00, -0.00, -1.00, 93.0, 499.0)">a</text><text xml:space="preserve" font-family="CourierNewPS-ItalicMT" font-style="italic" font-size="20.0" fill="#959395" transform="matrix(1.00, 0.00, -0.00, -1.00, 105.0, 499.0)">t</text><text xml:space="preserve" font-family="CourierNewPS-ItalicMT" font-style="italic" font-size="20.0" fill="#959395" transform="matrix(1.00, 0.00, -0.00, -1.00, 117.0, 499.0)">e</text><text xml:space="preserve" font-family="CourierNewPS-ItalicMT" font-style="italic" font-size="20.0" fill="#959395" transform="matrix(1.00, 0.00, -0.00, -1.00, 129.0, 499.0)"> </text><text xml:space="preserve" font-family="CourierNewPS-ItalicMT" font-style="italic" font-size="20.0" fill="#959395" transform="matrix(1.00, 0.00, -0.00, -1.00, 141.0, 499.0)">=</text><text xml:space="preserve" font-family="CourierNewPS-ItalicMT" font-style="italic" font-size="20.0" fill="#959395" transform="matrix(1.00, 0.00, -0.00, -1.00, 153.0, 499.0)"> </text><text xml:space="preserve" font-family="CourierNewPS-ItalicMT" font-style="italic" font-size="20.0" fill="#959395" transform="matrix(1.00, 0.00, -0.00, -1.00, 165.0, 499.0)">[</text><text xml:space="preserve" font-family="CourierNewPS-ItalicMT" font-style="italic" font-size="20.0" fill="#959395" transform="matrix(1.00, 0.00, -0.00, -1.00, 177.0, 499.0)"> </text><text xml:space="preserve" font-family="CourierNewPS-ItalicMT" font-style="italic" font-size="20.0" fill="#959395" transform="matrix(1.00, 0.00, -0.00, -1.00, 33.0, 476.0)">/</text><text xml:space="preserve" font-family="CourierNewPS-ItalicMT" font-style="italic" font-size="20.0" fill="#959395" transform="matrix(1.00, 0.00, -0.00, -1.00, 45.0, 476.0)">/</text><text xml:space="preserve" font-family="CourierNewPS-ItalicMT" font-style="italic" font-size="20.0" fill="#959395" transform="matrix(1.00, 0.00, -0.00, -1.00, 57.0, 476.0)"> </text><text xml:space="preserve" font-family="CourierNewPS-ItalicMT" font-style="italic" font-size="20.0" fill="#959395" transform="matrix(1.00, 0.00, -0.00, -1.00, 69.0, 476.0)"> </text><text xml:space="preserve" font-family="CourierNewPS-ItalicMT" font-style="italic" font-size="20.0" fill="#959395" transform="matrix(1.00, 0.00, -0.00, -1.00, 81.0, 476.0)"> </text><text xml:space="preserve" font-family="CourierNewPS-ItalicMT" font-style="italic" font-size="20.0" fill="#959395" transform="matrix(1.00, 0.00, -0.00, -1.00, 93.0, 476.0)">‘</text><text xml:space="preserve" font-family="CourierNewPS-ItalicMT" font-style="italic" font-size="20.0" fill="#959395" transform="matrix(1.00, 0.00, -0.00, -1.00, 105.0, 476.0)">/</text><text xml:space="preserve" font-family="CourierNewPS-ItalicMT" font-style="italic" font-size="20.0" fill="#959395" transform="matrix(1.00, 0.00, -0.00, -1.00, 117.0, 476.0)">d</text><text xml:space="preserve" font-family="CourierNewPS-ItalicMT" font-style="italic" font-size="20.0" fill="#959395" transform="matrix(1.00, 0.00, -0.00, -1.00, 129.0, 476.0)">i</text><text xml:space="preserve" font-family="CourierNewPS-ItalicMT" font-style="italic" font-size="20.0" fill="#959395" transform="matrix(1.00, 0.00, -0.00, -1.00, 141.0, 476.0)">s</text><text xml:space="preserve" font-family="CourierNewPS-ItalicMT" font-style="italic" font-size="20.0" fill="#959395" transform="matrix(1.00, 0.00, -0.00, -1.00, 153.0, 476.0)">k</text><text xml:space="preserve" font-family="CourierNewPS-ItalicMT" font-style="italic" font-size="20.0" fill="#959395" transform="matrix(1.00, 0.00, -0.00, -1.00, 165.0, 476.0)">/</text><text xml:space="preserve" font-family="CourierNewPS-ItalicMT" font-style="italic" font-size="20.0" fill="#959395" transform="matrix(1.00, 0.00, -0.00, -1.00, 177.0, 476.0)">h</text><text xml:space="preserve" font-family="CourierNewPS-ItalicMT" font-style="italic" font-size="20.0" fill="#959395" transform="matrix(1.00, 0.00, -0.00, -1.00, 189.1, 476.0)">o</text><text xml:space="preserve" font-family="CourierNewPS-ItalicMT" font-style="italic" font-size="20.0" fill="#959395" transform="matrix(1.00, 0.00, -0.00, -1.00, 201.1, 476.0)">n</text><text xml:space="preserve" font-family="CourierNewPS-ItalicMT" font-style="italic" font-size="20.0" fill="#959395" transform="matrix(1.00, 0.00, -0.00, -1.00, 213.1, 476.0)">e</text><text xml:space="preserve" font-family="CourierNewPS-ItalicMT" font-style="italic" font-size="20.0" fill="#959395" transform="matrix(1.00, 0.00, -0.00, -1.00, 225.1, 476.0)">y</text><text xml:space="preserve" font-family="CourierNewPS-ItalicMT" font-style="italic" font-size="20.0" fill="#959395" transform="matrix(1.00, 0.00, -0.00, -1.00, 237.1, 476.0)">’</text><text xml:space="preserve" font-family="CourierNewPS-ItalicMT" font-style="italic" font-size="20.0" fill="#959395" transform="matrix(1.00, 0.00, -0.00, -1.00, 249.1, 476.0)">,</text><text xml:space="preserve" font-family="CourierNewPS-ItalicMT" font-style="italic" font-size="20.0" fill="#959395" transform="matrix(1.00, 0.00, -0.00, -1.00, 261.1, 476.0)"> </text><text xml:space="preserve" font-family="CourierNewPS-ItalicMT" font-style="italic" font-size="20.0" fill="#959395" transform="matrix(1.00, 0.00, -0.00, -1.00, 273.0, 476.0)"> </text><text xml:space="preserve" font-family="CourierNewPS-ItalicMT" font-style="italic" font-size="20.0" fill="#959395" transform="matrix(1.00, 0.00, -0.00, -1.00, 33.0, 453.0)">/</text><text xml:space="preserve" font-family="CourierNewPS-ItalicMT" font-style="italic" font-size="20.0" fill="#959395" transform="matrix(1.00, 0.00, -0.00, -1.00, 45.0, 453.0)">/</text><text xml:space="preserve" font-family="CourierNewPS-ItalicMT" font-style="italic" font-size="20.0" fill="#959395" transform="matrix(1.00, 0.00, -0.00, -1.00, 57.0, 453.0)"> </text><text xml:space="preserve" font-family="CourierNewPS-ItalicMT" font-style="italic" font-size="20.0" fill="#959395" transform="matrix(1.00, 0.00, -0.00, -1.00, 69.0, 453.0)"> </text><text xml:space="preserve" font-family="CourierNewPS-ItalicMT" font-style="italic" font-size="20.0" fill="#959395" transform="matrix(1.00, 0.00, -0.00, -1.00, 81.0, 453.0)"> </text><text xml:space="preserve" font-family="CourierNewPS-ItalicMT" font-style="italic" font-size="20.0" fill="#959395" transform="matrix(1.00, 0.00, -0.00, -1.00, 93.0, 453.0)">‘</text><text xml:space="preserve" font-family="CourierNewPS-ItalicMT" font-style="italic" font-size="20.0" fill="#959395" transform="matrix(1.00, 0.00, -0.00, -1.00, 105.0, 453.0)">/</text><text xml:space="preserve" font-family="CourierNewPS-ItalicMT" font-style="italic" font-size="20.0" fill="#959395" transform="matrix(1.00, 0.00, -0.00, -1.00, 117.0, 453.0)">d</text><text xml:space="preserve" font-family="CourierNewPS-ItalicMT" font-style="italic" font-size="20.0" fill="#959395" transform="matrix(1.00, 0.00, -0.00, -1.00, 129.0, 453.0)">i</text><text xml:space="preserve" font-family="CourierNewPS-ItalicMT" font-style="italic" font-size="20.0" fill="#959395" transform="matrix(1.00, 0.00, -0.00, -1.00, 141.0, 453.0)">s</text><text xml:space="preserve" font-family="CourierNewPS-ItalicMT" font-style="italic" font-size="20.0" fill="#959395" transform="matrix(1.00, 0.00, -0.00, -1.00, 153.0, 453.0)">k</text><text xml:space="preserve" font-family="CourierNewPS-ItalicMT" font-style="italic" font-size="20.0" fill="#959395" transform="matrix(1.00, 0.00, -0.00, -1.00, 165.0, 453.0)">/</text><text xml:space="preserve" font-family="CourierNewPS-ItalicMT" font-style="italic" font-size="20.0" fill="#959395" transform="matrix(1.00, 0.00, -0.00, -1.00, 177.0, 453.0)">b</text><text xml:space="preserve" font-family="CourierNewPS-ItalicMT" font-style="italic" font-size="20.0" fill="#959395" transform="matrix(1.00, 0.00, -0.00, -1.00, 189.1, 453.0)">i</text><text xml:space="preserve" font-family="CourierNewPS-ItalicMT" font-style="italic" font-size="20.0" fill="#959395" transform="matrix(1.00, 0.00, -0.00, -1.00, 201.1, 453.0)">r</text><text xml:space="preserve" font-family="CourierNewPS-ItalicMT" font-style="italic" font-size="20.0" fill="#959395" transform="matrix(1.00, 0.00, -0.00, -1.00, 213.1, 453.0)">t</text><text xml:space="preserve" font-family="CourierNewPS-ItalicMT" font-style="italic" font-size="20.0" fill="#959395" transform="matrix(1.00, 0.00, -0.00, -1.00, 225.1, 453.0)">h</text><text xml:space="preserve" font-family="CourierNewPS-ItalicMT" font-style="italic" font-size="20.0" fill="#959395" transform="matrix(1.00, 0.00, -0.00, -1.00, 237.1, 453.0)">d</text><text xml:space="preserve" font-family="CourierNewPS-ItalicMT" font-style="italic" font-size="20.0" fill="#959395" transform="matrix(1.00, 0.00, -0.00, -1.00, 249.1, 453.0)">a</text><text xml:space="preserve" font-family="CourierNewPS-ItalicMT" font-style="italic" font-size="20.0" fill="#959395" transform="matrix(1.00, 0.00, -0.00, -1.00, 261.1, 453.0)">y</text><text xml:space="preserve" font-family="CourierNewPS-ItalicMT" font-style="italic" font-size="20.0" fill="#959395" transform="matrix(1.00, 0.00, -0.00, -1.00, 273.1, 453.0)">/</text><text xml:space="preserve" font-family="CourierNewPS-ItalicMT" font-style="italic" font-size="20.0" fill="#959395" transform="matrix(1.00, 0.00, -0.00, -1.00, 285.0, 453.0)">‘</text><text xml:space="preserve" font-family="CourierNewPS-ItalicMT" font-style="italic" font-size="20.0" fill="#959395" transform="matrix(1.00, 0.00, -0.00, -1.00, 297.0, 453.0)"> </text><text xml:space="preserve" font-family="CourierNewPS-ItalicMT" font-style="italic" font-size="20.0" fill="#959395" transform="matrix(1.00, 0.00, -0.00, -1.00, 33.0, 430.0)">/</text><text xml:space="preserve" font-family="CourierNewPS-ItalicMT" font-style="italic" font-size="20.0" fill="#959395" transform="matrix(1.00, 0.00, -0.00, -1.00, 45.0, 430.0)">/</text><text xml:space="preserve" font-family="CourierNewPS-ItalicMT" font-style="italic" font-size="20.0" fill="#959395" transform="matrix(1.00, 0.00, -0.00, -1.00, 57.0, 430.0)"> </text><text xml:space="preserve" font-family="CourierNewPS-ItalicMT" font-style="italic" font-size="20.0" fill="#959395" transform="matrix(1.00, 0.00, -0.00, -1.00, 69.0, 430.0)">]</text><text xml:space="preserve" font-family="CourierNewPSMT" font-size="20.0" fill="#000000" transform="matrix(1.00, 0.00, -0.00, -1.00, 81.0, 430.0)"> </text><text xml:space="preserve" font-family="CourierNewPS-BoldMT" font-weight="bold" font-size="20.0" fill="#000000" transform="matrix(1.00, 0.00, -0.00, -1.00, 33.0, 407.0)">f</text><text xml:space="preserve" font-family="CourierNewPS-BoldMT" font-weight="bold" font-size="20.0" fill="#000000" transform="matrix(1.00, 0.00, -0.00, -1.00, 45.0, 407.0)">u</text><text xml:space="preserve" font-family="CourierNewPS-BoldMT" font-weight="bold" font-size="20.0" fill="#000000" transform="matrix(1.00, 0.00, -0.00, -1.00, 57.0, 407.0)">n</text><text xml:space="preserve" font-family="CourierNewPS-BoldMT" font-weight="bold" font-size="20.0" fill="#000000" transform="matrix(1.00, 0.00, -0.00, -1.00, 69.0, 407.0)">c</text><text xml:space="preserve" font-family="CourierNewPS-BoldMT" font-weight="bold" font-size="20.0" fill="#000000" transform="matrix(1.00, 0.00, -0.00, -1.00, 81.0, 407.0)">t</text><text xml:space="preserve" font-family="CourierNewPS-BoldMT" font-weight="bold" font-size="20.0" fill="#000000" transform="matrix(1.00, 0.00, -0.00, -1.00, 93.0, 407.0)">i</text><text xml:space="preserve" font-family="CourierNewPS-BoldMT" font-weight="bold" font-size="20.0" fill="#000000" transform="matrix(1.00, 0.00, -0.00, -1.00, 105.0, 407.0)">o</text><text xml:space="preserve" font-family="CourierNewPS-BoldMT" font-weight="bold" font-size="20.0" fill="#000000" transform="matrix(1.00, 0.00, -0.00, -1.00, 117.0, 407.0)">n</text><text xml:space="preserve" font-family="CourierNewPSMT" font-size="20.0" fill="#000000" transform="matrix(1.00, 0.00, -0.00, -1.00, 129.0, 407.0)"> </text><text xml:space="preserve" font-family="CourierNewPSMT" font-size="20.0" fill="#021993" transform="matrix(1.00, 0.00, -0.00, -1.00, 141.0, 407.0)">r</text><text xml:space="preserve" font-family="CourierNewPSMT" font-size="20.0" fill="#021993" transform="matrix(1.00, 0.00, -0.00, -1.00, 153.0, 407.0)">e</text><text xml:space="preserve" font-family="CourierNewPSMT" font-size="20.0" fill="#021993" transform="matrix(1.00, 0.00, -0.00, -1.00, 165.0, 407.0)">s</text><text xml:space="preserve" font-family="CourierNewPSMT" font-size="20.0" fill="#021993" transform="matrix(1.00, 0.00, -0.00, -1.00, 177.0, 407.0)">o</text><text xml:space="preserve" font-family="CourierNewPSMT" font-size="20.0" fill="#021993" transform="matrix(1.00, 0.00, -0.00, -1.00, 189.0, 407.0)">u</text><text xml:space="preserve" font-family="CourierNewPSMT" font-size="20.0" fill="#021993" transform="matrix(1.00, 0.00, -0.00, -1.00, 201.0, 407.0)">r</text><text xml:space="preserve" font-family="CourierNewPSMT" font-size="20.0" fill="#021993" transform="matrix(1.00, 0.00, -0.00, -1.00, 213.0, 407.0)">c</text><text xml:space="preserve" font-family="CourierNewPSMT" font-size="20.0" fill="#021993" transform="matrix(1.00, 0.00, -0.00, -1.00, 225.0, 407.0)">e</text><text xml:space="preserve" font-family="CourierNewPSMT" font-size="20.0" fill="#000000" transform="matrix(1.00, 0.00, -0.00, -1.00, 237.0, 407.0)">(</text><text xml:space="preserve" font-family="CourierNewPSMT" font-size="20.0" fill="#000000" transform="matrix(1.00, 0.00, -0.00, -1.00, 249.0, 407.0)">s</text><text xml:space="preserve" font-family="CourierNewPSMT" font-size="20.0" fill="#000000" transform="matrix(1.00, 0.00, -0.00, -1.00, 261.0, 407.0)">t</text><text xml:space="preserve" font-family="CourierNewPSMT" font-size="20.0" fill="#000000" transform="matrix(1.00, 0.00, -0.00, -1.00, 273.0, 407.0)">a</text><text xml:space="preserve" font-family="CourierNewPSMT" font-size="20.0" fill="#000000" transform="matrix(1.00, 0.00, -0.00, -1.00, 285.0, 407.0)">t</text><text xml:space="preserve" font-family="CourierNewPSMT" font-size="20.0" fill="#000000" transform="matrix(1.00, 0.00, -0.00, -1.00, 297.1, 407.0)">e</text><text xml:space="preserve" font-family="CourierNewPSMT" font-size="20.0" fill="#000000" transform="matrix(1.00, 0.00, -0.00, -1.00, 309.1, 407.0)">,</text><text xml:space="preserve" font-family="CourierNewPSMT" font-size="20.0" fill="#000000" transform="matrix(1.00, 0.00, -0.00, -1.00, 321.1, 407.0)"> </text><text xml:space="preserve" font-family="CourierNewPSMT" font-size="20.0" fill="#000000" transform="matrix(1.00, 0.00, -0.00, -1.00, 333.1, 407.0)">a</text><text xml:space="preserve" font-family="CourierNewPSMT" font-size="20.0" fill="#000000" transform="matrix(1.00, 0.00, -0.00, -1.00, 345.1, 407.0)">c</text><text xml:space="preserve" font-family="CourierNewPSMT" font-size="20.0" fill="#000000" transform="matrix(1.00, 0.00, -0.00, -1.00, 357.1, 407.0)">t</text><text xml:space="preserve" font-family="CourierNewPSMT" font-size="20.0" fill="#000000" transform="matrix(1.00, 0.00, -0.00, -1.00, 369.1, 407.0)">i</text><text xml:space="preserve" font-family="CourierNewPSMT" font-size="20.0" fill="#000000" transform="matrix(1.00, 0.00, -0.00, -1.00, 381.1, 407.0)">o</text><text xml:space="preserve" font-family="CourierNewPSMT" font-size="20.0" fill="#000000" transform="matrix(1.00, 0.00, -0.00, -1.00, 393.1, 407.0)">n</text><text xml:space="preserve" font-family="CourierNewPSMT" font-size="20.0" fill="#000000" transform="matrix(1.00, 0.00, -0.00, -1.00, 405.1, 407.0)">)</text><text xml:space="preserve" font-family="CourierNewPSMT" font-size="20.0" fill="#000000" transform="matrix(1.00, 0.00, -0.00, -1.00, 417.1, 407.0)">{</text><text xml:space="preserve" font-family="CourierNewPSMT" font-size="20.0" fill="#000000" transform="matrix(1.00, 0.00, -0.00, -1.00, 429.1, 407.0)"> </text><text xml:space="preserve" font-family="CourierNewPSMT" font-size="20.0" fill="#000000" transform="matrix(1.00, 0.00, -0.00, -1.00, 33.0, 384.0)"> </text><text xml:space="preserve" font-family="CourierNewPS-BoldMT" font-weight="bold" font-size="20.0" fill="#000000" transform="matrix(1.00, 0.00, -0.00, -1.00, 45.0, 384.0)">i</text><text xml:space="preserve" font-family="CourierNewPS-BoldMT" font-weight="bold" font-size="20.0" fill="#000000" transform="matrix(1.00, 0.00, -0.00, -1.00, 57.0, 384.0)">f</text><text xml:space="preserve" font-family="CourierNewPSMT" font-size="20.0" fill="#000000" transform="matrix(1.00, 0.00, -0.00, -1.00, 69.0, 384.0)"> </text><text xml:space="preserve" font-family="CourierNewPSMT" font-size="20.0" fill="#000000" transform="matrix(1.00, 0.00, -0.00, -1.00, 81.0, 384.0)">(</text><text xml:space="preserve" font-family="CourierNewPSMT" font-size="20.0" fill="#000000" transform="matrix(1.00, 0.00, -0.00, -1.00, 93.0, 384.0)">a</text><text xml:space="preserve" font-family="CourierNewPSMT" font-size="20.0" fill="#000000" transform="matrix(1.00, 0.00, -0.00, -1.00, 105.0, 384.0)">c</text><text xml:space="preserve" font-family="CourierNewPSMT" font-size="20.0" fill="#000000" transform="matrix(1.00, 0.00, -0.00, -1.00, 117.0, 384.0)">t</text><text xml:space="preserve" font-family="CourierNewPSMT" font-size="20.0" fill="#000000" transform="matrix(1.00, 0.00, -0.00, -1.00, 129.0, 384.0)">i</text><text xml:space="preserve" font-family="CourierNewPSMT" font-size="20.0" fill="#000000" transform="matrix(1.00, 0.00, -0.00, -1.00, 141.0, 384.0)">o</text><text xml:space="preserve" font-family="CourierNewPSMT" font-size="20.0" fill="#000000" transform="matrix(1.00, 0.00, -0.00, -1.00, 153.0, 384.0)">n</text><text xml:space="preserve" font-family="CourierNewPSMT" font-size="20.0" fill="#000000" transform="matrix(1.00, 0.00, -0.00, -1.00, 165.0, 384.0)">.</text><text xml:space="preserve" font-family="CourierNewPSMT" font-size="20.0" fill="#000000" transform="matrix(1.00, 0.00, -0.00, -1.00, 177.0, 384.0)">t</text><text xml:space="preserve" font-family="CourierNewPSMT" font-size="20.0" fill="#000000" transform="matrix(1.00, 0.00, -0.00, -1.00, 189.0, 384.0)">y</text><text xml:space="preserve" font-family="CourierNewPSMT" font-size="20.0" fill="#000000" transform="matrix(1.00, 0.00, -0.00, -1.00, 201.0, 384.0)">p</text><text xml:space="preserve" font-family="CourierNewPSMT" font-size="20.0" fill="#000000" transform="matrix(1.00, 0.00, -0.00, -1.00, 213.1, 384.0)">e</text><text xml:space="preserve" font-family="CourierNewPSMT" font-size="20.0" fill="#000000" transform="matrix(1.00, 0.00, -0.00, -1.00, 225.1, 384.0)"> </text><text xml:space="preserve" font-family="CourierNewPSMT" font-size="20.0" fill="#000000" transform="matrix(1.00, 0.00, -0.00, -1.00, 237.1, 384.0)">=</text><text xml:space="preserve" font-family="CourierNewPSMT" font-size="20.0" fill="#000000" transform="matrix(1.00, 0.00, -0.00, -1.00, 249.1, 384.0)">=</text><text xml:space="preserve" font-family="CourierNewPSMT" font-size="20.0" fill="#000000" transform="matrix(1.00, 0.00, -0.00, -1.00, 261.1, 384.0)">=</text><text xml:space="preserve" font-family="CourierNewPSMT" font-size="20.0" fill="#000000" transform="matrix(1.00, 0.00, -0.00, -1.00, 273.1, 384.0)"> </text><text xml:space="preserve" font-family="CourierNewPSMT" font-size="20.0" fill="#CC1C00" transform="matrix(1.00, 0.00, -0.00, -1.00, 285.0, 384.0)">‘</text><text xml:space="preserve" font-family="CourierNewPSMT" font-size="20.0" fill="#CC1C00" transform="matrix(1.00, 0.00, -0.00, -1.00, 297.0, 384.0)">A</text><text xml:space="preserve" font-family="CourierNewPSMT" font-size="20.0" fill="#CC1C00" transform="matrix(1.00, 0.00, -0.00, -1.00, 309.0, 384.0)">D</text><text xml:space="preserve" font-family="CourierNewPSMT" font-size="20.0" fill="#CC1C00" transform="matrix(1.00, 0.00, -0.00, -1.00, 321.1, 384.0)">D</text><text xml:space="preserve" font-family="CourierNewPSMT" font-size="20.0" fill="#CC1C00" transform="matrix(1.00, 0.00, -0.00, -1.00, 333.1, 384.0)">’</text><text xml:space="preserve" font-family="CourierNewPSMT" font-size="20.0" fill="#000000" transform="matrix(1.00, 0.00, -0.00, -1.00, 345.1, 384.0)">)</text><text xml:space="preserve" font-family="CourierNewPSMT" font-size="20.0" fill="#000000" transform="matrix(1.00, 0.00, -0.00, -1.00, 357.1, 384.0)"> </text><text xml:space="preserve" font-family="CourierNewPSMT" font-size="20.0" fill="#000000" transform="matrix(1.00, 0.00, -0.00, -1.00, 369.1, 384.0)">{</text><text xml:space="preserve" font-family="CourierNewPSMT" font-size="20.0" fill="#000000" transform="matrix(1.00, 0.00, -0.00, -1.00, 381.1, 384.0)"> </text><text xml:space="preserve" font-family="CourierNewPSMT" font-size="20.0" fill="#000000" transform="matrix(1.00, 0.00, -0.00, -1.00, 33.0, 361.0)"> </text><text xml:space="preserve" font-family="CourierNewPSMT" font-size="20.0" fill="#000000" transform="matrix(1.00, 0.00, -0.00, -1.00, 45.0, 361.0)"> </text><text xml:space="preserve" font-family="CourierNewPSMT" font-size="20.0" fill="#000000" transform="matrix(1.00, 0.00, -0.00, -1.00, 57.0, 361.0)"> </text><text xml:space="preserve" font-family="CourierNewPS-BoldMT" font-weight="bold" font-size="20.0" fill="#000000" transform="matrix(1.00, 0.00, -0.00, -1.00, 69.0, 361.0)">r</text><text xml:space="preserve" font-family="CourierNewPS-BoldMT" font-weight="bold" font-size="20.0" fill="#000000" transform="matrix(1.00, 0.00, -0.00, -1.00, 81.0, 361.0)">e</text><text xml:space="preserve" font-family="CourierNewPS-BoldMT" font-weight="bold" font-size="20.0" fill="#000000" transform="matrix(1.00, 0.00, -0.00, -1.00, 93.0, 361.0)">t</text><text xml:space="preserve" font-family="CourierNewPS-BoldMT" font-weight="bold" font-size="20.0" fill="#000000" transform="matrix(1.00, 0.00, -0.00, -1.00, 105.0, 361.0)">u</text><text xml:space="preserve" font-family="CourierNewPS-BoldMT" font-weight="bold" font-size="20.0" fill="#000000" transform="matrix(1.00, 0.00, -0.00, -1.00, 117.0, 361.0)">r</text><text xml:space="preserve" font-family="CourierNewPS-BoldMT" font-weight="bold" font-size="20.0" fill="#000000" transform="matrix(1.00, 0.00, -0.00, -1.00, 129.0, 361.0)">n</text><text xml:space="preserve" font-family="CourierNewPSMT" font-size="20.0" fill="#000000" transform="matrix(1.00, 0.00, -0.00, -1.00, 141.0, 361.0)"> </text><text xml:space="preserve" font-family="CourierNewPSMT" font-size="20.0" fill="#000000" transform="matrix(1.00, 0.00, -0.00, -1.00, 153.0, 361.0)">s</text><text xml:space="preserve" font-family="CourierNewPSMT" font-size="20.0" fill="#000000" transform="matrix(1.00, 0.00, -0.00, -1.00, 165.0, 361.0)">t</text><text xml:space="preserve" font-family="CourierNewPSMT" font-size="20.0" fill="#000000" transform="matrix(1.00, 0.00, -0.00, -1.00, 177.0, 361.0)">a</text><text xml:space="preserve" font-family="CourierNewPSMT" font-size="20.0" fill="#000000" transform="matrix(1.00, 0.00, -0.00, -1.00, 189.0, 361.0)">t</text><text xml:space="preserve" font-family="CourierNewPSMT" font-size="20.0" fill="#000000" transform="matrix(1.00, 0.00, -0.00, -1.00, 201.0, 361.0)">e</text><text xml:space="preserve" font-family="CourierNewPSMT" font-size="20.0" fill="#000000" transform="matrix(1.00, 0.00, -0.00, -1.00, 213.0, 361.0)">.</text><text xml:space="preserve" font-family="CourierNewPSMT" font-size="20.0" fill="#021993" transform="matrix(1.00, 0.00, -0.00, -1.00, 225.0, 361.0)">c</text><text xml:space="preserve" font-family="CourierNewPSMT" font-size="20.0" fill="#021993" transform="matrix(1.00, 0.00, -0.00, -1.00, 237.0, 361.0)">o</text><text xml:space="preserve" font-family="CourierNewPSMT" font-size="20.0" fill="#021993" transform="matrix(1.00, 0.00, -0.00, -1.00, 249.0, 361.0)">n</text><text xml:space="preserve" font-family="CourierNewPSMT" font-size="20.0" fill="#021993" transform="matrix(1.00, 0.00, -0.00, -1.00, 261.0, 361.0)">c</text><text xml:space="preserve" font-family="CourierNewPSMT" font-size="20.0" fill="#021993" transform="matrix(1.00, 0.00, -0.00, -1.00, 273.0, 361.0)">a</text><text xml:space="preserve" font-family="CourierNewPSMT" font-size="20.0" fill="#021993" transform="matrix(1.00, 0.00, -0.00, -1.00, 285.1, 361.0)">t</text><text xml:space="preserve" font-family="CourierNewPSMT" font-size="20.0" fill="#000000" transform="matrix(1.00, 0.00, -0.00, -1.00, 297.0, 361.0)">(</text><text xml:space="preserve" font-family="CourierNewPSMT" font-size="20.0" fill="#000000" transform="matrix(1.00, 0.00, -0.00, -1.00, 309.0, 361.0)"> </text><text xml:space="preserve" font-family="CourierNewPSMT" font-size="20.0" fill="#000000" transform="matrix(1.00, 0.00, -0.00, -1.00, 33.0, 338.0)"> </text><text xml:space="preserve" font-family="CourierNewPSMT" font-size="20.0" fill="#000000" transform="matrix(1.00, 0.00, -0.00, -1.00, 45.0, 338.0)"> </text><text xml:space="preserve" font-family="CourierNewPSMT" font-size="20.0" fill="#000000" transform="matrix(1.00, 0.00, -0.00, -1.00, 57.0, 338.0)"> </text><text xml:space="preserve" font-family="CourierNewPSMT" font-size="20.0" fill="#000000" transform="matrix(1.00, 0.00, -0.00, -1.00, 69.0, 338.0)"> </text><text xml:space="preserve" font-family="CourierNewPSMT" font-size="20.0" fill="#000000" transform="matrix(1.00, 0.00, -0.00, -1.00, 81.0, 338.0)"> </text><text xml:space="preserve" font-family="CourierNewPSMT" font-size="20.0" fill="#000000" transform="matrix(1.00, 0.00, -0.00, -1.00, 93.0, 338.0)">a</text><text xml:space="preserve" font-family="CourierNewPSMT" font-size="20.0" fill="#000000" transform="matrix(1.00, 0.00, -0.00, -1.00, 105.0, 338.0)">c</text><text xml:space="preserve" font-family="CourierNewPSMT" font-size="20.0" fill="#000000" transform="matrix(1.00, 0.00, -0.00, -1.00, 117.0, 338.0)">t</text><text xml:space="preserve" font-family="CourierNewPSMT" font-size="20.0" fill="#000000" transform="matrix(1.00, 0.00, -0.00, -1.00, 129.0, 338.0)">i</text><text xml:space="preserve" font-family="CourierNewPSMT" font-size="20.0" fill="#000000" transform="matrix(1.00, 0.00, -0.00, -1.00, 141.0, 338.0)">o</text><text xml:space="preserve" font-family="CourierNewPSMT" font-size="20.0" fill="#000000" transform="matrix(1.00, 0.00, -0.00, -1.00, 153.0, 338.0)">n</text><text xml:space="preserve" font-family="CourierNewPSMT" font-size="20.0" fill="#000000" transform="matrix(1.00, 0.00, -0.00, -1.00, 165.0, 338.0)">.</text><text xml:space="preserve" font-family="CourierNewPSMT" font-size="20.0" fill="#000000" transform="matrix(1.00, 0.00, -0.00, -1.00, 177.0, 338.0)">p</text><text xml:space="preserve" font-family="CourierNewPSMT" font-size="20.0" fill="#000000" transform="matrix(1.00, 0.00, -0.00, -1.00, 189.1, 338.0)">a</text><text xml:space="preserve" font-family="CourierNewPSMT" font-size="20.0" fill="#000000" transform="matrix(1.00, 0.00, -0.00, -1.00, 201.1, 338.0)">y</text><text xml:space="preserve" font-family="CourierNewPSMT" font-size="20.0" fill="#000000" transform="matrix(1.00, 0.00, -0.00, -1.00, 213.1, 338.0)">l</text><text xml:space="preserve" font-family="CourierNewPSMT" font-size="20.0" fill="#000000" transform="matrix(1.00, 0.00, -0.00, -1.00, 225.1, 338.0)">o</text><text xml:space="preserve" font-family="CourierNewPSMT" font-size="20.0" fill="#000000" transform="matrix(1.00, 0.00, -0.00, -1.00, 237.1, 338.0)">a</text><text xml:space="preserve" font-family="CourierNewPSMT" font-size="20.0" fill="#000000" transform="matrix(1.00, 0.00, -0.00, -1.00, 249.1, 338.0)">d</text><text xml:space="preserve" font-family="CourierNewPSMT" font-size="20.0" fill="#000000" transform="matrix(1.00, 0.00, -0.00, -1.00, 261.1, 338.0)">.</text><text xml:space="preserve" font-family="CourierNewPSMT" font-size="20.0" fill="#000000" transform="matrix(1.00, 0.00, -0.00, -1.00, 273.1, 338.0)">i</text><text xml:space="preserve" font-family="CourierNewPSMT" font-size="20.0" fill="#000000" transform="matrix(1.00, 0.00, -0.00, -1.00, 285.1, 338.0)">d</text><text xml:space="preserve" font-family="CourierNewPSMT" font-size="20.0" fill="#000000" transform="matrix(1.00, 0.00, -0.00, -1.00, 297.0, 338.0)"> </text><text xml:space="preserve" font-family="CourierNewPSMT" font-size="20.0" fill="#000000" transform="matrix(1.00, 0.00, -0.00, -1.00, 33.0, 315.0)"> </text><text xml:space="preserve" font-family="CourierNewPSMT" font-size="20.0" fill="#000000" transform="matrix(1.00, 0.00, -0.00, -1.00, 45.0, 315.0)"> </text><text xml:space="preserve" font-family="CourierNewPSMT" font-size="20.0" fill="#000000" transform="matrix(1.00, 0.00, -0.00, -1.00, 57.0, 315.0)"> </text><text xml:space="preserve" font-family="CourierNewPSMT" font-size="20.0" fill="#000000" transform="matrix(1.00, 0.00, -0.00, -1.00, 69.0, 315.0)">)</text><text xml:space="preserve" font-family="CourierNewPSMT" font-size="20.0" fill="#000000" transform="matrix(1.00, 0.00, -0.00, -1.00, 81.0, 315.0)">;</text><text xml:space="preserve" font-family="CourierNewPSMT" font-size="20.0" fill="#000000" transform="matrix(1.00, 0.00, -0.00, -1.00, 93.0, 315.0)"> </text><text xml:space="preserve" font-family="CourierNewPSMT" font-size="20.0" fill="#000000" transform="matrix(1.00, 0.00, -0.00, -1.00, 33.0, 292.0)"> </text><text xml:space="preserve" font-family="CourierNewPSMT" font-size="20.0" fill="#000000" transform="matrix(1.00, 0.00, -0.00, -1.00, 45.0, 292.0)">}</text><text xml:space="preserve" font-family="CourierNewPSMT" font-size="20.0" fill="#000000" transform="matrix(1.00, 0.00, -0.00, -1.00, 57.0, 292.0)"> </text><text xml:space="preserve" font-family="CourierNewPSMT" font-size="20.0" fill="#000000" transform="matrix(1.00, 0.00, -0.00, -1.00, 33.0, 269.0)"> </text><text xml:space="preserve" font-family="CourierNewPSMT" font-size="20.0" fill="#000000" transform="matrix(1.00, 0.00, -0.00, -1.00, 45.0, 269.0)"> </text><text xml:space="preserve" font-family="CourierNewPSMT" font-size="20.0" fill="#000000" transform="matrix(1.00, 0.00, -0.00, -1.00, 57.0, 269.0)"> </text><text xml:space="preserve" font-family="CourierNewPSMT" font-size="20.0" fill="#000000" transform="matrix(1.00, 0.00, -0.00, -1.00, 69.0, 269.0)"> </text><text xml:space="preserve" font-family="CourierNewPSMT" font-size="20.0" fill="#000000" transform="matrix(1.00, 0.00, -0.00, -1.00, 81.0, 269.0)"> </text><text xml:space="preserve" font-family="CourierNewPSMT" font-size="20.0" fill="#000000" transform="matrix(1.00, 0.00, -0.00, -1.00, 33.0, 246.0)"> </text><text xml:space="preserve" font-family="CourierNewPS-BoldMT" font-weight="bold" font-size="20.0" fill="#000000" transform="matrix(1.00, 0.00, -0.00, -1.00, 45.0, 246.0)">r</text><text xml:space="preserve" font-family="CourierNewPS-BoldMT" font-weight="bold" font-size="20.0" fill="#000000" transform="matrix(1.00, 0.00, -0.00, -1.00, 57.0, 246.0)">e</text><text xml:space="preserve" font-family="CourierNewPS-BoldMT" font-weight="bold" font-size="20.0" fill="#000000" transform="matrix(1.00, 0.00, -0.00, -1.00, 69.0, 246.0)">t</text><text xml:space="preserve" font-family="CourierNewPS-BoldMT" font-weight="bold" font-size="20.0" fill="#000000" transform="matrix(1.00, 0.00, -0.00, -1.00, 81.0, 246.0)">u</text><text xml:space="preserve" font-family="CourierNewPS-BoldMT" font-weight="bold" font-size="20.0" fill="#000000" transform="matrix(1.00, 0.00, -0.00, -1.00, 93.0, 246.0)">r</text><text xml:space="preserve" font-family="CourierNewPS-BoldMT" font-weight="bold" font-size="20.0" fill="#000000" transform="matrix(1.00, 0.00, -0.00, -1.00, 105.0, 246.0)">n</text><text xml:space="preserve" font-family="CourierNewPSMT" font-size="20.0" fill="#000000" transform="matrix(1.00, 0.00, -0.00, -1.00, 117.0, 246.0)"> </text><text xml:space="preserve" font-family="CourierNewPSMT" font-size="20.0" fill="#000000" transform="matrix(1.00, 0.00, -0.00, -1.00, 129.0, 246.0)">s</text><text xml:space="preserve" font-family="CourierNewPSMT" font-size="20.0" fill="#000000" transform="matrix(1.00, 0.00, -0.00, -1.00, 141.0, 246.0)">t</text><text xml:space="preserve" font-family="CourierNewPSMT" font-size="20.0" fill="#000000" transform="matrix(1.00, 0.00, -0.00, -1.00, 153.0, 246.0)">a</text><text xml:space="preserve" font-family="CourierNewPSMT" font-size="20.0" fill="#000000" transform="matrix(1.00, 0.00, -0.00, -1.00, 165.0, 246.0)">t</text><text xml:space="preserve" font-family="CourierNewPSMT" font-size="20.0" fill="#000000" transform="matrix(1.00, 0.00, -0.00, -1.00, 177.0, 246.0)">e</text><text xml:space="preserve" font-family="CourierNewPSMT" font-size="20.0" fill="#000000" transform="matrix(1.00, 0.00, -0.00, -1.00, 189.0, 246.0)">;</text><text xml:space="preserve" font-family="CourierNewPSMT" font-size="20.0" fill="#000000" transform="matrix(1.00, 0.00, -0.00, -1.00, 201.0, 246.0)"> </text><text xml:space="preserve" font-family="CourierNewPSMT" font-size="20.0" fill="#000000" transform="matrix(1.00, 0.00, -0.00, -1.00, 33.0, 223.0)">}</text><text xml:space="preserve" font-family="CourierNewPSMT" font-size="20.0" fill="#000000" transform="matrix(1.00, 0.00, -0.00, -1.00, 45.0, 223.0)"> </text></g></g></g></svg>