<?xml version="1.0" encoding="UTF-8" standalone="no"?><svg xmlns="http://www.w3.org/2000/svg" xmlns:xlink="http://www.w3.org/1999/xlink" clip-rule="evenodd" stroke-miterlimit="4.00" viewBox="0 0 1024 768"><desc>SVG generated by Keynote</desc><defs><linearGradient id="gradSh1.1" x1="0.0" y1="0.0" x2="100.0" y2="0.0" gradientUnits="userSpaceOnUse" gradientTransform="matrix(-0.66, 0.00, 0.00, 0.14, 64.8, 4.5)"><stop offset="0.00000" stop-color="#FBFBFB"></stop><stop offset="0.01466" stop-color="#FAFAFA"></stop><stop offset="1.00000" stop-color="#BEBEBE"></stop></linearGradient></defs><g transform="matrix(1.00, 0.00, -0.00, -1.00, 0.0, 768.0)"><path d="M 0.0 768.0 L 1024.0 768.0 L 1024.0 0.0 L 0.0 0.0 Z M 0.0 768.0 " fill="#FEFFFF"></path><text xml:space="preserve" font-family="Helvetica-Light" font-size="54.0" fill="#000000" transform="matrix(1.00, 0.00, -0.00, -1.00, 271.0, 482.0)">О</text><text xml:space="preserve" font-family="Helvetica-Light" font-size="54.0" fill="#000000" transform="matrix(1.00, 0.00, -0.00, -1.00, 311.0, 482.0)">б</text><text xml:space="preserve" font-family="Helvetica-Light" font-size="54.0" fill="#000000" transform="matrix(1.00, 0.00, -0.00, -1.00, 341.0, 482.0)">з</text><text xml:space="preserve" font-family="Helvetica-Light" font-size="54.0" fill="#000000" transform="matrix(1.00, 0.00, -0.00, -1.00, 367.2, 482.0)">о</text><text xml:space="preserve" font-family="Helvetica-Light" font-size="54.0" fill="#000000" transform="matrix(1.00, 0.00, -0.00, -1.00, 397.3, 482.0)">р</text><text xml:space="preserve" font-family="Helvetica-Light" font-size="54.0" fill="#000000" transform="matrix(1.00, 0.00, -0.00, -1.00, 428.2, 482.0)"> </text><text xml:space="preserve" font-family="Helvetica-Light" font-size="54.0" fill="#000000" transform="matrix(1.00, 0.00, -0.00, -1.00, 443.3, 482.0)">а</text><text xml:space="preserve" font-family="Helvetica-Light" font-size="54.0" fill="#000000" transform="matrix(1.00, 0.00, -0.00, -1.00, 471.3, 482.0)">р</text><text xml:space="preserve" font-family="Helvetica-Light" font-size="54.0" fill="#000000" transform="matrix(1.00, 0.00, -0.00, -1.00, 502.3, 482.0)">х</text><text xml:space="preserve" font-family="Helvetica-Light" font-size="54.0" fill="#000000" transform="matrix(1.00, 0.00, -0.00, -1.00, 528.3, 482.0)">и</text><text xml:space="preserve" font-family="Helvetica-Light" font-size="54.0" fill="#000000" transform="matrix(1.00, 0.00, -0.00, -1.00, 557.6, 482.0)">т</text><text xml:space="preserve" font-family="Helvetica-Light" font-size="54.0" fill="#000000" transform="matrix(1.00, 0.00, -0.00, -1.00, 581.6, 482.0)">е</text><text xml:space="preserve" font-family="Helvetica-Light" font-size="54.0" fill="#000000" transform="matrix(1.00, 0.00, -0.00, -1.00, 609.6, 482.0)">к</text><text xml:space="preserve" font-family="Helvetica-Light" font-size="54.0" fill="#000000" transform="matrix(1.00, 0.00, -0.00, -1.00, 636.5, 482.0)">т</text><text xml:space="preserve" font-family="Helvetica-Light" font-size="54.0" fill="#000000" transform="matrix(1.00, 0.00, -0.00, -1.00, 660.4, 482.0)">у</text><text xml:space="preserve" font-family="Helvetica-Light" font-size="54.0" fill="#000000" transform="matrix(1.00, 0.00, -0.00, -1.00, 685.4, 482.0)">р</text><text xml:space="preserve" font-family="Helvetica-Light" font-size="54.0" fill="#000000" transform="matrix(1.00, 0.00, -0.00, -1.00, 716.4, 482.0)">ы</text><text xml:space="preserve" font-family="Helvetica-Light" font-size="54.0" fill="#000000" transform="matrix(1.00, 0.00, -0.00, -1.00, 752.6, 482.0)"> </text><text xml:space="preserve" font-family="Helvetica-Light" font-size="54.0" fill="#000000" transform="matrix(1.00, 0.00, -0.00, -1.00, 329.0, 378.0)">П</text><text xml:space="preserve" font-family="Helvetica-Light" font-size="54.0" fill="#000000" transform="matrix(1.00, 0.00, -0.00, -1.00, 366.5, 378.0)">р</text><text xml:space="preserve" font-family="Helvetica-Light" font-size="54.0" fill="#000000" transform="matrix(1.00, 0.00, -0.00, -1.00, 397.5, 378.0)">е</text><text xml:space="preserve" font-family="Helvetica-Light" font-size="54.0" fill="#000000" transform="matrix(1.00, 0.00, -0.00, -1.00, 425.5, 378.0)">и</text><text xml:space="preserve" font-family="Helvetica-Light" font-size="54.0" fill="#000000" transform="matrix(1.00, 0.00, -0.00, -1.00, 454.9, 378.0)">м</text><text xml:space="preserve" font-family="Helvetica-Light" font-size="54.0" fill="#000000" transform="matrix(1.00, 0.00, -0.00, -1.00, 490.9, 378.0)">у</text><text xml:space="preserve" font-family="Helvetica-Light" font-size="54.0" fill="#000000" transform="matrix(1.00, 0.00, -0.00, -1.00, 515.9, 378.0)">щ</text><text xml:space="preserve" font-family="Helvetica-Light" font-size="54.0" fill="#000000" transform="matrix(1.00, 0.00, -0.00, -1.00, 559.6, 378.0)">е</text><text xml:space="preserve" font-family="Helvetica-Light" font-size="54.0" fill="#000000" transform="matrix(1.00, 0.00, -0.00, -1.00, 587.6, 378.0)">с</text><text xml:space="preserve" font-family="Helvetica-Light" font-size="54.0" fill="#000000" transform="matrix(1.00, 0.00, -0.00, -1.00, 615.6, 378.0)">т</text><text xml:space="preserve" font-family="Helvetica-Light" font-size="54.0" fill="#000000" transform="matrix(1.00, 0.00, -0.00, -1.00, 639.6, 378.0)">в</text><text xml:space="preserve" font-family="Helvetica-Light" font-size="54.0" fill="#000000" transform="matrix(1.00, 0.00, -0.00, -1.00, 667.5, 378.0)">а</text><text xml:space="preserve" font-family="Helvetica-Light" font-size="54.0" fill="#000000" transform="matrix(1.00, 0.00, -0.00, -1.00, 695.5, 378.0)"> </text><text xml:space="preserve" font-family="Helvetica-Light" font-size="18.0" fill="#000000" transform="matrix(1.00, 0.00, -0.00, -1.00, 506.0, 18.0)">2</text><g><clipPath id="clip-1"><path d="M -0.2 -1.6 L 63.8 -1.6 L 63.8 10.5 L -0.2 10.5 L -0.2 -1.6 Z M -0.2 -1.6 "></path></clipPath><g clip-path="url(#clip-1)"><path d="M -0.2 -1.6 L 63.8 -1.6 L 63.8 10.5 L -0.2 10.5 L -0.2 -1.6 Z M -0.2 -1.6 " fill="url(#gradSh1.1)"></path></g></g></g></svg>