<?xml version="1.0" encoding="UTF-8" standalone="no"?><svg xmlns="http://www.w3.org/2000/svg" xmlns:xlink="http://www.w3.org/1999/xlink" clip-rule="evenodd" stroke-miterlimit="4.00" viewBox="0 0 1024 768"><desc>SVG generated by Keynote</desc><defs><linearGradient id="gradSh1.3" x1="0.0" y1="0.0" x2="100.0" y2="0.0" gradientUnits="userSpaceOnUse" gradientTransform="matrix(-1.30, 0.00, 0.00, 0.14, 128.8, 4.5)"><stop offset="0.00000" stop-color="#FBFBFB"></stop><stop offset="0.01466" stop-color="#FAFAFA"></stop><stop offset="1.00000" stop-color="#BEBEBE"></stop></linearGradient></defs><g transform="matrix(1.00, 0.00, -0.00, -1.00, 0.0, 768.0)"><path d="M 0.0 768.0 L 1024.0 768.0 L 1024.0 0.0 L 0.0 0.0 Z M 0.0 768.0 " fill="#FEFFFF"></path><text xml:space="preserve" font-family="Helvetica-Light" font-size="71.0" fill="#000000" transform="matrix(1.00, 0.00, -0.00, -1.00, 195.0, 358.0)">О</text><text xml:space="preserve" font-family="Helvetica-Light" font-size="71.0" fill="#000000" transform="matrix(1.00, 0.00, -0.00, -1.00, 247.6, 358.0)">б</text><text xml:space="preserve" font-family="Helvetica-Light" font-size="71.0" fill="#000000" transform="matrix(1.00, 0.00, -0.00, -1.00, 287.1, 358.0)">з</text><text xml:space="preserve" font-family="Helvetica-Light" font-size="71.0" fill="#000000" transform="matrix(1.00, 0.00, -0.00, -1.00, 321.5, 358.0)">о</text><text xml:space="preserve" font-family="Helvetica-Light" font-size="71.0" fill="#000000" transform="matrix(1.00, 0.00, -0.00, -1.00, 361.0, 358.0)">р</text><text xml:space="preserve" font-family="Helvetica-Light" font-size="71.0" fill="#000000" transform="matrix(1.00, 0.00, -0.00, -1.00, 401.8, 358.0)"> </text><text xml:space="preserve" font-family="Helvetica-Light" font-size="71.0" fill="#000000" transform="matrix(1.00, 0.00, -0.00, -1.00, 421.5, 358.0)">а</text><text xml:space="preserve" font-family="Helvetica-Light" font-size="71.0" fill="#000000" transform="matrix(1.00, 0.00, -0.00, -1.00, 458.3, 358.0)">р</text><text xml:space="preserve" font-family="Helvetica-Light" font-size="71.0" fill="#000000" transform="matrix(1.00, 0.00, -0.00, -1.00, 499.1, 358.0)">х</text><text xml:space="preserve" font-family="Helvetica-Light" font-size="71.0" fill="#000000" transform="matrix(1.00, 0.00, -0.00, -1.00, 533.2, 358.0)">и</text><text xml:space="preserve" font-family="Helvetica-Light" font-size="71.0" fill="#000000" transform="matrix(1.00, 0.00, -0.00, -1.00, 571.9, 358.0)">т</text><text xml:space="preserve" font-family="Helvetica-Light" font-size="71.0" fill="#000000" transform="matrix(1.00, 0.00, -0.00, -1.00, 603.3, 358.0)">е</text><text xml:space="preserve" font-family="Helvetica-Light" font-size="71.0" fill="#000000" transform="matrix(1.00, 0.00, -0.00, -1.00, 640.2, 358.0)">к</text><text xml:space="preserve" font-family="Helvetica-Light" font-size="71.0" fill="#000000" transform="matrix(1.00, 0.00, -0.00, -1.00, 675.5, 358.0)">т</text><text xml:space="preserve" font-family="Helvetica-Light" font-size="71.0" fill="#000000" transform="matrix(1.00, 0.00, -0.00, -1.00, 707.0, 358.0)">у</text><text xml:space="preserve" font-family="Helvetica-Light" font-size="71.0" fill="#000000" transform="matrix(1.00, 0.00, -0.00, -1.00, 739.9, 358.0)">р</text><text xml:space="preserve" font-family="Helvetica-Light" font-size="71.0" fill="#000000" transform="matrix(1.00, 0.00, -0.00, -1.00, 780.6, 358.0)">ы</text><text xml:space="preserve" font-family="Helvetica-Light" font-size="18.0" fill="#000000" transform="matrix(1.00, 0.00, -0.00, -1.00, 506.0, 18.0)">3</text><g><clipPath id="clip-3"><path d="M -0.2 -1.6 L 127.8 -1.6 L 127.8 10.5 L -0.2 10.5 L -0.2 -1.6 Z M -0.2 -1.6 "></path></clipPath><g clip-path="url(#clip-3)"><path d="M -0.2 -1.6 L 127.8 -1.6 L 127.8 10.5 L -0.2 10.5 L -0.2 -1.6 Z M -0.2 -1.6 " fill="url(#gradSh1.3)"></path></g></g></g></svg>