<?xml version="1.0" encoding="UTF-8" standalone="no"?><svg xmlns="http://www.w3.org/2000/svg" xmlns:xlink="http://www.w3.org/1999/xlink" clip-rule="evenodd" stroke-miterlimit="4.00" viewBox="0 0 1024 768"><desc>SVG generated by Keynote</desc><defs><linearGradient id="gradSh1.4" x1="0.0" y1="0.0" x2="100.0" y2="0.0" gradientUnits="userSpaceOnUse" gradientTransform="matrix(-1.94, 0.00, 0.00, 0.14, 192.8, 4.5)"><stop offset="0.00000" stop-color="#FBFBFB"></stop><stop offset="0.01466" stop-color="#FAFAFA"></stop><stop offset="1.00000" stop-color="#BEBEBE"></stop></linearGradient></defs><g transform="matrix(1.00, 0.00, -0.00, -1.00, 0.0, 768.0)"><path d="M 0.0 768.0 L 1024.0 768.0 L 1024.0 0.0 L 0.0 0.0 Z M 0.0 768.0 " fill="#FEFFFF"></path><text xml:space="preserve" font-family="Helvetica-Light" font-size="58.0" fill="#000000" transform="matrix(1.00, 0.00, -0.00, -1.00, 407.0, 432.0)">c</text><text xml:space="preserve" font-family="Helvetica-Light" font-size="58.0" fill="#000000" transform="matrix(1.00, 0.00, -0.00, -1.00, 439.2, 432.0)">o</text><text xml:space="preserve" font-family="Helvetica-Light" font-size="58.0" fill="#000000" transform="matrix(1.00, 0.00, -0.00, -1.00, 471.5, 432.0)">n</text><text xml:space="preserve" font-family="Helvetica-Light" font-size="58.0" fill="#000000" transform="matrix(1.00, 0.00, -0.00, -1.00, 503.7, 432.0)">n</text><text xml:space="preserve" font-family="Helvetica-Light" font-size="58.0" fill="#000000" transform="matrix(1.00, 0.00, -0.00, -1.00, 536.0, 432.0)">e</text><text xml:space="preserve" font-family="Helvetica-Light" font-size="58.0" fill="#000000" transform="matrix(1.00, 0.00, -0.00, -1.00, 568.2, 432.0)">c</text><text xml:space="preserve" font-family="Helvetica-Light" font-size="58.0" fill="#000000" transform="matrix(1.00, 0.00, -0.00, -1.00, 600.5, 432.0)">t</text><text xml:space="preserve" font-family="Helvetica-Light" font-size="58.0" fill="#000000" transform="matrix(1.00, 0.00, -0.00, -1.00, 616.6, 432.0)"> </text><text xml:space="preserve" font-family="Helvetica-Light" font-size="58.0" fill="#000000" transform="matrix(1.00, 0.00, -0.00, -1.00, 438.0, 362.0)">r</text><text xml:space="preserve" font-family="Helvetica-Light" font-size="58.0" fill="#000000" transform="matrix(1.00, 0.00, -0.00, -1.00, 456.3, 362.0)">e</text><text xml:space="preserve" font-family="Helvetica-Light" font-size="58.0" fill="#000000" transform="matrix(1.00, 0.00, -0.00, -1.00, 488.5, 362.0)">d</text><text xml:space="preserve" font-family="Helvetica-Light" font-size="58.0" fill="#000000" transform="matrix(1.00, 0.00, -0.00, -1.00, 524.0, 362.0)">u</text><text xml:space="preserve" font-family="Helvetica-Light" font-size="58.0" fill="#000000" transform="matrix(1.00, 0.00, -0.00, -1.00, 556.2, 362.0)">x</text><text xml:space="preserve" font-family="Helvetica-Light" font-size="58.0" fill="#000000" transform="matrix(1.00, 0.00, -0.00, -1.00, 585.2, 362.0)"> </text><text xml:space="preserve" font-family="Helvetica-Light" font-size="58.0" fill="#000000" transform="matrix(1.00, 0.00, -0.00, -1.00, 446.0, 292.0)">r</text><text xml:space="preserve" font-family="Helvetica-Light" font-size="58.0" fill="#000000" transform="matrix(1.00, 0.00, -0.00, -1.00, 464.3, 292.0)">e</text><text xml:space="preserve" font-family="Helvetica-Light" font-size="58.0" fill="#000000" transform="matrix(1.00, 0.00, -0.00, -1.00, 496.5, 292.0)">a</text><text xml:space="preserve" font-family="Helvetica-Light" font-size="58.0" fill="#000000" transform="matrix(1.00, 0.00, -0.00, -1.00, 528.8, 292.0)">c</text><text xml:space="preserve" font-family="Helvetica-Light" font-size="58.0" fill="#000000" transform="matrix(1.00, 0.00, -0.00, -1.00, 561.0, 292.0)">t</text><text xml:space="preserve" font-family="Helvetica-Light" font-size="18.0" fill="#000000" transform="matrix(1.00, 0.00, -0.00, -1.00, 506.0, 18.0)">4</text><text xml:space="preserve" font-family="Helvetica-Light" font-size="36.0" fill="#000000" transform="matrix(1.00, 0.00, -0.00, -1.00, 41.0, 696.0)">Т</text><text xml:space="preserve" font-family="Helvetica-Light" font-size="36.0" fill="#000000" transform="matrix(1.00, 0.00, -0.00, -1.00, 61.0, 696.0)">е</text><text xml:space="preserve" font-family="Helvetica-Light" font-size="36.0" fill="#000000" transform="matrix(1.00, 0.00, -0.00, -1.00, 79.7, 696.0)">х</text><text xml:space="preserve" font-family="Helvetica-Light" font-size="36.0" fill="#000000" transform="matrix(1.00, 0.00, -0.00, -1.00, 97.0, 696.0)">н</text><text xml:space="preserve" font-family="Helvetica-Light" font-size="36.0" fill="#000000" transform="matrix(1.00, 0.00, -0.00, -1.00, 116.3, 696.0)">о</text><text xml:space="preserve" font-family="Helvetica-Light" font-size="36.0" fill="#000000" transform="matrix(1.00, 0.00, -0.00, -1.00, 136.4, 696.0)">л</text><text xml:space="preserve" font-family="Helvetica-Light" font-size="36.0" fill="#000000" transform="matrix(1.00, 0.00, -0.00, -1.00, 156.7, 696.0)">о</text><text xml:space="preserve" font-family="Helvetica-Light" font-size="36.0" fill="#000000" transform="matrix(1.00, 0.00, -0.00, -1.00, 176.7, 696.0)">г</text><text xml:space="preserve" font-family="Helvetica-Light" font-size="36.0" fill="#000000" transform="matrix(1.00, 0.00, -0.00, -1.00, 191.1, 696.0)">и</text><text xml:space="preserve" font-family="Helvetica-Light" font-size="36.0" fill="#000000" transform="matrix(1.00, 0.00, -0.00, -1.00, 210.7, 696.0)">и</text><g><clipPath id="clip-4"><path d="M -0.2 -1.6 L 191.8 -1.6 L 191.8 10.5 L -0.2 10.5 L -0.2 -1.6 Z M -0.2 -1.6 "></path></clipPath><g clip-path="url(#clip-4)"><path d="M -0.2 -1.6 L 191.8 -1.6 L 191.8 10.5 L -0.2 10.5 L -0.2 -1.6 Z M -0.2 -1.6 " fill="url(#gradSh1.4)"></path></g></g></g></svg>