<?xml version="1.0" encoding="UTF-8" standalone="no"?><svg xmlns="http://www.w3.org/2000/svg" xmlns:xlink="http://www.w3.org/1999/xlink" clip-rule="evenodd" stroke-miterlimit="4.00" viewBox="0 0 178 24"><desc>SVG generated by Keynote</desc><defs></defs><g transform="matrix(1.00, 0.00, -0.00, -1.00, 0.0, 24.0)"><text xml:space="preserve" font-family="Helvetica-Light" font-size="22.0" fill="#000000" transform="matrix(1.00, 0.00, -0.00, -1.00, 0.0, 7.0)">П</text><text xml:space="preserve" font-family="Helvetica-Light" font-size="22.0" fill="#000000" transform="matrix(1.00, 0.00, -0.00, -1.00, 15.3, 7.0)">р</text><text xml:space="preserve" font-family="Helvetica-Light" font-size="22.0" fill="#000000" transform="matrix(1.00, 0.00, -0.00, -1.00, 27.9, 7.0)">е</text><text xml:space="preserve" font-family="Helvetica-Light" font-size="22.0" fill="#000000" transform="matrix(1.00, 0.00, -0.00, -1.00, 39.3, 7.0)">д</text><text xml:space="preserve" font-family="Helvetica-Light" font-size="22.0" fill="#000000" transform="matrix(1.00, 0.00, -0.00, -1.00, 51.9, 7.0)">с</text><text xml:space="preserve" font-family="Helvetica-Light" font-size="22.0" fill="#000000" transform="matrix(1.00, 0.00, -0.00, -1.00, 63.3, 7.0)">к</text><text xml:space="preserve" font-family="Helvetica-Light" font-size="22.0" fill="#000000" transform="matrix(1.00, 0.00, -0.00, -1.00, 74.2, 7.0)">а</text><text xml:space="preserve" font-family="Helvetica-Light" font-size="22.0" fill="#000000" transform="matrix(1.00, 0.00, -0.00, -1.00, 85.6, 7.0)">з</text><text xml:space="preserve" font-family="Helvetica-Light" font-size="22.0" fill="#000000" transform="matrix(1.00, 0.00, -0.00, -1.00, 96.3, 7.0)">у</text><text xml:space="preserve" font-family="Helvetica-Light" font-size="22.0" fill="#000000" transform="matrix(1.00, 0.00, -0.00, -1.00, 106.5, 7.0)">е</text><text xml:space="preserve" font-family="Helvetica-Light" font-size="22.0" fill="#000000" transform="matrix(1.00, 0.00, -0.00, -1.00, 117.9, 7.0)">м</text><text xml:space="preserve" font-family="Helvetica-Light" font-size="22.0" fill="#000000" transform="matrix(1.00, 0.00, -0.00, -1.00, 132.6, 7.0)">о</text><text xml:space="preserve" font-family="Helvetica-Light" font-size="22.0" fill="#000000" transform="matrix(1.00, 0.00, -0.00, -1.00, 144.8, 7.0)">с</text><text xml:space="preserve" font-family="Helvetica-Light" font-size="22.0" fill="#000000" transform="matrix(1.00, 0.00, -0.00, -1.00, 156.3, 7.0)">т</text><text xml:space="preserve" font-family="Helvetica-Light" font-size="22.0" fill="#000000" transform="matrix(1.00, 0.00, -0.00, -1.00, 166.0, 7.0)">ь</text></g></svg>