<?xml version="1.0" encoding="UTF-8" standalone="no"?><svg xmlns="http://www.w3.org/2000/svg" xmlns:xlink="http://www.w3.org/1999/xlink" clip-rule="evenodd" stroke-miterlimit="4.00" viewBox="0 0 1024 768"><desc>SVG generated by Keynote</desc><defs><linearGradient id="gradSh1.32" x1="0.0" y1="0.0" x2="100.0" y2="0.0" gradientUnits="userSpaceOnUse" gradientTransform="matrix(-7.70, 0.00, 0.00, 0.14, 768.8, 4.5)"><stop offset="0.00000" stop-color="#FBFBFB"></stop><stop offset="0.01466" stop-color="#FAFAFA"></stop><stop offset="1.00000" stop-color="#BEBEBE"></stop></linearGradient></defs><g transform="matrix(1.00, 0.00, -0.00, -1.00, 0.0, 768.0)"><path d="M 0.0 768.0 L 1024.0 768.0 L 1024.0 0.0 L 0.0 0.0 Z M 0.0 768.0 " fill="#FEFFFF"></path><text xml:space="preserve" font-family="Helvetica-Light" font-size="36.0" fill="#000000" transform="matrix(1.00, 0.00, -0.00, -1.00, 41.0, 696.0)">П</text><text xml:space="preserve" font-family="Helvetica-Light" font-size="36.0" fill="#000000" transform="matrix(1.00, 0.00, -0.00, -1.00, 66.0, 696.0)">р</text><text xml:space="preserve" font-family="Helvetica-Light" font-size="36.0" fill="#000000" transform="matrix(1.00, 0.00, -0.00, -1.00, 86.6, 696.0)">е</text><text xml:space="preserve" font-family="Helvetica-Light" font-size="36.0" fill="#000000" transform="matrix(1.00, 0.00, -0.00, -1.00, 105.3, 696.0)">и</text><text xml:space="preserve" font-family="Helvetica-Light" font-size="36.0" fill="#000000" transform="matrix(1.00, 0.00, -0.00, -1.00, 124.9, 696.0)">м</text><text xml:space="preserve" font-family="Helvetica-Light" font-size="36.0" fill="#000000" transform="matrix(1.00, 0.00, -0.00, -1.00, 149.0, 696.0)">у</text><text xml:space="preserve" font-family="Helvetica-Light" font-size="36.0" fill="#000000" transform="matrix(1.00, 0.00, -0.00, -1.00, 165.6, 696.0)">щ</text><text xml:space="preserve" font-family="Helvetica-Light" font-size="36.0" fill="#000000" transform="matrix(1.00, 0.00, -0.00, -1.00, 194.7, 696.0)">е</text><text xml:space="preserve" font-family="Helvetica-Light" font-size="36.0" fill="#000000" transform="matrix(1.00, 0.00, -0.00, -1.00, 213.4, 696.0)">с</text><text xml:space="preserve" font-family="Helvetica-Light" font-size="36.0" fill="#000000" transform="matrix(1.00, 0.00, -0.00, -1.00, 232.1, 696.0)">т</text><text xml:space="preserve" font-family="Helvetica-Light" font-size="36.0" fill="#000000" transform="matrix(1.00, 0.00, -0.00, -1.00, 248.0, 696.0)">в</text><text xml:space="preserve" font-family="Helvetica-Light" font-size="36.0" fill="#000000" transform="matrix(1.00, 0.00, -0.00, -1.00, 266.6, 696.0)">а</text><text xml:space="preserve" font-family="Helvetica-Light" font-size="22.0" fill="#000000" transform="matrix(1.00, 0.00, -0.00, -1.00, 423.0, 511.0)">П</text><text xml:space="preserve" font-family="Helvetica-Light" font-size="22.0" fill="#000000" transform="matrix(1.00, 0.00, -0.00, -1.00, 438.3, 511.0)">р</text><text xml:space="preserve" font-family="Helvetica-Light" font-size="22.0" fill="#000000" transform="matrix(1.00, 0.00, -0.00, -1.00, 450.9, 511.0)">е</text><text xml:space="preserve" font-family="Helvetica-Light" font-size="22.0" fill="#000000" transform="matrix(1.00, 0.00, -0.00, -1.00, 462.3, 511.0)">д</text><text xml:space="preserve" font-family="Helvetica-Light" font-size="22.0" fill="#000000" transform="matrix(1.00, 0.00, -0.00, -1.00, 474.9, 511.0)">с</text><text xml:space="preserve" font-family="Helvetica-Light" font-size="22.0" fill="#000000" transform="matrix(1.00, 0.00, -0.00, -1.00, 486.3, 511.0)">к</text><text xml:space="preserve" font-family="Helvetica-Light" font-size="22.0" fill="#000000" transform="matrix(1.00, 0.00, -0.00, -1.00, 497.2, 511.0)">а</text><text xml:space="preserve" font-family="Helvetica-Light" font-size="22.0" fill="#000000" transform="matrix(1.00, 0.00, -0.00, -1.00, 508.6, 511.0)">з</text><text xml:space="preserve" font-family="Helvetica-Light" font-size="22.0" fill="#000000" transform="matrix(1.00, 0.00, -0.00, -1.00, 519.3, 511.0)">у</text><text xml:space="preserve" font-family="Helvetica-Light" font-size="22.0" fill="#000000" transform="matrix(1.00, 0.00, -0.00, -1.00, 529.5, 511.0)">е</text><text xml:space="preserve" font-family="Helvetica-Light" font-size="22.0" fill="#000000" transform="matrix(1.00, 0.00, -0.00, -1.00, 540.9, 511.0)">м</text><text xml:space="preserve" font-family="Helvetica-Light" font-size="22.0" fill="#000000" transform="matrix(1.00, 0.00, -0.00, -1.00, 555.6, 511.0)">о</text><text xml:space="preserve" font-family="Helvetica-Light" font-size="22.0" fill="#000000" transform="matrix(1.00, 0.00, -0.00, -1.00, 567.8, 511.0)">с</text><text xml:space="preserve" font-family="Helvetica-Light" font-size="22.0" fill="#000000" transform="matrix(1.00, 0.00, -0.00, -1.00, 579.3, 511.0)">т</text><text xml:space="preserve" font-family="Helvetica-Light" font-size="22.0" fill="#000000" transform="matrix(1.00, 0.00, -0.00, -1.00, 589.0, 511.0)">ь</text><text xml:space="preserve" font-family="Helvetica-Light" font-size="36.0" fill="#000000" transform="matrix(1.00, 0.00, -0.00, -1.00, 80.0, 314.0)">a</text><text xml:space="preserve" font-family="Helvetica-Light" font-size="36.0" fill="#000000" transform="matrix(1.00, 0.00, -0.00, -1.00, 100.0, 314.0)">c</text><text xml:space="preserve" font-family="Helvetica-Light" font-size="36.0" fill="#000000" transform="matrix(1.00, 0.00, -0.00, -1.00, 120.0, 314.0)">t</text><text xml:space="preserve" font-family="Helvetica-Light" font-size="36.0" fill="#000000" transform="matrix(1.00, 0.00, -0.00, -1.00, 130.0, 314.0)">i</text><text xml:space="preserve" font-family="Helvetica-Light" font-size="36.0" fill="#000000" transform="matrix(1.00, 0.00, -0.00, -1.00, 138.0, 314.0)">o</text><text xml:space="preserve" font-family="Helvetica-Light" font-size="36.0" fill="#000000" transform="matrix(1.00, 0.00, -0.00, -1.00, 158.0, 314.0)">n</text><text xml:space="preserve" font-family="Helvetica-Light" font-size="37.0" fill="#000000" transform="matrix(1.00, 0.00, -0.00, -1.00, 227.0, 314.0)">[</text><text xml:space="preserve" font-family="Helvetica-Light" font-size="37.0" fill="#000000" transform="matrix(1.00, 0.00, -0.00, -1.00, 239.3, 314.0)">m</text><text xml:space="preserve" font-family="Helvetica-Light" font-size="37.0" fill="#000000" transform="matrix(1.00, 0.00, -0.00, -1.00, 270.1, 314.0)">i</text><text xml:space="preserve" font-family="Helvetica-Light" font-size="37.0" fill="#000000" transform="matrix(1.00, 0.00, -0.00, -1.00, 278.4, 314.0)">d</text><text xml:space="preserve" font-family="Helvetica-Light" font-size="37.0" fill="#000000" transform="matrix(1.00, 0.00, -0.00, -1.00, 301.0, 314.0)">d</text><text xml:space="preserve" font-family="Helvetica-Light" font-size="37.0" fill="#000000" transform="matrix(1.00, 0.00, -0.00, -1.00, 323.6, 314.0)">l</text><text xml:space="preserve" font-family="Helvetica-Light" font-size="37.0" fill="#000000" transform="matrix(1.00, 0.00, -0.00, -1.00, 331.8, 314.0)">e</text><text xml:space="preserve" font-family="Helvetica-Light" font-size="37.0" fill="#000000" transform="matrix(1.00, 0.00, -0.00, -1.00, 352.4, 314.0)">w</text><text xml:space="preserve" font-family="Helvetica-Light" font-size="37.0" fill="#000000" transform="matrix(1.00, 0.00, -0.00, -1.00, 379.1, 314.0)">a</text><text xml:space="preserve" font-family="Helvetica-Light" font-size="37.0" fill="#000000" transform="matrix(1.00, 0.00, -0.00, -1.00, 399.6, 314.0)">r</text><text xml:space="preserve" font-family="Helvetica-Light" font-size="37.0" fill="#000000" transform="matrix(1.00, 0.00, -0.00, -1.00, 411.3, 314.0)">e</text><text xml:space="preserve" font-family="Helvetica-Light" font-size="37.0" fill="#000000" transform="matrix(1.00, 0.00, -0.00, -1.00, 431.9, 314.0)">]</text><text xml:space="preserve" font-family="Helvetica-Light" font-size="36.0" fill="#000000" transform="matrix(1.00, 0.00, -0.00, -1.00, 494.0, 314.0)">r</text><text xml:space="preserve" font-family="Helvetica-Light" font-size="36.0" fill="#000000" transform="matrix(1.00, 0.00, -0.00, -1.00, 505.3, 314.0)">e</text><text xml:space="preserve" font-family="Helvetica-Light" font-size="36.0" fill="#000000" transform="matrix(1.00, 0.00, -0.00, -1.00, 525.4, 314.0)">d</text><text xml:space="preserve" font-family="Helvetica-Light" font-size="36.0" fill="#000000" transform="matrix(1.00, 0.00, -0.00, -1.00, 547.4, 314.0)">u</text><text xml:space="preserve" font-family="Helvetica-Light" font-size="36.0" fill="#000000" transform="matrix(1.00, 0.00, -0.00, -1.00, 567.4, 314.0)">c</text><text xml:space="preserve" font-family="Helvetica-Light" font-size="36.0" fill="#000000" transform="matrix(1.00, 0.00, -0.00, -1.00, 587.4, 314.0)">e</text><text xml:space="preserve" font-family="Helvetica-Light" font-size="36.0" fill="#000000" transform="matrix(1.00, 0.00, -0.00, -1.00, 607.4, 314.0)">r</text><image xlink:href="../../9D8AE1E8-96E1-4CF3-AEE3-5EAD3FA64A17/assets/CBAAECAEE7964219B056C0FBAD57FF45.png" width="240.00" height="200.00" transform="matrix(1.00, 0.00, -0.00, -1.00, 392.0, 733.0)"></image><text xml:space="preserve" font-family="Helvetica-Light" font-size="18.0" fill="#000000" transform="matrix(1.00, 0.00, -0.00, -1.00, 501.0, 18.0)">1</text><text xml:space="preserve" font-family="Helvetica-Light" font-size="18.0" fill="#000000" transform="matrix(1.00, 0.00, -0.00, -1.00, 511.0, 18.0)">3</text><g><clipPath id="clip-137"><path d="M 658.6 296.5 L 757.0 296.5 L 757.0 357.5 L 658.6 357.5 Z M 658.6 296.5 "></path></clipPath><g clip-path="url(#clip-137)"><text xml:space="preserve" font-family="Helvetica-Light" font-size="36.0" fill="#000000" transform="matrix(1.00, 0.00, -0.00, -1.00, 668.0, 314.0)">s</text><text xml:space="preserve" font-family="Helvetica-Light" font-size="36.0" fill="#000000" transform="matrix(1.00, 0.00, -0.00, -1.00, 686.0, 314.0)">t</text><text xml:space="preserve" font-family="Helvetica-Light" font-size="36.0" fill="#000000" transform="matrix(1.00, 0.00, -0.00, -1.00, 696.0, 314.0)">o</text><text xml:space="preserve" font-family="Helvetica-Light" font-size="36.0" fill="#000000" transform="matrix(1.00, 0.00, -0.00, -1.00, 716.0, 314.0)">r</text><text xml:space="preserve" font-family="Helvetica-Light" font-size="36.0" fill="#000000" transform="matrix(1.00, 0.00, -0.00, -1.00, 727.4, 314.0)">e</text></g></g><g><clipPath id="clip-138"><path d="M 857.3 296.5 L 981.6 296.5 L 981.6 357.5 L 857.3 357.5 Z M 857.3 296.5 "></path></clipPath><g clip-path="url(#clip-138)"><text xml:space="preserve" font-family="Helvetica-Light" font-size="36.0" fill="#000000" transform="matrix(1.00, 0.00, -0.00, -1.00, 867.0, 314.0)">r</text><text xml:space="preserve" font-family="Helvetica-Light" font-size="36.0" fill="#000000" transform="matrix(1.00, 0.00, -0.00, -1.00, 878.3, 314.0)">e</text><text xml:space="preserve" font-family="Helvetica-Light" font-size="36.0" fill="#000000" transform="matrix(1.00, 0.00, -0.00, -1.00, 898.4, 314.0)">n</text><text xml:space="preserve" font-family="Helvetica-Light" font-size="36.0" fill="#000000" transform="matrix(1.00, 0.00, -0.00, -1.00, 918.4, 314.0)">d</text><text xml:space="preserve" font-family="Helvetica-Light" font-size="36.0" fill="#000000" transform="matrix(1.00, 0.00, -0.00, -1.00, 940.4, 314.0)">e</text><text xml:space="preserve" font-family="Helvetica-Light" font-size="36.0" fill="#000000" transform="matrix(1.00, 0.00, -0.00, -1.00, 960.4, 314.0)">r</text></g></g><g><clipPath id="clip-139"><path d="M 763.5 318.5 L 853.9 318.5 L 853.9 330.1 L 763.5 330.1 Z M 763.5 318.5 "></path></clipPath><g clip-path="url(#clip-139)"><path d="M 0.0 0.0 L 78.8 0.0 L 79.8 0.0 " fill="none" stroke="#000000" stroke-width="2.00" transform="matrix(1.00, 0.00, 0.00, -1.00, 764.5, 324.3)"></path><path d="M 843.3 319.5 L 852.9 324.3 L 843.3 329.1 Z M 843.3 319.5 " fill="#000000"></path></g></g><g><clipPath id="clip-140"><path d="M -0.2 -1.6 L 767.8 -1.6 L 767.8 10.5 L -0.2 10.5 L -0.2 -1.6 Z M -0.2 -1.6 "></path></clipPath><g clip-path="url(#clip-140)"><path d="M -0.2 -1.6 L 767.8 -1.6 L 767.8 10.5 L -0.2 10.5 L -0.2 -1.6 Z M -0.2 -1.6 " fill="url(#gradSh1.32)"></path></g></g></g></svg>