<?xml version="1.0" encoding="UTF-8" standalone="no"?><svg xmlns="http://www.w3.org/2000/svg" xmlns:xlink="http://www.w3.org/1999/xlink" clip-rule="evenodd" stroke-miterlimit="4.00" viewBox="0 0 1024 768"><desc>SVG generated by Keynote</desc><defs><linearGradient id="gradSh1.25" x1="0.0" y1="0.0" x2="100.0" y2="0.0" gradientUnits="userSpaceOnUse" gradientTransform="matrix(-6.42, 0.00, 0.00, 0.14, 640.8, 4.5)"><stop offset="0.00000" stop-color="#FBFBFB"></stop><stop offset="0.01466" stop-color="#FAFAFA"></stop><stop offset="1.00000" stop-color="#BEBEBE"></stop></linearGradient></defs><g transform="matrix(1.00, 0.00, -0.00, -1.00, 0.0, 768.0)"><path d="M 0.0 768.0 L 1024.0 768.0 L 1024.0 0.0 L 0.0 0.0 Z M 0.0 768.0 " fill="#FEFFFF"></path><text xml:space="preserve" font-family="Helvetica-Light" font-size="36.0" fill="#000000" transform="matrix(1.00, 0.00, -0.00, -1.00, 41.0, 696.0)">П</text><text xml:space="preserve" font-family="Helvetica-Light" font-size="36.0" fill="#000000" transform="matrix(1.00, 0.00, -0.00, -1.00, 66.0, 696.0)">р</text><text xml:space="preserve" font-family="Helvetica-Light" font-size="36.0" fill="#000000" transform="matrix(1.00, 0.00, -0.00, -1.00, 86.6, 696.0)">е</text><text xml:space="preserve" font-family="Helvetica-Light" font-size="36.0" fill="#000000" transform="matrix(1.00, 0.00, -0.00, -1.00, 105.3, 696.0)">и</text><text xml:space="preserve" font-family="Helvetica-Light" font-size="36.0" fill="#000000" transform="matrix(1.00, 0.00, -0.00, -1.00, 124.9, 696.0)">м</text><text xml:space="preserve" font-family="Helvetica-Light" font-size="36.0" fill="#000000" transform="matrix(1.00, 0.00, -0.00, -1.00, 149.0, 696.0)">у</text><text xml:space="preserve" font-family="Helvetica-Light" font-size="36.0" fill="#000000" transform="matrix(1.00, 0.00, -0.00, -1.00, 165.6, 696.0)">щ</text><text xml:space="preserve" font-family="Helvetica-Light" font-size="36.0" fill="#000000" transform="matrix(1.00, 0.00, -0.00, -1.00, 194.7, 696.0)">е</text><text xml:space="preserve" font-family="Helvetica-Light" font-size="36.0" fill="#000000" transform="matrix(1.00, 0.00, -0.00, -1.00, 213.4, 696.0)">с</text><text xml:space="preserve" font-family="Helvetica-Light" font-size="36.0" fill="#000000" transform="matrix(1.00, 0.00, -0.00, -1.00, 232.1, 696.0)">т</text><text xml:space="preserve" font-family="Helvetica-Light" font-size="36.0" fill="#000000" transform="matrix(1.00, 0.00, -0.00, -1.00, 248.0, 696.0)">в</text><text xml:space="preserve" font-family="Helvetica-Light" font-size="36.0" fill="#000000" transform="matrix(1.00, 0.00, -0.00, -1.00, 266.6, 696.0)">а</text><text xml:space="preserve" font-family="Helvetica-Light" font-size="19.0" fill="#000000" transform="matrix(1.00, 0.00, -0.00, -1.00, 405.0, 239.0)">Р</text><text xml:space="preserve" font-family="Helvetica-Light" font-size="19.0" fill="#000000" transform="matrix(1.00, 0.00, -0.00, -1.00, 417.0, 239.0)">а</text><text xml:space="preserve" font-family="Helvetica-Light" font-size="19.0" fill="#000000" transform="matrix(1.00, 0.00, -0.00, -1.00, 426.8, 239.0)">з</text><text xml:space="preserve" font-family="Helvetica-Light" font-size="19.0" fill="#000000" transform="matrix(1.00, 0.00, -0.00, -1.00, 436.0, 239.0)">б</text><text xml:space="preserve" font-family="Helvetica-Light" font-size="19.0" fill="#000000" transform="matrix(1.00, 0.00, -0.00, -1.00, 446.6, 239.0)">и</text><text xml:space="preserve" font-family="Helvetica-Light" font-size="19.0" fill="#000000" transform="matrix(1.00, 0.00, -0.00, -1.00, 456.9, 239.0)">е</text><text xml:space="preserve" font-family="Helvetica-Light" font-size="19.0" fill="#000000" transform="matrix(1.00, 0.00, -0.00, -1.00, 466.8, 239.0)">н</text><text xml:space="preserve" font-family="Helvetica-Light" font-size="19.0" fill="#000000" transform="matrix(1.00, 0.00, -0.00, -1.00, 477.0, 239.0)">и</text><text xml:space="preserve" font-family="Helvetica-Light" font-size="19.0" fill="#000000" transform="matrix(1.00, 0.00, -0.00, -1.00, 487.3, 239.0)">е</text><text xml:space="preserve" font-family="Helvetica-Light" font-size="19.0" fill="#000000" transform="matrix(1.00, 0.00, -0.00, -1.00, 497.2, 239.0)"> </text><text xml:space="preserve" font-family="Helvetica-Light" font-size="19.0" fill="#000000" transform="matrix(1.00, 0.00, -0.00, -1.00, 502.5, 239.0)">н</text><text xml:space="preserve" font-family="Helvetica-Light" font-size="19.0" fill="#000000" transform="matrix(1.00, 0.00, -0.00, -1.00, 512.7, 239.0)">а</text><text xml:space="preserve" font-family="Helvetica-Light" font-size="19.0" fill="#000000" transform="matrix(1.00, 0.00, -0.00, -1.00, 522.6, 239.0)"> </text><text xml:space="preserve" font-family="Helvetica-Light" font-size="19.0" fill="#000000" transform="matrix(1.00, 0.00, -0.00, -1.00, 527.8, 239.0)">п</text><text xml:space="preserve" font-family="Helvetica-Light" font-size="19.0" fill="#000000" transform="matrix(1.00, 0.00, -0.00, -1.00, 537.9, 239.0)">о</text><text xml:space="preserve" font-family="Helvetica-Light" font-size="19.0" fill="#000000" transform="matrix(1.00, 0.00, -0.00, -1.00, 548.5, 239.0)">д</text><text xml:space="preserve" font-family="Helvetica-Light" font-size="19.0" fill="#000000" transform="matrix(1.00, 0.00, -0.00, -1.00, 559.3, 239.0)">з</text><text xml:space="preserve" font-family="Helvetica-Light" font-size="19.0" fill="#000000" transform="matrix(1.00, 0.00, -0.00, -1.00, 568.5, 239.0)">а</text><text xml:space="preserve" font-family="Helvetica-Light" font-size="19.0" fill="#000000" transform="matrix(1.00, 0.00, -0.00, -1.00, 578.4, 239.0)">д</text><text xml:space="preserve" font-family="Helvetica-Light" font-size="19.0" fill="#000000" transform="matrix(1.00, 0.00, -0.00, -1.00, 589.2, 239.0)">а</text><text xml:space="preserve" font-family="Helvetica-Light" font-size="19.0" fill="#000000" transform="matrix(1.00, 0.00, -0.00, -1.00, 599.1, 239.0)">ч</text><text xml:space="preserve" font-family="Helvetica-Light" font-size="19.0" fill="#000000" transform="matrix(1.00, 0.00, -0.00, -1.00, 608.5, 239.0)">и</text><image xlink:href="424857BC9DBAA913D0EEDEDA1074DD2B.png" width="985.00" height="252.00" transform="matrix(1.00, 0.00, -0.00, -1.00, 20.0, 523.0)"></image><text xml:space="preserve" font-family="Helvetica-Light" font-size="18.0" fill="#000000" transform="matrix(1.00, 0.00, -0.00, -1.00, 501.0, 18.0)">1</text><text xml:space="preserve" font-family="Helvetica-Light" font-size="18.0" fill="#000000" transform="matrix(1.00, 0.00, -0.00, -1.00, 511.0, 18.0)">1</text><g><clipPath id="clip-121"><path d="M -0.2 -1.6 L 639.8 -1.6 L 639.8 10.5 L -0.2 10.5 L -0.2 -1.6 Z M -0.2 -1.6 "></path></clipPath><g clip-path="url(#clip-121)"><path d="M -0.2 -1.6 L 639.8 -1.6 L 639.8 10.5 L -0.2 10.5 L -0.2 -1.6 Z M -0.2 -1.6 " fill="url(#gradSh1.25)"></path></g></g></g></svg>