<?xml version="1.0" encoding="UTF-8" standalone="no"?><svg xmlns="http://www.w3.org/2000/svg" xmlns:xlink="http://www.w3.org/1999/xlink" clip-rule="evenodd" stroke-miterlimit="4.00" viewBox="0 0 1024 768"><desc>SVG generated by Keynote</desc><defs><linearGradient id="gradSh1.8" x1="0.0" y1="0.0" x2="100.0" y2="0.0" gradientUnits="userSpaceOnUse" gradientTransform="matrix(-2.58, 0.00, 0.00, 0.14, 256.8, 4.5)"><stop offset="0.00000" stop-color="#FBFBFB"></stop><stop offset="0.01466" stop-color="#FAFAFA"></stop><stop offset="1.00000" stop-color="#BEBEBE"></stop></linearGradient></defs><g transform="matrix(1.00, 0.00, -0.00, -1.00, 0.0, 768.0)"><path d="M 0.0 768.0 L 1024.0 768.0 L 1024.0 0.0 L 0.0 0.0 Z M 0.0 768.0 " fill="#FEFFFF"></path><text xml:space="preserve" font-family="Helvetica-Light" font-size="20.0" fill="#000000" transform="matrix(1.00, 0.00, -0.00, -1.00, 124.0, 466.0)">u</text><text xml:space="preserve" font-family="Helvetica-Light" font-size="20.0" fill="#000000" transform="matrix(1.00, 0.00, -0.00, -1.00, 135.1, 466.0)">s</text><text xml:space="preserve" font-family="Helvetica-Light" font-size="20.0" fill="#000000" transform="matrix(1.00, 0.00, -0.00, -1.00, 145.1, 466.0)">e</text><text xml:space="preserve" font-family="Helvetica-Light" font-size="20.0" fill="#000000" transform="matrix(1.00, 0.00, -0.00, -1.00, 156.2, 466.0)">r</text><g><clipPath id="clip-19"><path d="M 169.7 481.8 L 411.4 481.8 L 411.4 518.9 L 169.7 518.9 Z M 169.7 481.8 "></path></clipPath><g clip-path="url(#clip-19)"><path d="M 233.2 30.5 L 232.3 30.0 C 147.6 -10.1 70.2 -10.0 0.0 30.3 " fill="none" stroke="#000000" stroke-width="2.00" transform="matrix(1.00, 0.00, 0.00, -1.00, 171.2, 516.9)"></path><path d="M 399.3 483.6 L 410.0 483.7 L 403.5 492.2 L 403.5 486.9 Z M 399.3 483.6 " fill="#000000"></path></g></g><g><clipPath id="clip-20"><path d="M 401.3 427.7 L 508.3 427.7 L 508.3 488.7 L 401.3 488.7 Z M 401.3 427.7 "></path></clipPath><g clip-path="url(#clip-20)"><text xml:space="preserve" font-family="Helvetica-Light" font-size="36.0" fill="#000000" transform="matrix(1.00, 0.00, -0.00, -1.00, 411.0, 445.0)">n</text><text xml:space="preserve" font-family="Helvetica-Light" font-size="36.0" fill="#000000" transform="matrix(1.00, 0.00, -0.00, -1.00, 431.0, 445.0)">g</text><text xml:space="preserve" font-family="Helvetica-Light" font-size="36.0" fill="#000000" transform="matrix(1.00, 0.00, -0.00, -1.00, 453.0, 445.0)">i</text><text xml:space="preserve" font-family="Helvetica-Light" font-size="36.0" fill="#000000" transform="matrix(1.00, 0.00, -0.00, -1.00, 461.0, 445.0)">n</text><text xml:space="preserve" font-family="Helvetica-Light" font-size="36.0" fill="#000000" transform="matrix(1.00, 0.00, -0.00, -1.00, 481.0, 445.0)">x</text></g></g><g><clipPath id="clip-21"><path d="M 492.0 460.4 L 763.2 460.4 L 763.2 503.3 L 492.0 503.3 Z M 492.0 460.4 "></path></clipPath><g clip-path="url(#clip-21)"><path d="M 262.8 36.4 L 261.9 36.0 C 166.7 -6.5 79.4 -11.4 0.0 21.5 " fill="none" stroke="#000000" stroke-width="2.00" transform="matrix(1.00, 0.00, 0.00, -1.00, 493.4, 501.3)"></path><path d="M 751.0 461.9 L 761.8 462.3 L 755.0 470.6 L 755.2 465.3 Z M 751.0 461.9 " fill="#000000"></path></g></g><g><clipPath id="clip-22"><path d="M 699.0 406.3 L 922.1 406.3 L 922.1 467.3 L 699.0 467.3 Z M 699.0 406.3 "></path></clipPath><g clip-path="url(#clip-22)"><text xml:space="preserve" font-family="Helvetica-Light" font-size="36.0" fill="#000000" transform="matrix(1.00, 0.00, -0.00, -1.00, 709.0, 424.0)">c</text><text xml:space="preserve" font-family="Helvetica-Light" font-size="36.0" fill="#000000" transform="matrix(1.00, 0.00, -0.00, -1.00, 729.0, 424.0)">o</text><text xml:space="preserve" font-family="Helvetica-Light" font-size="36.0" fill="#000000" transform="matrix(1.00, 0.00, -0.00, -1.00, 749.0, 424.0)">n</text><text xml:space="preserve" font-family="Helvetica-Light" font-size="36.0" fill="#000000" transform="matrix(1.00, 0.00, -0.00, -1.00, 769.0, 424.0)">n</text><text xml:space="preserve" font-family="Helvetica-Light" font-size="36.0" fill="#000000" transform="matrix(1.00, 0.00, -0.00, -1.00, 789.1, 424.0)">e</text><text xml:space="preserve" font-family="Helvetica-Light" font-size="36.0" fill="#000000" transform="matrix(1.00, 0.00, -0.00, -1.00, 809.1, 424.0)">c</text><text xml:space="preserve" font-family="Helvetica-Light" font-size="36.0" fill="#000000" transform="matrix(1.00, 0.00, -0.00, -1.00, 829.1, 424.0)">t</text><text xml:space="preserve" font-family="Helvetica-Light" font-size="36.0" fill="#000000" transform="matrix(1.00, 0.00, -0.00, -1.00, 839.1, 424.0)"> </text><text xml:space="preserve" font-family="Helvetica-Light" font-size="36.0" fill="#000000" transform="matrix(1.00, 0.00, -0.00, -1.00, 849.1, 424.0)">a</text><text xml:space="preserve" font-family="Helvetica-Light" font-size="36.0" fill="#000000" transform="matrix(1.00, 0.00, -0.00, -1.00, 869.1, 424.0)">p</text><text xml:space="preserve" font-family="Helvetica-Light" font-size="36.0" fill="#000000" transform="matrix(1.00, 0.00, -0.00, -1.00, 891.1, 424.0)">p</text></g></g><text xml:space="preserve" font-family="Helvetica-Light" font-size="36.0" fill="#000000" transform="matrix(1.00, 0.00, -0.00, -1.00, 41.0, 696.0)">И</text><text xml:space="preserve" font-family="Helvetica-Light" font-size="36.0" fill="#000000" transform="matrix(1.00, 0.00, -0.00, -1.00, 66.6, 696.0)">н</text><text xml:space="preserve" font-family="Helvetica-Light" font-size="36.0" fill="#000000" transform="matrix(1.00, 0.00, -0.00, -1.00, 85.9, 696.0)">и</text><text xml:space="preserve" font-family="Helvetica-Light" font-size="36.0" fill="#000000" transform="matrix(1.00, 0.00, -0.00, -1.00, 105.5, 696.0)">ц</text><text xml:space="preserve" font-family="Helvetica-Light" font-size="36.0" fill="#000000" transform="matrix(1.00, 0.00, -0.00, -1.00, 125.3, 696.0)">и</text><text xml:space="preserve" font-family="Helvetica-Light" font-size="36.0" fill="#000000" transform="matrix(1.00, 0.00, -0.00, -1.00, 144.9, 696.0)">а</text><text xml:space="preserve" font-family="Helvetica-Light" font-size="36.0" fill="#000000" transform="matrix(1.00, 0.00, -0.00, -1.00, 163.6, 696.0)">л</text><text xml:space="preserve" font-family="Helvetica-Light" font-size="36.0" fill="#000000" transform="matrix(1.00, 0.00, -0.00, -1.00, 184.0, 696.0)">и</text><text xml:space="preserve" font-family="Helvetica-Light" font-size="36.0" fill="#000000" transform="matrix(1.00, 0.00, -0.00, -1.00, 203.5, 696.0)">з</text><text xml:space="preserve" font-family="Helvetica-Light" font-size="36.0" fill="#000000" transform="matrix(1.00, 0.00, -0.00, -1.00, 221.0, 696.0)">а</text><text xml:space="preserve" font-family="Helvetica-Light" font-size="36.0" fill="#000000" transform="matrix(1.00, 0.00, -0.00, -1.00, 239.7, 696.0)">ц</text><text xml:space="preserve" font-family="Helvetica-Light" font-size="36.0" fill="#000000" transform="matrix(1.00, 0.00, -0.00, -1.00, 259.6, 696.0)">и</text><text xml:space="preserve" font-family="Helvetica-Light" font-size="36.0" fill="#000000" transform="matrix(1.00, 0.00, -0.00, -1.00, 279.1, 696.0)">я</text><text xml:space="preserve" font-family="Helvetica-Light" font-size="36.0" fill="#000000" transform="matrix(1.00, 0.00, -0.00, -1.00, 297.4, 696.0)"> </text><text xml:space="preserve" font-family="Helvetica-Light" font-size="36.0" fill="#000000" transform="matrix(1.00, 0.00, -0.00, -1.00, 307.4, 696.0)">п</text><text xml:space="preserve" font-family="Helvetica-Light" font-size="36.0" fill="#000000" transform="matrix(1.00, 0.00, -0.00, -1.00, 326.4, 696.0)">р</text><text xml:space="preserve" font-family="Helvetica-Light" font-size="36.0" fill="#000000" transform="matrix(1.00, 0.00, -0.00, -1.00, 347.1, 696.0)">и</text><text xml:space="preserve" font-family="Helvetica-Light" font-size="36.0" fill="#000000" transform="matrix(1.00, 0.00, -0.00, -1.00, 366.7, 696.0)">л</text><text xml:space="preserve" font-family="Helvetica-Light" font-size="36.0" fill="#000000" transform="matrix(1.00, 0.00, -0.00, -1.00, 387.0, 696.0)">о</text><text xml:space="preserve" font-family="Helvetica-Light" font-size="36.0" fill="#000000" transform="matrix(1.00, 0.00, -0.00, -1.00, 407.0, 696.0)">ж</text><text xml:space="preserve" font-family="Helvetica-Light" font-size="36.0" fill="#000000" transform="matrix(1.00, 0.00, -0.00, -1.00, 433.6, 696.0)">е</text><text xml:space="preserve" font-family="Helvetica-Light" font-size="36.0" fill="#000000" transform="matrix(1.00, 0.00, -0.00, -1.00, 452.3, 696.0)">н</text><text xml:space="preserve" font-family="Helvetica-Light" font-size="36.0" fill="#000000" transform="matrix(1.00, 0.00, -0.00, -1.00, 471.6, 696.0)">и</text><text xml:space="preserve" font-family="Helvetica-Light" font-size="36.0" fill="#000000" transform="matrix(1.00, 0.00, -0.00, -1.00, 491.2, 696.0)">я</text><text xml:space="preserve" font-family="Helvetica-Light" font-size="36.0" fill="#000000" transform="matrix(1.00, 0.00, -0.00, -1.00, 509.4, 696.0)"> </text><image xlink:href="../../0D36E75F-07F2-4B20-97BC-8EC75A886ECD/assets/32E464AA3CE147F67F4033751C0B514A.png" width="147.00" height="147.00" transform="matrix(1.00, 0.00, -0.00, -1.00, 70.0, 640.0)"></image><g><clipPath id="clip-23"><path d="M 402.7 46.8 L 884.9 46.8 L 884.9 169.5 L 402.7 169.5 Z M 402.7 46.8 "></path></clipPath><g clip-path="url(#clip-23)"><path d="M 479.0 0.0 C 414.8 134.4 257.4 155.3 6.8 62.6 L 5.8 62.2 " fill="none" stroke="#000000" stroke-width="2.00" transform="matrix(1.00, 0.00, 0.00, -1.00, 404.0, 168.1)"></path><path d="M 414.7 109.1 L 404.0 108.0 L 411.4 100.1 L 410.8 105.5 Z M 414.7 109.1 " fill="#000000"></path></g></g><g><clipPath id="clip-24"><path d="M 348.1 101.8 L 405.0 101.8 L 405.0 135.8 L 348.1 135.8 Z M 348.1 101.8 "></path></clipPath><g clip-path="url(#clip-24)"><text xml:space="preserve" font-family="Helvetica-Light" font-size="20.0" fill="#000000" transform="matrix(1.00, 0.00, -0.00, -1.00, 354.0, 111.0)">r</text><text xml:space="preserve" font-family="Helvetica-Light" font-size="20.0" fill="#000000" transform="matrix(1.00, 0.00, -0.00, -1.00, 360.3, 111.0)">e</text><text xml:space="preserve" font-family="Helvetica-Light" font-size="20.0" fill="#000000" transform="matrix(1.00, 0.00, -0.00, -1.00, 371.4, 111.0)">a</text><text xml:space="preserve" font-family="Helvetica-Light" font-size="20.0" fill="#000000" transform="matrix(1.00, 0.00, -0.00, -1.00, 382.5, 111.0)">c</text><text xml:space="preserve" font-family="Helvetica-Light" font-size="20.0" fill="#000000" transform="matrix(1.00, 0.00, -0.00, -1.00, 393.7, 111.0)">t</text></g></g><g><clipPath id="clip-25"><path d="M 282.0 143.3 L 449.5 143.3 L 449.5 292.0 L 282.0 292.0 Z M 282.0 143.3 "></path></clipPath><g clip-path="url(#clip-25)"><image xlink:href="../../615F7CD4-E262-41F7-8138-806EC6AB1FAB/assets/444FB7AE2555C09FC13EE7CDE0E125A3.png" width="168.00" height="149.00" transform="matrix(0.99, 0.00, -0.00, -1.00, 282.0, 292.0)"></image></g></g><text xml:space="preserve" font-family="Helvetica-Light" font-size="18.0" fill="#000000" transform="matrix(1.00, 0.00, -0.00, -1.00, 506.0, 18.0)">5</text><path d="M 275.7 5.2 L 275.2 6.1 C 204.0 115.7 112.3 181.7 0.0 204.0 " fill="none" stroke="#52575F" stroke-width="2.00" transform="matrix(1.00, 0.00, 0.00, -1.00, 462.2, 383.8)"></path><path d="M 740.1 373.1 L 741.2 383.8 L 732.0 378.3 L 737.3 377.7 Z M 740.1 373.1 " fill="#52575F"></path><path d="M 5.8 2.2 L 6.7 2.5 C 144.8 54.1 238.4 59.0 287.6 17.4 " fill="none" stroke="#52575F" stroke-width="2.00" transform="matrix(1.00, 0.00, 0.00, -1.00, 459.3, 424.8)"></path><path d="M 469.9 425.9 L 459.3 424.8 L 466.6 416.9 L 466.0 422.2 Z M 469.9 425.9 " fill="#52575F"></path><path d="M 5.7 2.4 L 6.7 2.8 C 128.1 52.6 213.8 60.5 263.7 26.6 " fill="none" stroke="#52575F" stroke-width="2.00" transform="matrix(1.00, 0.00, 0.00, -1.00, 180.1, 457.6)"></path><path d="M 190.8 458.3 L 180.1 457.6 L 187.2 449.5 L 186.8 454.8 Z M 190.8 458.3 " fill="#52575F"></path><g><clipPath id="clip-26"><path d="M 842.0 277.0 L 919.0 277.0 L 919.0 205.0 L 842.0 205.0 Z M 841.7 277.4 "></path></clipPath><g clip-path="url(#clip-26)"><g><clipPath id="clip-27"><path d="M 841.7 205.4 L 918.7 205.4 L 918.7 277.4 L 841.7 277.4 Z M 841.7 205.4 "></path></clipPath><g clip-path="url(#clip-27)"><image xlink:href="../../615F7CD4-E262-41F7-8138-806EC6AB1FAB/assets/A631858798B6623F32B5C6E14CD2FA0B.png" width="267.00" height="72.00" transform="matrix(1.00, 0.00, -0.00, -1.00, 842.0, 277.0)"></image></g></g></g></g><g><clipPath id="clip-28"><path d="M 828.7 169.2 L 931.6 169.2 L 931.6 203.2 L 828.7 203.2 Z M 828.7 169.2 "></path></clipPath><g clip-path="url(#clip-28)"><text xml:space="preserve" font-family="Helvetica-Light" font-size="20.0" fill="#000000" transform="matrix(1.00, 0.00, -0.00, -1.00, 834.0, 179.0)">r</text><text xml:space="preserve" font-family="Helvetica-Light" font-size="20.0" fill="#000000" transform="matrix(1.00, 0.00, -0.00, -1.00, 840.3, 179.0)">e</text><text xml:space="preserve" font-family="Helvetica-Light" font-size="20.0" fill="#000000" transform="matrix(1.00, 0.00, -0.00, -1.00, 851.4, 179.0)">d</text><text xml:space="preserve" font-family="Helvetica-Light" font-size="20.0" fill="#000000" transform="matrix(1.00, 0.00, -0.00, -1.00, 863.6, 179.0)">u</text><text xml:space="preserve" font-family="Helvetica-Light" font-size="20.0" fill="#000000" transform="matrix(1.00, 0.00, -0.00, -1.00, 874.8, 179.0)">x</text><text xml:space="preserve" font-family="Helvetica-Light" font-size="20.0" fill="#000000" transform="matrix(1.00, 0.00, -0.00, -1.00, 884.8, 179.0)"> </text><text xml:space="preserve" font-family="Helvetica-Light" font-size="20.0" fill="#000000" transform="matrix(1.00, 0.00, -0.00, -1.00, 890.3, 179.0)">a</text><text xml:space="preserve" font-family="Helvetica-Light" font-size="20.0" fill="#000000" transform="matrix(1.00, 0.00, -0.00, -1.00, 901.4, 179.0)">p</text><text xml:space="preserve" font-family="Helvetica-Light" font-size="20.0" fill="#000000" transform="matrix(1.00, 0.00, -0.00, -1.00, 913.7, 179.0)">p</text></g></g><g><clipPath id="clip-29"><path d="M 805.1 284.1 L 877.6 284.1 L 877.6 411.1 L 805.1 411.1 Z M 805.1 284.1 "></path></clipPath><g clip-path="url(#clip-29)"><path d="M 65.3 118.0 L 65.2 117.0 C 62.1 69.5 40.3 30.5 0.0 0.0 " fill="none" stroke="#000000" stroke-width="2.00" transform="matrix(1.00, 0.00, 0.00, -1.00, 806.7, 409.3)"></path><path d="M 867.0 294.5 L 872.3 285.1 L 876.6 294.9 L 871.9 292.3 Z M 867.0 294.5 " fill="#000000"></path></g></g><g><clipPath id="clip-30"><path d="M -0.2 -1.6 L 255.8 -1.6 L 255.8 10.5 L -0.2 10.5 L -0.2 -1.6 Z M -0.2 -1.6 "></path></clipPath><g clip-path="url(#clip-30)"><path d="M -0.2 -1.6 L 255.8 -1.6 L 255.8 10.5 L -0.2 10.5 L -0.2 -1.6 Z M -0.2 -1.6 " fill="url(#gradSh1.8)"></path></g></g></g></svg>