<?xml version="1.0" encoding="UTF-8" standalone="no"?><svg xmlns="http://www.w3.org/2000/svg" xmlns:xlink="http://www.w3.org/1999/xlink" clip-rule="evenodd" stroke-miterlimit="4.00" viewBox="0 0 603 247"><desc>SVG generated by Keynote</desc><defs></defs><g transform="matrix(1.00, 0.00, -0.00, -1.00, 0.0, 247.0)"><g><clipPath id="clip-11"><path d="M 120.7 0.8 L 602.9 0.8 L 602.9 123.5 L 120.7 123.5 Z M 120.7 0.8 "></path></clipPath><g clip-path="url(#clip-11)"><path d="M 479.0 0.0 C 414.8 134.4 257.4 155.3 6.8 62.6 L 5.8 62.2 " fill="none" stroke="#000000" stroke-width="2.00" transform="matrix(1.00, 0.00, 0.00, -1.00, 122.0, 122.1)"></path><path d="M 132.7 63.1 L 122.0 62.0 L 129.4 54.1 L 128.8 59.5 Z M 132.7 63.1 " fill="#000000"></path></g></g><g><clipPath id="clip-12"><path d="M 66.1 55.8 L 123.0 55.8 L 123.0 89.8 L 66.1 89.8 Z M 66.1 55.8 "></path></clipPath><g clip-path="url(#clip-12)"><text xml:space="preserve" font-family="Helvetica-Light" font-size="20.0" fill="#000000" transform="matrix(1.00, 0.00, -0.00, -1.00, 72.0, 65.0)">r</text><text xml:space="preserve" font-family="Helvetica-Light" font-size="20.0" fill="#000000" transform="matrix(1.00, 0.00, -0.00, -1.00, 78.3, 65.0)">e</text><text xml:space="preserve" font-family="Helvetica-Light" font-size="20.0" fill="#000000" transform="matrix(1.00, 0.00, -0.00, -1.00, 89.4, 65.0)">a</text><text xml:space="preserve" font-family="Helvetica-Light" font-size="20.0" fill="#000000" transform="matrix(1.00, 0.00, -0.00, -1.00, 100.5, 65.0)">c</text><text xml:space="preserve" font-family="Helvetica-Light" font-size="20.0" fill="#000000" transform="matrix(1.00, 0.00, -0.00, -1.00, 111.7, 65.0)">t</text></g></g><g><clipPath id="clip-13"><path d="M 0.0 97.3 L 167.5 97.3 L 167.5 246.0 L 0.0 246.0 Z M 0.0 97.3 "></path></clipPath><g clip-path="url(#clip-13)"><image xlink:href="444FB7AE2555C09FC13EE7CDE0E125A3.png" width="168.00" height="149.00" transform="matrix(0.99, 0.00, -0.00, -1.00, 0.0, 246.0)"></image></g></g></g></svg>